M48
; DRILL file {KiCad 8.0.0} date 2024-03-30T18:18:06+0100
; FORMAT={-:-/ absolute / metric / decimal}
; #@! TF.CreationDate,2024-03-30T18:18:06+01:00
; #@! TF.GenerationSoftware,Kicad,Pcbnew,8.0.0
; #@! TF.FileFunction,Plated,1,2,PTH
FMAT,2
METRIC
; #@! TA.AperFunction,Plated,PTH,ViaDrill
T1C0.300
; #@! TA.AperFunction,Plated,PTH,ComponentDrill
T2C0.750
; #@! TA.AperFunction,Plated,PTH,ViaDrill
T3C0.800
; #@! TA.AperFunction,Plated,PTH,ComponentDrill
T4C0.800
; #@! TA.AperFunction,Plated,PTH,ComponentDrill
T5C1.520
; #@! TA.AperFunction,Plated,PTH,ComponentDrill
T6C1.800
; #@! TA.AperFunction,Plated,PTH,ComponentDrill
T7C1.900
%
G90
G05
T1
X66.9Y-88.1
X73.8Y-97.0
X85.4Y-107.3
X86.7Y-101.5
X87.6Y-108.2
X88.05Y-104.65
X89.1Y-101.5
X89.5Y-98.3
X90.5Y-104.7
X91.8Y-95.8
X92.0Y-98.3
X93.3Y-97.1
X93.75Y-92.55
X94.9Y-92.45
X94.9Y-95.8
X95.8Y-92.4
X96.6Y-82.1
X97.8Y-107.1
X99.1Y-87.2
X99.1Y-88.7
X99.1Y-90.3
X100.2Y-87.2
X100.2Y-88.7
X100.2Y-90.3
X100.4Y-99.1
X101.5Y-87.2
X101.5Y-88.7
X101.5Y-90.3
X102.1Y-94.0
X102.1Y-96.2
X102.1Y-104.0
X102.3Y-76.2
X102.8Y-87.2
X102.8Y-88.7
X102.8Y-90.3
X103.1Y-94.0
X103.1Y-96.2
X103.1Y-103.0
X104.6Y-80.5
X104.8Y-73.1
X105.7Y-82.75
X106.2Y-95.4
X106.625Y-85.225
X107.25Y-87.0
X108.25Y-85.55
X108.9Y-89.97
X108.9Y-92.6
X109.2Y-82.65
X111.0Y-80.0
X111.6Y-84.05
X115.737Y-118.9
X118.6Y-73.7
X118.7Y-115.55
X122.6Y-115.9
X123.637Y-118.9
X123.637Y-118.9
X126.25Y-89.305
X126.5Y-115.05
X130.5Y-115.9
X131.7Y-118.9
X134.662Y-118.9
X138.6Y-115.9
T2
X125.78Y-108.71
X127.05Y-108.71
X128.32Y-108.71
X131.75Y-92.8
X133.02Y-92.8
X134.29Y-92.8
T3
X52.7Y-117.4
X53.5Y-61.2
X53.5Y-80.0
X54.0Y-107.1
X55.4Y-95.1
X56.7Y-122.4
X58.5Y-55.7
X63.6Y-59.8
X64.5Y-102.9
X64.6Y-121.7
X65.6Y-59.8
X67.6Y-59.8
X69.6Y-59.8
X71.6Y-59.8
X71.7Y-80.8
X73.6Y-59.8
X74.7Y-90.5
X75.6Y-59.8
X78.1Y-59.8
X79.5Y-114.2
X80.1Y-59.8
X80.9Y-104.7
X81.5Y-92.0
X82.1Y-59.8
X83.5Y-92.0
X84.1Y-59.8
X85.2Y-81.8
X85.5Y-92.0
X86.1Y-59.8
X87.5Y-92.0
X88.1Y-59.8
X89.5Y-92.0
X89.95Y-79.4
X90.1Y-59.8
X91.5Y-92.0
X92.0Y-114.5
X92.0Y-116.5
X92.0Y-118.5
X92.0Y-120.5
X92.0Y-122.5
X99.3Y-104.1
X102.1Y-57.1
X106.4Y-108.0
X106.95Y-97.45
X109.7Y-72.2
X111.7Y-72.2
X113.0Y-114.5
X113.0Y-116.5
X113.0Y-118.5
X113.0Y-120.5
X113.0Y-122.5
X113.7Y-72.2
X114.762Y-65.875
X116.5Y-96.0
X116.5Y-98.0
X116.5Y-100.0
X116.5Y-102.0
X116.5Y-104.0
X116.5Y-106.0
X116.5Y-108.0
X124.7Y-57.0
X126.7Y-57.0
X128.4Y-100.55
X128.7Y-57.0
X129.0Y-75.0
X129.0Y-77.0
X129.0Y-79.0
X129.0Y-81.0
X129.0Y-85.5
X130.7Y-57.0
X132.7Y-57.0
X132.7Y-61.7
X134.4Y-76.6
X134.7Y-57.0
X136.7Y-57.0
X140.3Y-56.8
X140.4Y-61.3
X142.8Y-79.8
X143.5Y-107.4
X143.5Y-122.1
X144.0Y-93.6
X144.0Y-116.9
X148.5Y-102.1
X149.2Y-85.4
X149.5Y-67.9
T4
X55.0Y-69.9
X55.0Y-73.95
X55.1Y-86.55
X55.1Y-90.6
X63.1Y-86.7
X66.1Y-97.6
X71.48Y-86.62
X75.075Y-78.6
X77.35Y-100.15
X79.125Y-78.6
X84.35Y-113.7
X88.4Y-113.7
X112.15Y-96.675
X112.15Y-99.215
X113.05Y-104.725
X113.05Y-107.265
X119.77Y-96.675
X119.77Y-99.215
X120.67Y-104.725
X120.67Y-107.265
T5
X96.98Y-118.4
X108.22Y-118.4
T6
X69.65Y-104.7
X69.65Y-110.2
X73.85Y-104.7
X73.85Y-110.2
X133.178Y-64.884
X133.178Y-72.684
X133.378Y-102.784
X133.378Y-106.984
X138.678Y-64.884
X138.678Y-72.684
X138.878Y-102.784
X138.878Y-106.984
X138.987Y-80.684
X138.987Y-84.884
X138.987Y-89.084
T7
X96.98Y-122.4
X108.22Y-122.4
M30
