%TF.GenerationSoftware,KiCad,Pcbnew,8.0.0*%
%TF.CreationDate,2024-03-30T18:18:07+01:00*%
%TF.ProjectId,MCU,4d43552e-6b69-4636-9164-5f7063625858,rev?*%
%TF.SameCoordinates,Original*%
%TF.FileFunction,Drillmap*%
%TF.FilePolarity,Positive*%
%FSLAX45Y45*%
G04 Gerber Fmt 4.5, Leading zero omitted, Abs format (unit mm)*
G04 Created by KiCad (PCBNEW 8.0.0) date 2024-03-30 18:18:07*
%MOMM*%
%LPD*%
G01*
G04 APERTURE LIST*
%ADD10C,0.050000*%
%ADD11C,0.200000*%
%ADD12C,0.220000*%
%ADD13C,0.300000*%
G04 APERTURE END LIST*
D10*
X7430000Y-12420000D02*
X9800000Y-12420000D01*
X11180000Y-12420000D02*
X10720000Y-12420000D01*
X5090000Y-5410000D02*
X15100000Y-5420000D01*
X14000000Y-12420000D02*
X11180000Y-12420000D01*
X15100000Y-5420000D02*
X15100000Y-12420000D01*
X10720000Y-11810000D02*
X10720000Y-12420000D01*
X7430000Y-12420000D02*
X5090000Y-12410000D01*
X9800000Y-12420000D02*
X9800000Y-11810000D01*
X5090000Y-12410000D02*
X5090000Y-5410000D01*
X14000000Y-12420000D02*
X15100000Y-12420000D01*
X9800000Y-11810000D02*
X10720000Y-11810000D01*
D11*
D12*
X5390000Y-5710000D02*
X5610000Y-5930000D01*
X5610000Y-5710000D02*
X5390000Y-5930000D01*
X5390000Y-11890000D02*
X5610000Y-12110000D01*
X5610000Y-11890000D02*
X5390000Y-12110000D01*
X14590000Y-5710000D02*
X14810000Y-5930000D01*
X14810000Y-5710000D02*
X14590000Y-5930000D01*
X14590000Y-11910000D02*
X14810000Y-12130000D01*
X14810000Y-11910000D02*
X14590000Y-12130000D01*
D13*
X7325000Y-11750000D02*
G75*
G02*
X7025000Y-11750000I-150000J0D01*
G01*
X7025000Y-11750000D02*
G75*
G02*
X7325000Y-11750000I150000J0D01*
G01*
X14747810Y-6488425D02*
G75*
G02*
X14447810Y-6488425I-150000J0D01*
G01*
X14447810Y-6488425D02*
G75*
G02*
X14747810Y-6488425I150000J0D01*
G01*
X14747810Y-7268425D02*
G75*
G02*
X14447810Y-7268425I-150000J0D01*
G01*
X14447810Y-7268425D02*
G75*
G02*
X14747810Y-7268425I150000J0D01*
G01*
X14767810Y-10488425D02*
G75*
G02*
X14467810Y-10488425I-150000J0D01*
G01*
X14467810Y-10488425D02*
G75*
G02*
X14767810Y-10488425I150000J0D01*
G01*
X14778710Y-8068425D02*
G75*
G02*
X14478710Y-8068425I-150000J0D01*
G01*
X14478710Y-8068425D02*
G75*
G02*
X14778710Y-8068425I150000J0D01*
G01*
X14778710Y-8908425D02*
G75*
G02*
X14478710Y-8908425I-150000J0D01*
G01*
X14478710Y-8908425D02*
G75*
G02*
X14778710Y-8908425I150000J0D01*
G01*
D11*
X5348277Y-12733984D02*
X5348277Y-12533984D01*
X5348277Y-12533984D02*
X5395896Y-12533984D01*
X5395896Y-12533984D02*
X5424467Y-12543508D01*
X5424467Y-12543508D02*
X5443515Y-12562555D01*
X5443515Y-12562555D02*
X5453039Y-12581603D01*
X5453039Y-12581603D02*
X5462563Y-12619698D01*
X5462563Y-12619698D02*
X5462563Y-12648269D01*
X5462563Y-12648269D02*
X5453039Y-12686365D01*
X5453039Y-12686365D02*
X5443515Y-12705412D01*
X5443515Y-12705412D02*
X5424467Y-12724460D01*
X5424467Y-12724460D02*
X5395896Y-12733984D01*
X5395896Y-12733984D02*
X5348277Y-12733984D01*
X5548277Y-12733984D02*
X5548277Y-12600650D01*
X5548277Y-12638746D02*
X5557801Y-12619698D01*
X5557801Y-12619698D02*
X5567324Y-12610174D01*
X5567324Y-12610174D02*
X5586372Y-12600650D01*
X5586372Y-12600650D02*
X5605420Y-12600650D01*
X5672086Y-12733984D02*
X5672086Y-12600650D01*
X5672086Y-12533984D02*
X5662562Y-12543508D01*
X5662562Y-12543508D02*
X5672086Y-12553031D01*
X5672086Y-12553031D02*
X5681610Y-12543508D01*
X5681610Y-12543508D02*
X5672086Y-12533984D01*
X5672086Y-12533984D02*
X5672086Y-12553031D01*
X5795896Y-12733984D02*
X5776848Y-12724460D01*
X5776848Y-12724460D02*
X5767324Y-12705412D01*
X5767324Y-12705412D02*
X5767324Y-12533984D01*
X5900658Y-12733984D02*
X5881610Y-12724460D01*
X5881610Y-12724460D02*
X5872086Y-12705412D01*
X5872086Y-12705412D02*
X5872086Y-12533984D01*
X6129229Y-12733984D02*
X6129229Y-12533984D01*
X6129229Y-12533984D02*
X6195896Y-12676841D01*
X6195896Y-12676841D02*
X6262562Y-12533984D01*
X6262562Y-12533984D02*
X6262562Y-12733984D01*
X6443515Y-12733984D02*
X6443515Y-12629222D01*
X6443515Y-12629222D02*
X6433991Y-12610174D01*
X6433991Y-12610174D02*
X6414943Y-12600650D01*
X6414943Y-12600650D02*
X6376848Y-12600650D01*
X6376848Y-12600650D02*
X6357801Y-12610174D01*
X6443515Y-12724460D02*
X6424467Y-12733984D01*
X6424467Y-12733984D02*
X6376848Y-12733984D01*
X6376848Y-12733984D02*
X6357801Y-12724460D01*
X6357801Y-12724460D02*
X6348277Y-12705412D01*
X6348277Y-12705412D02*
X6348277Y-12686365D01*
X6348277Y-12686365D02*
X6357801Y-12667317D01*
X6357801Y-12667317D02*
X6376848Y-12657793D01*
X6376848Y-12657793D02*
X6424467Y-12657793D01*
X6424467Y-12657793D02*
X6443515Y-12648269D01*
X6538753Y-12600650D02*
X6538753Y-12800650D01*
X6538753Y-12610174D02*
X6557801Y-12600650D01*
X6557801Y-12600650D02*
X6595896Y-12600650D01*
X6595896Y-12600650D02*
X6614943Y-12610174D01*
X6614943Y-12610174D02*
X6624467Y-12619698D01*
X6624467Y-12619698D02*
X6633991Y-12638746D01*
X6633991Y-12638746D02*
X6633991Y-12695888D01*
X6633991Y-12695888D02*
X6624467Y-12714936D01*
X6624467Y-12714936D02*
X6614943Y-12724460D01*
X6614943Y-12724460D02*
X6595896Y-12733984D01*
X6595896Y-12733984D02*
X6557801Y-12733984D01*
X6557801Y-12733984D02*
X6538753Y-12724460D01*
X6719705Y-12714936D02*
X6729229Y-12724460D01*
X6729229Y-12724460D02*
X6719705Y-12733984D01*
X6719705Y-12733984D02*
X6710182Y-12724460D01*
X6710182Y-12724460D02*
X6719705Y-12714936D01*
X6719705Y-12714936D02*
X6719705Y-12733984D01*
X6719705Y-12610174D02*
X6729229Y-12619698D01*
X6729229Y-12619698D02*
X6719705Y-12629222D01*
X6719705Y-12629222D02*
X6710182Y-12619698D01*
X6710182Y-12619698D02*
X6719705Y-12610174D01*
X6719705Y-12610174D02*
X6719705Y-12629222D01*
X4887500Y-12962500D02*
X5087500Y-13162500D01*
X5087500Y-12962500D02*
X4887500Y-13162500D01*
X5338753Y-12973031D02*
X5348277Y-12963508D01*
X5348277Y-12963508D02*
X5367324Y-12953984D01*
X5367324Y-12953984D02*
X5414944Y-12953984D01*
X5414944Y-12953984D02*
X5433991Y-12963508D01*
X5433991Y-12963508D02*
X5443515Y-12973031D01*
X5443515Y-12973031D02*
X5453039Y-12992079D01*
X5453039Y-12992079D02*
X5453039Y-13011127D01*
X5453039Y-13011127D02*
X5443515Y-13039698D01*
X5443515Y-13039698D02*
X5329229Y-13153984D01*
X5329229Y-13153984D02*
X5453039Y-13153984D01*
X5538753Y-13134936D02*
X5548277Y-13144460D01*
X5548277Y-13144460D02*
X5538753Y-13153984D01*
X5538753Y-13153984D02*
X5529229Y-13144460D01*
X5529229Y-13144460D02*
X5538753Y-13134936D01*
X5538753Y-13134936D02*
X5538753Y-13153984D01*
X5624467Y-12973031D02*
X5633991Y-12963508D01*
X5633991Y-12963508D02*
X5653039Y-12953984D01*
X5653039Y-12953984D02*
X5700658Y-12953984D01*
X5700658Y-12953984D02*
X5719705Y-12963508D01*
X5719705Y-12963508D02*
X5729229Y-12973031D01*
X5729229Y-12973031D02*
X5738753Y-12992079D01*
X5738753Y-12992079D02*
X5738753Y-13011127D01*
X5738753Y-13011127D02*
X5729229Y-13039698D01*
X5729229Y-13039698D02*
X5614943Y-13153984D01*
X5614943Y-13153984D02*
X5738753Y-13153984D01*
X5862562Y-12953984D02*
X5881610Y-12953984D01*
X5881610Y-12953984D02*
X5900658Y-12963508D01*
X5900658Y-12963508D02*
X5910182Y-12973031D01*
X5910182Y-12973031D02*
X5919705Y-12992079D01*
X5919705Y-12992079D02*
X5929229Y-13030174D01*
X5929229Y-13030174D02*
X5929229Y-13077793D01*
X5929229Y-13077793D02*
X5919705Y-13115888D01*
X5919705Y-13115888D02*
X5910182Y-13134936D01*
X5910182Y-13134936D02*
X5900658Y-13144460D01*
X5900658Y-13144460D02*
X5881610Y-13153984D01*
X5881610Y-13153984D02*
X5862562Y-13153984D01*
X5862562Y-13153984D02*
X5843515Y-13144460D01*
X5843515Y-13144460D02*
X5833991Y-13134936D01*
X5833991Y-13134936D02*
X5824467Y-13115888D01*
X5824467Y-13115888D02*
X5814943Y-13077793D01*
X5814943Y-13077793D02*
X5814943Y-13030174D01*
X5814943Y-13030174D02*
X5824467Y-12992079D01*
X5824467Y-12992079D02*
X5833991Y-12973031D01*
X5833991Y-12973031D02*
X5843515Y-12963508D01*
X5843515Y-12963508D02*
X5862562Y-12953984D01*
X6053039Y-12953984D02*
X6072086Y-12953984D01*
X6072086Y-12953984D02*
X6091134Y-12963508D01*
X6091134Y-12963508D02*
X6100658Y-12973031D01*
X6100658Y-12973031D02*
X6110182Y-12992079D01*
X6110182Y-12992079D02*
X6119705Y-13030174D01*
X6119705Y-13030174D02*
X6119705Y-13077793D01*
X6119705Y-13077793D02*
X6110182Y-13115888D01*
X6110182Y-13115888D02*
X6100658Y-13134936D01*
X6100658Y-13134936D02*
X6091134Y-13144460D01*
X6091134Y-13144460D02*
X6072086Y-13153984D01*
X6072086Y-13153984D02*
X6053039Y-13153984D01*
X6053039Y-13153984D02*
X6033991Y-13144460D01*
X6033991Y-13144460D02*
X6024467Y-13134936D01*
X6024467Y-13134936D02*
X6014943Y-13115888D01*
X6014943Y-13115888D02*
X6005420Y-13077793D01*
X6005420Y-13077793D02*
X6005420Y-13030174D01*
X6005420Y-13030174D02*
X6014943Y-12992079D01*
X6014943Y-12992079D02*
X6024467Y-12973031D01*
X6024467Y-12973031D02*
X6033991Y-12963508D01*
X6033991Y-12963508D02*
X6053039Y-12953984D01*
X6205420Y-13153984D02*
X6205420Y-13020650D01*
X6205420Y-13039698D02*
X6214943Y-13030174D01*
X6214943Y-13030174D02*
X6233991Y-13020650D01*
X6233991Y-13020650D02*
X6262563Y-13020650D01*
X6262563Y-13020650D02*
X6281610Y-13030174D01*
X6281610Y-13030174D02*
X6291134Y-13049222D01*
X6291134Y-13049222D02*
X6291134Y-13153984D01*
X6291134Y-13049222D02*
X6300658Y-13030174D01*
X6300658Y-13030174D02*
X6319705Y-13020650D01*
X6319705Y-13020650D02*
X6348277Y-13020650D01*
X6348277Y-13020650D02*
X6367324Y-13030174D01*
X6367324Y-13030174D02*
X6376848Y-13049222D01*
X6376848Y-13049222D02*
X6376848Y-13153984D01*
X6472086Y-13153984D02*
X6472086Y-13020650D01*
X6472086Y-13039698D02*
X6481610Y-13030174D01*
X6481610Y-13030174D02*
X6500658Y-13020650D01*
X6500658Y-13020650D02*
X6529229Y-13020650D01*
X6529229Y-13020650D02*
X6548277Y-13030174D01*
X6548277Y-13030174D02*
X6557801Y-13049222D01*
X6557801Y-13049222D02*
X6557801Y-13153984D01*
X6557801Y-13049222D02*
X6567324Y-13030174D01*
X6567324Y-13030174D02*
X6586372Y-13020650D01*
X6586372Y-13020650D02*
X6614943Y-13020650D01*
X6614943Y-13020650D02*
X6633991Y-13030174D01*
X6633991Y-13030174D02*
X6643515Y-13049222D01*
X6643515Y-13049222D02*
X6643515Y-13153984D01*
X7033991Y-12944460D02*
X6862563Y-13201603D01*
X7291134Y-12953984D02*
X7310182Y-12953984D01*
X7310182Y-12953984D02*
X7329229Y-12963508D01*
X7329229Y-12963508D02*
X7338753Y-12973031D01*
X7338753Y-12973031D02*
X7348277Y-12992079D01*
X7348277Y-12992079D02*
X7357801Y-13030174D01*
X7357801Y-13030174D02*
X7357801Y-13077793D01*
X7357801Y-13077793D02*
X7348277Y-13115888D01*
X7348277Y-13115888D02*
X7338753Y-13134936D01*
X7338753Y-13134936D02*
X7329229Y-13144460D01*
X7329229Y-13144460D02*
X7310182Y-13153984D01*
X7310182Y-13153984D02*
X7291134Y-13153984D01*
X7291134Y-13153984D02*
X7272086Y-13144460D01*
X7272086Y-13144460D02*
X7262563Y-13134936D01*
X7262563Y-13134936D02*
X7253039Y-13115888D01*
X7253039Y-13115888D02*
X7243515Y-13077793D01*
X7243515Y-13077793D02*
X7243515Y-13030174D01*
X7243515Y-13030174D02*
X7253039Y-12992079D01*
X7253039Y-12992079D02*
X7262563Y-12973031D01*
X7262563Y-12973031D02*
X7272086Y-12963508D01*
X7272086Y-12963508D02*
X7291134Y-12953984D01*
X7443515Y-13134936D02*
X7453039Y-13144460D01*
X7453039Y-13144460D02*
X7443515Y-13153984D01*
X7443515Y-13153984D02*
X7433991Y-13144460D01*
X7433991Y-13144460D02*
X7443515Y-13134936D01*
X7443515Y-13134936D02*
X7443515Y-13153984D01*
X7576848Y-12953984D02*
X7595896Y-12953984D01*
X7595896Y-12953984D02*
X7614944Y-12963508D01*
X7614944Y-12963508D02*
X7624467Y-12973031D01*
X7624467Y-12973031D02*
X7633991Y-12992079D01*
X7633991Y-12992079D02*
X7643515Y-13030174D01*
X7643515Y-13030174D02*
X7643515Y-13077793D01*
X7643515Y-13077793D02*
X7633991Y-13115888D01*
X7633991Y-13115888D02*
X7624467Y-13134936D01*
X7624467Y-13134936D02*
X7614944Y-13144460D01*
X7614944Y-13144460D02*
X7595896Y-13153984D01*
X7595896Y-13153984D02*
X7576848Y-13153984D01*
X7576848Y-13153984D02*
X7557801Y-13144460D01*
X7557801Y-13144460D02*
X7548277Y-13134936D01*
X7548277Y-13134936D02*
X7538753Y-13115888D01*
X7538753Y-13115888D02*
X7529229Y-13077793D01*
X7529229Y-13077793D02*
X7529229Y-13030174D01*
X7529229Y-13030174D02*
X7538753Y-12992079D01*
X7538753Y-12992079D02*
X7548277Y-12973031D01*
X7548277Y-12973031D02*
X7557801Y-12963508D01*
X7557801Y-12963508D02*
X7576848Y-12953984D01*
X7757801Y-13039698D02*
X7738753Y-13030174D01*
X7738753Y-13030174D02*
X7729229Y-13020650D01*
X7729229Y-13020650D02*
X7719706Y-13001603D01*
X7719706Y-13001603D02*
X7719706Y-12992079D01*
X7719706Y-12992079D02*
X7729229Y-12973031D01*
X7729229Y-12973031D02*
X7738753Y-12963508D01*
X7738753Y-12963508D02*
X7757801Y-12953984D01*
X7757801Y-12953984D02*
X7795896Y-12953984D01*
X7795896Y-12953984D02*
X7814944Y-12963508D01*
X7814944Y-12963508D02*
X7824467Y-12973031D01*
X7824467Y-12973031D02*
X7833991Y-12992079D01*
X7833991Y-12992079D02*
X7833991Y-13001603D01*
X7833991Y-13001603D02*
X7824467Y-13020650D01*
X7824467Y-13020650D02*
X7814944Y-13030174D01*
X7814944Y-13030174D02*
X7795896Y-13039698D01*
X7795896Y-13039698D02*
X7757801Y-13039698D01*
X7757801Y-13039698D02*
X7738753Y-13049222D01*
X7738753Y-13049222D02*
X7729229Y-13058746D01*
X7729229Y-13058746D02*
X7719706Y-13077793D01*
X7719706Y-13077793D02*
X7719706Y-13115888D01*
X7719706Y-13115888D02*
X7729229Y-13134936D01*
X7729229Y-13134936D02*
X7738753Y-13144460D01*
X7738753Y-13144460D02*
X7757801Y-13153984D01*
X7757801Y-13153984D02*
X7795896Y-13153984D01*
X7795896Y-13153984D02*
X7814944Y-13144460D01*
X7814944Y-13144460D02*
X7824467Y-13134936D01*
X7824467Y-13134936D02*
X7833991Y-13115888D01*
X7833991Y-13115888D02*
X7833991Y-13077793D01*
X7833991Y-13077793D02*
X7824467Y-13058746D01*
X7824467Y-13058746D02*
X7814944Y-13049222D01*
X7814944Y-13049222D02*
X7795896Y-13039698D01*
X8005420Y-12953984D02*
X7967325Y-12953984D01*
X7967325Y-12953984D02*
X7948277Y-12963508D01*
X7948277Y-12963508D02*
X7938753Y-12973031D01*
X7938753Y-12973031D02*
X7919706Y-13001603D01*
X7919706Y-13001603D02*
X7910182Y-13039698D01*
X7910182Y-13039698D02*
X7910182Y-13115888D01*
X7910182Y-13115888D02*
X7919706Y-13134936D01*
X7919706Y-13134936D02*
X7929229Y-13144460D01*
X7929229Y-13144460D02*
X7948277Y-13153984D01*
X7948277Y-13153984D02*
X7986372Y-13153984D01*
X7986372Y-13153984D02*
X8005420Y-13144460D01*
X8005420Y-13144460D02*
X8014944Y-13134936D01*
X8014944Y-13134936D02*
X8024467Y-13115888D01*
X8024467Y-13115888D02*
X8024467Y-13068269D01*
X8024467Y-13068269D02*
X8014944Y-13049222D01*
X8014944Y-13049222D02*
X8005420Y-13039698D01*
X8005420Y-13039698D02*
X7986372Y-13030174D01*
X7986372Y-13030174D02*
X7948277Y-13030174D01*
X7948277Y-13030174D02*
X7929229Y-13039698D01*
X7929229Y-13039698D02*
X7919706Y-13049222D01*
X7919706Y-13049222D02*
X7910182Y-13068269D01*
X8195896Y-12953984D02*
X8157801Y-12953984D01*
X8157801Y-12953984D02*
X8138753Y-12963508D01*
X8138753Y-12963508D02*
X8129229Y-12973031D01*
X8129229Y-12973031D02*
X8110182Y-13001603D01*
X8110182Y-13001603D02*
X8100658Y-13039698D01*
X8100658Y-13039698D02*
X8100658Y-13115888D01*
X8100658Y-13115888D02*
X8110182Y-13134936D01*
X8110182Y-13134936D02*
X8119706Y-13144460D01*
X8119706Y-13144460D02*
X8138753Y-13153984D01*
X8138753Y-13153984D02*
X8176848Y-13153984D01*
X8176848Y-13153984D02*
X8195896Y-13144460D01*
X8195896Y-13144460D02*
X8205420Y-13134936D01*
X8205420Y-13134936D02*
X8214944Y-13115888D01*
X8214944Y-13115888D02*
X8214944Y-13068269D01*
X8214944Y-13068269D02*
X8205420Y-13049222D01*
X8205420Y-13049222D02*
X8195896Y-13039698D01*
X8195896Y-13039698D02*
X8176848Y-13030174D01*
X8176848Y-13030174D02*
X8138753Y-13030174D01*
X8138753Y-13030174D02*
X8119706Y-13039698D01*
X8119706Y-13039698D02*
X8110182Y-13049222D01*
X8110182Y-13049222D02*
X8100658Y-13068269D01*
X8291134Y-12953984D02*
X8291134Y-12992079D01*
X8367325Y-12953984D02*
X8367325Y-12992079D01*
X8662563Y-13230174D02*
X8653039Y-13220650D01*
X8653039Y-13220650D02*
X8633991Y-13192079D01*
X8633991Y-13192079D02*
X8624468Y-13173031D01*
X8624468Y-13173031D02*
X8614944Y-13144460D01*
X8614944Y-13144460D02*
X8605420Y-13096841D01*
X8605420Y-13096841D02*
X8605420Y-13058746D01*
X8605420Y-13058746D02*
X8614944Y-13011127D01*
X8614944Y-13011127D02*
X8624468Y-12982555D01*
X8624468Y-12982555D02*
X8633991Y-12963508D01*
X8633991Y-12963508D02*
X8653039Y-12934936D01*
X8653039Y-12934936D02*
X8662563Y-12925412D01*
X8824468Y-13020650D02*
X8824468Y-13153984D01*
X8776849Y-12944460D02*
X8729230Y-13087317D01*
X8729230Y-13087317D02*
X8853039Y-13087317D01*
X9081611Y-13153984D02*
X9081611Y-12953984D01*
X9167325Y-13153984D02*
X9167325Y-13049222D01*
X9167325Y-13049222D02*
X9157801Y-13030174D01*
X9157801Y-13030174D02*
X9138753Y-13020650D01*
X9138753Y-13020650D02*
X9110182Y-13020650D01*
X9110182Y-13020650D02*
X9091134Y-13030174D01*
X9091134Y-13030174D02*
X9081611Y-13039698D01*
X9291134Y-13153984D02*
X9272087Y-13144460D01*
X9272087Y-13144460D02*
X9262563Y-13134936D01*
X9262563Y-13134936D02*
X9253039Y-13115888D01*
X9253039Y-13115888D02*
X9253039Y-13058746D01*
X9253039Y-13058746D02*
X9262563Y-13039698D01*
X9262563Y-13039698D02*
X9272087Y-13030174D01*
X9272087Y-13030174D02*
X9291134Y-13020650D01*
X9291134Y-13020650D02*
X9319706Y-13020650D01*
X9319706Y-13020650D02*
X9338753Y-13030174D01*
X9338753Y-13030174D02*
X9348277Y-13039698D01*
X9348277Y-13039698D02*
X9357801Y-13058746D01*
X9357801Y-13058746D02*
X9357801Y-13115888D01*
X9357801Y-13115888D02*
X9348277Y-13134936D01*
X9348277Y-13134936D02*
X9338753Y-13144460D01*
X9338753Y-13144460D02*
X9319706Y-13153984D01*
X9319706Y-13153984D02*
X9291134Y-13153984D01*
X9472087Y-13153984D02*
X9453039Y-13144460D01*
X9453039Y-13144460D02*
X9443515Y-13125412D01*
X9443515Y-13125412D02*
X9443515Y-12953984D01*
X9624468Y-13144460D02*
X9605420Y-13153984D01*
X9605420Y-13153984D02*
X9567325Y-13153984D01*
X9567325Y-13153984D02*
X9548277Y-13144460D01*
X9548277Y-13144460D02*
X9538753Y-13125412D01*
X9538753Y-13125412D02*
X9538753Y-13049222D01*
X9538753Y-13049222D02*
X9548277Y-13030174D01*
X9548277Y-13030174D02*
X9567325Y-13020650D01*
X9567325Y-13020650D02*
X9605420Y-13020650D01*
X9605420Y-13020650D02*
X9624468Y-13030174D01*
X9624468Y-13030174D02*
X9633992Y-13049222D01*
X9633992Y-13049222D02*
X9633992Y-13068269D01*
X9633992Y-13068269D02*
X9538753Y-13087317D01*
X9710182Y-13144460D02*
X9729230Y-13153984D01*
X9729230Y-13153984D02*
X9767325Y-13153984D01*
X9767325Y-13153984D02*
X9786373Y-13144460D01*
X9786373Y-13144460D02*
X9795896Y-13125412D01*
X9795896Y-13125412D02*
X9795896Y-13115888D01*
X9795896Y-13115888D02*
X9786373Y-13096841D01*
X9786373Y-13096841D02*
X9767325Y-13087317D01*
X9767325Y-13087317D02*
X9738753Y-13087317D01*
X9738753Y-13087317D02*
X9719706Y-13077793D01*
X9719706Y-13077793D02*
X9710182Y-13058746D01*
X9710182Y-13058746D02*
X9710182Y-13049222D01*
X9710182Y-13049222D02*
X9719706Y-13030174D01*
X9719706Y-13030174D02*
X9738753Y-13020650D01*
X9738753Y-13020650D02*
X9767325Y-13020650D01*
X9767325Y-13020650D02*
X9786373Y-13030174D01*
X9862563Y-13230174D02*
X9872087Y-13220650D01*
X9872087Y-13220650D02*
X9891134Y-13192079D01*
X9891134Y-13192079D02*
X9900658Y-13173031D01*
X9900658Y-13173031D02*
X9910182Y-13144460D01*
X9910182Y-13144460D02*
X9919706Y-13096841D01*
X9919706Y-13096841D02*
X9919706Y-13058746D01*
X9919706Y-13058746D02*
X9910182Y-13011127D01*
X9910182Y-13011127D02*
X9900658Y-12982555D01*
X9900658Y-12982555D02*
X9891134Y-12963508D01*
X9891134Y-12963508D02*
X9872087Y-12934936D01*
X9872087Y-12934936D02*
X9862563Y-12925412D01*
X10224468Y-13230174D02*
X10214944Y-13220650D01*
X10214944Y-13220650D02*
X10195896Y-13192079D01*
X10195896Y-13192079D02*
X10186373Y-13173031D01*
X10186373Y-13173031D02*
X10176849Y-13144460D01*
X10176849Y-13144460D02*
X10167325Y-13096841D01*
X10167325Y-13096841D02*
X10167325Y-13058746D01*
X10167325Y-13058746D02*
X10176849Y-13011127D01*
X10176849Y-13011127D02*
X10186373Y-12982555D01*
X10186373Y-12982555D02*
X10195896Y-12963508D01*
X10195896Y-12963508D02*
X10214944Y-12934936D01*
X10214944Y-12934936D02*
X10224468Y-12925412D01*
X10300658Y-13020650D02*
X10300658Y-13153984D01*
X10300658Y-13039698D02*
X10310182Y-13030174D01*
X10310182Y-13030174D02*
X10329230Y-13020650D01*
X10329230Y-13020650D02*
X10357801Y-13020650D01*
X10357801Y-13020650D02*
X10376849Y-13030174D01*
X10376849Y-13030174D02*
X10386373Y-13049222D01*
X10386373Y-13049222D02*
X10386373Y-13153984D01*
X10510182Y-13153984D02*
X10491134Y-13144460D01*
X10491134Y-13144460D02*
X10481611Y-13134936D01*
X10481611Y-13134936D02*
X10472087Y-13115888D01*
X10472087Y-13115888D02*
X10472087Y-13058746D01*
X10472087Y-13058746D02*
X10481611Y-13039698D01*
X10481611Y-13039698D02*
X10491134Y-13030174D01*
X10491134Y-13030174D02*
X10510182Y-13020650D01*
X10510182Y-13020650D02*
X10538754Y-13020650D01*
X10538754Y-13020650D02*
X10557801Y-13030174D01*
X10557801Y-13030174D02*
X10567325Y-13039698D01*
X10567325Y-13039698D02*
X10576849Y-13058746D01*
X10576849Y-13058746D02*
X10576849Y-13115888D01*
X10576849Y-13115888D02*
X10567325Y-13134936D01*
X10567325Y-13134936D02*
X10557801Y-13144460D01*
X10557801Y-13144460D02*
X10538754Y-13153984D01*
X10538754Y-13153984D02*
X10510182Y-13153984D01*
X10633992Y-13020650D02*
X10710182Y-13020650D01*
X10662563Y-12953984D02*
X10662563Y-13125412D01*
X10662563Y-13125412D02*
X10672087Y-13144460D01*
X10672087Y-13144460D02*
X10691134Y-13153984D01*
X10691134Y-13153984D02*
X10710182Y-13153984D01*
X10929230Y-13020650D02*
X10929230Y-13220650D01*
X10929230Y-13030174D02*
X10948277Y-13020650D01*
X10948277Y-13020650D02*
X10986373Y-13020650D01*
X10986373Y-13020650D02*
X11005420Y-13030174D01*
X11005420Y-13030174D02*
X11014944Y-13039698D01*
X11014944Y-13039698D02*
X11024468Y-13058746D01*
X11024468Y-13058746D02*
X11024468Y-13115888D01*
X11024468Y-13115888D02*
X11014944Y-13134936D01*
X11014944Y-13134936D02*
X11005420Y-13144460D01*
X11005420Y-13144460D02*
X10986373Y-13153984D01*
X10986373Y-13153984D02*
X10948277Y-13153984D01*
X10948277Y-13153984D02*
X10929230Y-13144460D01*
X11138754Y-13153984D02*
X11119706Y-13144460D01*
X11119706Y-13144460D02*
X11110182Y-13125412D01*
X11110182Y-13125412D02*
X11110182Y-12953984D01*
X11300658Y-13153984D02*
X11300658Y-13049222D01*
X11300658Y-13049222D02*
X11291134Y-13030174D01*
X11291134Y-13030174D02*
X11272087Y-13020650D01*
X11272087Y-13020650D02*
X11233992Y-13020650D01*
X11233992Y-13020650D02*
X11214944Y-13030174D01*
X11300658Y-13144460D02*
X11281611Y-13153984D01*
X11281611Y-13153984D02*
X11233992Y-13153984D01*
X11233992Y-13153984D02*
X11214944Y-13144460D01*
X11214944Y-13144460D02*
X11205420Y-13125412D01*
X11205420Y-13125412D02*
X11205420Y-13106365D01*
X11205420Y-13106365D02*
X11214944Y-13087317D01*
X11214944Y-13087317D02*
X11233992Y-13077793D01*
X11233992Y-13077793D02*
X11281611Y-13077793D01*
X11281611Y-13077793D02*
X11300658Y-13068269D01*
X11367325Y-13020650D02*
X11443515Y-13020650D01*
X11395896Y-12953984D02*
X11395896Y-13125412D01*
X11395896Y-13125412D02*
X11405420Y-13144460D01*
X11405420Y-13144460D02*
X11424468Y-13153984D01*
X11424468Y-13153984D02*
X11443515Y-13153984D01*
X11586373Y-13144460D02*
X11567325Y-13153984D01*
X11567325Y-13153984D02*
X11529230Y-13153984D01*
X11529230Y-13153984D02*
X11510182Y-13144460D01*
X11510182Y-13144460D02*
X11500658Y-13125412D01*
X11500658Y-13125412D02*
X11500658Y-13049222D01*
X11500658Y-13049222D02*
X11510182Y-13030174D01*
X11510182Y-13030174D02*
X11529230Y-13020650D01*
X11529230Y-13020650D02*
X11567325Y-13020650D01*
X11567325Y-13020650D02*
X11586373Y-13030174D01*
X11586373Y-13030174D02*
X11595896Y-13049222D01*
X11595896Y-13049222D02*
X11595896Y-13068269D01*
X11595896Y-13068269D02*
X11500658Y-13087317D01*
X11767325Y-13153984D02*
X11767325Y-12953984D01*
X11767325Y-13144460D02*
X11748277Y-13153984D01*
X11748277Y-13153984D02*
X11710182Y-13153984D01*
X11710182Y-13153984D02*
X11691134Y-13144460D01*
X11691134Y-13144460D02*
X11681611Y-13134936D01*
X11681611Y-13134936D02*
X11672087Y-13115888D01*
X11672087Y-13115888D02*
X11672087Y-13058746D01*
X11672087Y-13058746D02*
X11681611Y-13039698D01*
X11681611Y-13039698D02*
X11691134Y-13030174D01*
X11691134Y-13030174D02*
X11710182Y-13020650D01*
X11710182Y-13020650D02*
X11748277Y-13020650D01*
X11748277Y-13020650D02*
X11767325Y-13030174D01*
X11843515Y-13230174D02*
X11853039Y-13220650D01*
X11853039Y-13220650D02*
X11872087Y-13192079D01*
X11872087Y-13192079D02*
X11881611Y-13173031D01*
X11881611Y-13173031D02*
X11891134Y-13144460D01*
X11891134Y-13144460D02*
X11900658Y-13096841D01*
X11900658Y-13096841D02*
X11900658Y-13058746D01*
X11900658Y-13058746D02*
X11891134Y-13011127D01*
X11891134Y-13011127D02*
X11881611Y-12982555D01*
X11881611Y-12982555D02*
X11872087Y-12963508D01*
X11872087Y-12963508D02*
X11853039Y-12934936D01*
X11853039Y-12934936D02*
X11843515Y-12925412D01*
X5087500Y-13382500D02*
G75*
G02*
X4887500Y-13382500I-100000J0D01*
G01*
X4887500Y-13382500D02*
G75*
G02*
X5087500Y-13382500I100000J0D01*
G01*
X5329229Y-13273984D02*
X5453039Y-13273984D01*
X5453039Y-13273984D02*
X5386372Y-13350174D01*
X5386372Y-13350174D02*
X5414944Y-13350174D01*
X5414944Y-13350174D02*
X5433991Y-13359698D01*
X5433991Y-13359698D02*
X5443515Y-13369222D01*
X5443515Y-13369222D02*
X5453039Y-13388269D01*
X5453039Y-13388269D02*
X5453039Y-13435888D01*
X5453039Y-13435888D02*
X5443515Y-13454936D01*
X5443515Y-13454936D02*
X5433991Y-13464460D01*
X5433991Y-13464460D02*
X5414944Y-13473984D01*
X5414944Y-13473984D02*
X5357801Y-13473984D01*
X5357801Y-13473984D02*
X5338753Y-13464460D01*
X5338753Y-13464460D02*
X5329229Y-13454936D01*
X5538753Y-13454936D02*
X5548277Y-13464460D01*
X5548277Y-13464460D02*
X5538753Y-13473984D01*
X5538753Y-13473984D02*
X5529229Y-13464460D01*
X5529229Y-13464460D02*
X5538753Y-13454936D01*
X5538753Y-13454936D02*
X5538753Y-13473984D01*
X5672086Y-13273984D02*
X5691134Y-13273984D01*
X5691134Y-13273984D02*
X5710182Y-13283508D01*
X5710182Y-13283508D02*
X5719705Y-13293031D01*
X5719705Y-13293031D02*
X5729229Y-13312079D01*
X5729229Y-13312079D02*
X5738753Y-13350174D01*
X5738753Y-13350174D02*
X5738753Y-13397793D01*
X5738753Y-13397793D02*
X5729229Y-13435888D01*
X5729229Y-13435888D02*
X5719705Y-13454936D01*
X5719705Y-13454936D02*
X5710182Y-13464460D01*
X5710182Y-13464460D02*
X5691134Y-13473984D01*
X5691134Y-13473984D02*
X5672086Y-13473984D01*
X5672086Y-13473984D02*
X5653039Y-13464460D01*
X5653039Y-13464460D02*
X5643515Y-13454936D01*
X5643515Y-13454936D02*
X5633991Y-13435888D01*
X5633991Y-13435888D02*
X5624467Y-13397793D01*
X5624467Y-13397793D02*
X5624467Y-13350174D01*
X5624467Y-13350174D02*
X5633991Y-13312079D01*
X5633991Y-13312079D02*
X5643515Y-13293031D01*
X5643515Y-13293031D02*
X5653039Y-13283508D01*
X5653039Y-13283508D02*
X5672086Y-13273984D01*
X5862562Y-13273984D02*
X5881610Y-13273984D01*
X5881610Y-13273984D02*
X5900658Y-13283508D01*
X5900658Y-13283508D02*
X5910182Y-13293031D01*
X5910182Y-13293031D02*
X5919705Y-13312079D01*
X5919705Y-13312079D02*
X5929229Y-13350174D01*
X5929229Y-13350174D02*
X5929229Y-13397793D01*
X5929229Y-13397793D02*
X5919705Y-13435888D01*
X5919705Y-13435888D02*
X5910182Y-13454936D01*
X5910182Y-13454936D02*
X5900658Y-13464460D01*
X5900658Y-13464460D02*
X5881610Y-13473984D01*
X5881610Y-13473984D02*
X5862562Y-13473984D01*
X5862562Y-13473984D02*
X5843515Y-13464460D01*
X5843515Y-13464460D02*
X5833991Y-13454936D01*
X5833991Y-13454936D02*
X5824467Y-13435888D01*
X5824467Y-13435888D02*
X5814943Y-13397793D01*
X5814943Y-13397793D02*
X5814943Y-13350174D01*
X5814943Y-13350174D02*
X5824467Y-13312079D01*
X5824467Y-13312079D02*
X5833991Y-13293031D01*
X5833991Y-13293031D02*
X5843515Y-13283508D01*
X5843515Y-13283508D02*
X5862562Y-13273984D01*
X6053039Y-13273984D02*
X6072086Y-13273984D01*
X6072086Y-13273984D02*
X6091134Y-13283508D01*
X6091134Y-13283508D02*
X6100658Y-13293031D01*
X6100658Y-13293031D02*
X6110182Y-13312079D01*
X6110182Y-13312079D02*
X6119705Y-13350174D01*
X6119705Y-13350174D02*
X6119705Y-13397793D01*
X6119705Y-13397793D02*
X6110182Y-13435888D01*
X6110182Y-13435888D02*
X6100658Y-13454936D01*
X6100658Y-13454936D02*
X6091134Y-13464460D01*
X6091134Y-13464460D02*
X6072086Y-13473984D01*
X6072086Y-13473984D02*
X6053039Y-13473984D01*
X6053039Y-13473984D02*
X6033991Y-13464460D01*
X6033991Y-13464460D02*
X6024467Y-13454936D01*
X6024467Y-13454936D02*
X6014943Y-13435888D01*
X6014943Y-13435888D02*
X6005420Y-13397793D01*
X6005420Y-13397793D02*
X6005420Y-13350174D01*
X6005420Y-13350174D02*
X6014943Y-13312079D01*
X6014943Y-13312079D02*
X6024467Y-13293031D01*
X6024467Y-13293031D02*
X6033991Y-13283508D01*
X6033991Y-13283508D02*
X6053039Y-13273984D01*
X6205420Y-13473984D02*
X6205420Y-13340650D01*
X6205420Y-13359698D02*
X6214943Y-13350174D01*
X6214943Y-13350174D02*
X6233991Y-13340650D01*
X6233991Y-13340650D02*
X6262563Y-13340650D01*
X6262563Y-13340650D02*
X6281610Y-13350174D01*
X6281610Y-13350174D02*
X6291134Y-13369222D01*
X6291134Y-13369222D02*
X6291134Y-13473984D01*
X6291134Y-13369222D02*
X6300658Y-13350174D01*
X6300658Y-13350174D02*
X6319705Y-13340650D01*
X6319705Y-13340650D02*
X6348277Y-13340650D01*
X6348277Y-13340650D02*
X6367324Y-13350174D01*
X6367324Y-13350174D02*
X6376848Y-13369222D01*
X6376848Y-13369222D02*
X6376848Y-13473984D01*
X6472086Y-13473984D02*
X6472086Y-13340650D01*
X6472086Y-13359698D02*
X6481610Y-13350174D01*
X6481610Y-13350174D02*
X6500658Y-13340650D01*
X6500658Y-13340650D02*
X6529229Y-13340650D01*
X6529229Y-13340650D02*
X6548277Y-13350174D01*
X6548277Y-13350174D02*
X6557801Y-13369222D01*
X6557801Y-13369222D02*
X6557801Y-13473984D01*
X6557801Y-13369222D02*
X6567324Y-13350174D01*
X6567324Y-13350174D02*
X6586372Y-13340650D01*
X6586372Y-13340650D02*
X6614943Y-13340650D01*
X6614943Y-13340650D02*
X6633991Y-13350174D01*
X6633991Y-13350174D02*
X6643515Y-13369222D01*
X6643515Y-13369222D02*
X6643515Y-13473984D01*
X7033991Y-13264460D02*
X6862563Y-13521603D01*
X7291134Y-13273984D02*
X7310182Y-13273984D01*
X7310182Y-13273984D02*
X7329229Y-13283508D01*
X7329229Y-13283508D02*
X7338753Y-13293031D01*
X7338753Y-13293031D02*
X7348277Y-13312079D01*
X7348277Y-13312079D02*
X7357801Y-13350174D01*
X7357801Y-13350174D02*
X7357801Y-13397793D01*
X7357801Y-13397793D02*
X7348277Y-13435888D01*
X7348277Y-13435888D02*
X7338753Y-13454936D01*
X7338753Y-13454936D02*
X7329229Y-13464460D01*
X7329229Y-13464460D02*
X7310182Y-13473984D01*
X7310182Y-13473984D02*
X7291134Y-13473984D01*
X7291134Y-13473984D02*
X7272086Y-13464460D01*
X7272086Y-13464460D02*
X7262563Y-13454936D01*
X7262563Y-13454936D02*
X7253039Y-13435888D01*
X7253039Y-13435888D02*
X7243515Y-13397793D01*
X7243515Y-13397793D02*
X7243515Y-13350174D01*
X7243515Y-13350174D02*
X7253039Y-13312079D01*
X7253039Y-13312079D02*
X7262563Y-13293031D01*
X7262563Y-13293031D02*
X7272086Y-13283508D01*
X7272086Y-13283508D02*
X7291134Y-13273984D01*
X7443515Y-13454936D02*
X7453039Y-13464460D01*
X7453039Y-13464460D02*
X7443515Y-13473984D01*
X7443515Y-13473984D02*
X7433991Y-13464460D01*
X7433991Y-13464460D02*
X7443515Y-13454936D01*
X7443515Y-13454936D02*
X7443515Y-13473984D01*
X7643515Y-13473984D02*
X7529229Y-13473984D01*
X7586372Y-13473984D02*
X7586372Y-13273984D01*
X7586372Y-13273984D02*
X7567325Y-13302555D01*
X7567325Y-13302555D02*
X7548277Y-13321603D01*
X7548277Y-13321603D02*
X7529229Y-13331127D01*
X7833991Y-13473984D02*
X7719706Y-13473984D01*
X7776848Y-13473984D02*
X7776848Y-13273984D01*
X7776848Y-13273984D02*
X7757801Y-13302555D01*
X7757801Y-13302555D02*
X7738753Y-13321603D01*
X7738753Y-13321603D02*
X7719706Y-13331127D01*
X7948277Y-13359698D02*
X7929229Y-13350174D01*
X7929229Y-13350174D02*
X7919706Y-13340650D01*
X7919706Y-13340650D02*
X7910182Y-13321603D01*
X7910182Y-13321603D02*
X7910182Y-13312079D01*
X7910182Y-13312079D02*
X7919706Y-13293031D01*
X7919706Y-13293031D02*
X7929229Y-13283508D01*
X7929229Y-13283508D02*
X7948277Y-13273984D01*
X7948277Y-13273984D02*
X7986372Y-13273984D01*
X7986372Y-13273984D02*
X8005420Y-13283508D01*
X8005420Y-13283508D02*
X8014944Y-13293031D01*
X8014944Y-13293031D02*
X8024467Y-13312079D01*
X8024467Y-13312079D02*
X8024467Y-13321603D01*
X8024467Y-13321603D02*
X8014944Y-13340650D01*
X8014944Y-13340650D02*
X8005420Y-13350174D01*
X8005420Y-13350174D02*
X7986372Y-13359698D01*
X7986372Y-13359698D02*
X7948277Y-13359698D01*
X7948277Y-13359698D02*
X7929229Y-13369222D01*
X7929229Y-13369222D02*
X7919706Y-13378746D01*
X7919706Y-13378746D02*
X7910182Y-13397793D01*
X7910182Y-13397793D02*
X7910182Y-13435888D01*
X7910182Y-13435888D02*
X7919706Y-13454936D01*
X7919706Y-13454936D02*
X7929229Y-13464460D01*
X7929229Y-13464460D02*
X7948277Y-13473984D01*
X7948277Y-13473984D02*
X7986372Y-13473984D01*
X7986372Y-13473984D02*
X8005420Y-13464460D01*
X8005420Y-13464460D02*
X8014944Y-13454936D01*
X8014944Y-13454936D02*
X8024467Y-13435888D01*
X8024467Y-13435888D02*
X8024467Y-13397793D01*
X8024467Y-13397793D02*
X8014944Y-13378746D01*
X8014944Y-13378746D02*
X8005420Y-13369222D01*
X8005420Y-13369222D02*
X7986372Y-13359698D01*
X8214944Y-13473984D02*
X8100658Y-13473984D01*
X8157801Y-13473984D02*
X8157801Y-13273984D01*
X8157801Y-13273984D02*
X8138753Y-13302555D01*
X8138753Y-13302555D02*
X8119706Y-13321603D01*
X8119706Y-13321603D02*
X8100658Y-13331127D01*
X8291134Y-13273984D02*
X8291134Y-13312079D01*
X8367325Y-13273984D02*
X8367325Y-13312079D01*
X8662563Y-13550174D02*
X8653039Y-13540650D01*
X8653039Y-13540650D02*
X8633991Y-13512079D01*
X8633991Y-13512079D02*
X8624468Y-13493031D01*
X8624468Y-13493031D02*
X8614944Y-13464460D01*
X8614944Y-13464460D02*
X8605420Y-13416841D01*
X8605420Y-13416841D02*
X8605420Y-13378746D01*
X8605420Y-13378746D02*
X8614944Y-13331127D01*
X8614944Y-13331127D02*
X8624468Y-13302555D01*
X8624468Y-13302555D02*
X8633991Y-13283508D01*
X8633991Y-13283508D02*
X8653039Y-13254936D01*
X8653039Y-13254936D02*
X8662563Y-13245412D01*
X8824468Y-13273984D02*
X8786372Y-13273984D01*
X8786372Y-13273984D02*
X8767325Y-13283508D01*
X8767325Y-13283508D02*
X8757801Y-13293031D01*
X8757801Y-13293031D02*
X8738753Y-13321603D01*
X8738753Y-13321603D02*
X8729230Y-13359698D01*
X8729230Y-13359698D02*
X8729230Y-13435888D01*
X8729230Y-13435888D02*
X8738753Y-13454936D01*
X8738753Y-13454936D02*
X8748277Y-13464460D01*
X8748277Y-13464460D02*
X8767325Y-13473984D01*
X8767325Y-13473984D02*
X8805420Y-13473984D01*
X8805420Y-13473984D02*
X8824468Y-13464460D01*
X8824468Y-13464460D02*
X8833991Y-13454936D01*
X8833991Y-13454936D02*
X8843515Y-13435888D01*
X8843515Y-13435888D02*
X8843515Y-13388269D01*
X8843515Y-13388269D02*
X8833991Y-13369222D01*
X8833991Y-13369222D02*
X8824468Y-13359698D01*
X8824468Y-13359698D02*
X8805420Y-13350174D01*
X8805420Y-13350174D02*
X8767325Y-13350174D01*
X8767325Y-13350174D02*
X8748277Y-13359698D01*
X8748277Y-13359698D02*
X8738753Y-13369222D01*
X8738753Y-13369222D02*
X8729230Y-13388269D01*
X9081611Y-13473984D02*
X9081611Y-13273984D01*
X9167325Y-13473984D02*
X9167325Y-13369222D01*
X9167325Y-13369222D02*
X9157801Y-13350174D01*
X9157801Y-13350174D02*
X9138753Y-13340650D01*
X9138753Y-13340650D02*
X9110182Y-13340650D01*
X9110182Y-13340650D02*
X9091134Y-13350174D01*
X9091134Y-13350174D02*
X9081611Y-13359698D01*
X9291134Y-13473984D02*
X9272087Y-13464460D01*
X9272087Y-13464460D02*
X9262563Y-13454936D01*
X9262563Y-13454936D02*
X9253039Y-13435888D01*
X9253039Y-13435888D02*
X9253039Y-13378746D01*
X9253039Y-13378746D02*
X9262563Y-13359698D01*
X9262563Y-13359698D02*
X9272087Y-13350174D01*
X9272087Y-13350174D02*
X9291134Y-13340650D01*
X9291134Y-13340650D02*
X9319706Y-13340650D01*
X9319706Y-13340650D02*
X9338753Y-13350174D01*
X9338753Y-13350174D02*
X9348277Y-13359698D01*
X9348277Y-13359698D02*
X9357801Y-13378746D01*
X9357801Y-13378746D02*
X9357801Y-13435888D01*
X9357801Y-13435888D02*
X9348277Y-13454936D01*
X9348277Y-13454936D02*
X9338753Y-13464460D01*
X9338753Y-13464460D02*
X9319706Y-13473984D01*
X9319706Y-13473984D02*
X9291134Y-13473984D01*
X9472087Y-13473984D02*
X9453039Y-13464460D01*
X9453039Y-13464460D02*
X9443515Y-13445412D01*
X9443515Y-13445412D02*
X9443515Y-13273984D01*
X9624468Y-13464460D02*
X9605420Y-13473984D01*
X9605420Y-13473984D02*
X9567325Y-13473984D01*
X9567325Y-13473984D02*
X9548277Y-13464460D01*
X9548277Y-13464460D02*
X9538753Y-13445412D01*
X9538753Y-13445412D02*
X9538753Y-13369222D01*
X9538753Y-13369222D02*
X9548277Y-13350174D01*
X9548277Y-13350174D02*
X9567325Y-13340650D01*
X9567325Y-13340650D02*
X9605420Y-13340650D01*
X9605420Y-13340650D02*
X9624468Y-13350174D01*
X9624468Y-13350174D02*
X9633992Y-13369222D01*
X9633992Y-13369222D02*
X9633992Y-13388269D01*
X9633992Y-13388269D02*
X9538753Y-13407317D01*
X9710182Y-13464460D02*
X9729230Y-13473984D01*
X9729230Y-13473984D02*
X9767325Y-13473984D01*
X9767325Y-13473984D02*
X9786373Y-13464460D01*
X9786373Y-13464460D02*
X9795896Y-13445412D01*
X9795896Y-13445412D02*
X9795896Y-13435888D01*
X9795896Y-13435888D02*
X9786373Y-13416841D01*
X9786373Y-13416841D02*
X9767325Y-13407317D01*
X9767325Y-13407317D02*
X9738753Y-13407317D01*
X9738753Y-13407317D02*
X9719706Y-13397793D01*
X9719706Y-13397793D02*
X9710182Y-13378746D01*
X9710182Y-13378746D02*
X9710182Y-13369222D01*
X9710182Y-13369222D02*
X9719706Y-13350174D01*
X9719706Y-13350174D02*
X9738753Y-13340650D01*
X9738753Y-13340650D02*
X9767325Y-13340650D01*
X9767325Y-13340650D02*
X9786373Y-13350174D01*
X9862563Y-13550174D02*
X9872087Y-13540650D01*
X9872087Y-13540650D02*
X9891134Y-13512079D01*
X9891134Y-13512079D02*
X9900658Y-13493031D01*
X9900658Y-13493031D02*
X9910182Y-13464460D01*
X9910182Y-13464460D02*
X9919706Y-13416841D01*
X9919706Y-13416841D02*
X9919706Y-13378746D01*
X9919706Y-13378746D02*
X9910182Y-13331127D01*
X9910182Y-13331127D02*
X9900658Y-13302555D01*
X9900658Y-13302555D02*
X9891134Y-13283508D01*
X9891134Y-13283508D02*
X9872087Y-13254936D01*
X9872087Y-13254936D02*
X9862563Y-13245412D01*
X10224468Y-13550174D02*
X10214944Y-13540650D01*
X10214944Y-13540650D02*
X10195896Y-13512079D01*
X10195896Y-13512079D02*
X10186373Y-13493031D01*
X10186373Y-13493031D02*
X10176849Y-13464460D01*
X10176849Y-13464460D02*
X10167325Y-13416841D01*
X10167325Y-13416841D02*
X10167325Y-13378746D01*
X10167325Y-13378746D02*
X10176849Y-13331127D01*
X10176849Y-13331127D02*
X10186373Y-13302555D01*
X10186373Y-13302555D02*
X10195896Y-13283508D01*
X10195896Y-13283508D02*
X10214944Y-13254936D01*
X10214944Y-13254936D02*
X10224468Y-13245412D01*
X10300658Y-13340650D02*
X10300658Y-13473984D01*
X10300658Y-13359698D02*
X10310182Y-13350174D01*
X10310182Y-13350174D02*
X10329230Y-13340650D01*
X10329230Y-13340650D02*
X10357801Y-13340650D01*
X10357801Y-13340650D02*
X10376849Y-13350174D01*
X10376849Y-13350174D02*
X10386373Y-13369222D01*
X10386373Y-13369222D02*
X10386373Y-13473984D01*
X10510182Y-13473984D02*
X10491134Y-13464460D01*
X10491134Y-13464460D02*
X10481611Y-13454936D01*
X10481611Y-13454936D02*
X10472087Y-13435888D01*
X10472087Y-13435888D02*
X10472087Y-13378746D01*
X10472087Y-13378746D02*
X10481611Y-13359698D01*
X10481611Y-13359698D02*
X10491134Y-13350174D01*
X10491134Y-13350174D02*
X10510182Y-13340650D01*
X10510182Y-13340650D02*
X10538754Y-13340650D01*
X10538754Y-13340650D02*
X10557801Y-13350174D01*
X10557801Y-13350174D02*
X10567325Y-13359698D01*
X10567325Y-13359698D02*
X10576849Y-13378746D01*
X10576849Y-13378746D02*
X10576849Y-13435888D01*
X10576849Y-13435888D02*
X10567325Y-13454936D01*
X10567325Y-13454936D02*
X10557801Y-13464460D01*
X10557801Y-13464460D02*
X10538754Y-13473984D01*
X10538754Y-13473984D02*
X10510182Y-13473984D01*
X10633992Y-13340650D02*
X10710182Y-13340650D01*
X10662563Y-13273984D02*
X10662563Y-13445412D01*
X10662563Y-13445412D02*
X10672087Y-13464460D01*
X10672087Y-13464460D02*
X10691134Y-13473984D01*
X10691134Y-13473984D02*
X10710182Y-13473984D01*
X10929230Y-13340650D02*
X10929230Y-13540650D01*
X10929230Y-13350174D02*
X10948277Y-13340650D01*
X10948277Y-13340650D02*
X10986373Y-13340650D01*
X10986373Y-13340650D02*
X11005420Y-13350174D01*
X11005420Y-13350174D02*
X11014944Y-13359698D01*
X11014944Y-13359698D02*
X11024468Y-13378746D01*
X11024468Y-13378746D02*
X11024468Y-13435888D01*
X11024468Y-13435888D02*
X11014944Y-13454936D01*
X11014944Y-13454936D02*
X11005420Y-13464460D01*
X11005420Y-13464460D02*
X10986373Y-13473984D01*
X10986373Y-13473984D02*
X10948277Y-13473984D01*
X10948277Y-13473984D02*
X10929230Y-13464460D01*
X11138754Y-13473984D02*
X11119706Y-13464460D01*
X11119706Y-13464460D02*
X11110182Y-13445412D01*
X11110182Y-13445412D02*
X11110182Y-13273984D01*
X11300658Y-13473984D02*
X11300658Y-13369222D01*
X11300658Y-13369222D02*
X11291134Y-13350174D01*
X11291134Y-13350174D02*
X11272087Y-13340650D01*
X11272087Y-13340650D02*
X11233992Y-13340650D01*
X11233992Y-13340650D02*
X11214944Y-13350174D01*
X11300658Y-13464460D02*
X11281611Y-13473984D01*
X11281611Y-13473984D02*
X11233992Y-13473984D01*
X11233992Y-13473984D02*
X11214944Y-13464460D01*
X11214944Y-13464460D02*
X11205420Y-13445412D01*
X11205420Y-13445412D02*
X11205420Y-13426365D01*
X11205420Y-13426365D02*
X11214944Y-13407317D01*
X11214944Y-13407317D02*
X11233992Y-13397793D01*
X11233992Y-13397793D02*
X11281611Y-13397793D01*
X11281611Y-13397793D02*
X11300658Y-13388269D01*
X11367325Y-13340650D02*
X11443515Y-13340650D01*
X11395896Y-13273984D02*
X11395896Y-13445412D01*
X11395896Y-13445412D02*
X11405420Y-13464460D01*
X11405420Y-13464460D02*
X11424468Y-13473984D01*
X11424468Y-13473984D02*
X11443515Y-13473984D01*
X11586373Y-13464460D02*
X11567325Y-13473984D01*
X11567325Y-13473984D02*
X11529230Y-13473984D01*
X11529230Y-13473984D02*
X11510182Y-13464460D01*
X11510182Y-13464460D02*
X11500658Y-13445412D01*
X11500658Y-13445412D02*
X11500658Y-13369222D01*
X11500658Y-13369222D02*
X11510182Y-13350174D01*
X11510182Y-13350174D02*
X11529230Y-13340650D01*
X11529230Y-13340650D02*
X11567325Y-13340650D01*
X11567325Y-13340650D02*
X11586373Y-13350174D01*
X11586373Y-13350174D02*
X11595896Y-13369222D01*
X11595896Y-13369222D02*
X11595896Y-13388269D01*
X11595896Y-13388269D02*
X11500658Y-13407317D01*
X11767325Y-13473984D02*
X11767325Y-13273984D01*
X11767325Y-13464460D02*
X11748277Y-13473984D01*
X11748277Y-13473984D02*
X11710182Y-13473984D01*
X11710182Y-13473984D02*
X11691134Y-13464460D01*
X11691134Y-13464460D02*
X11681611Y-13454936D01*
X11681611Y-13454936D02*
X11672087Y-13435888D01*
X11672087Y-13435888D02*
X11672087Y-13378746D01*
X11672087Y-13378746D02*
X11681611Y-13359698D01*
X11681611Y-13359698D02*
X11691134Y-13350174D01*
X11691134Y-13350174D02*
X11710182Y-13340650D01*
X11710182Y-13340650D02*
X11748277Y-13340650D01*
X11748277Y-13340650D02*
X11767325Y-13350174D01*
X11843515Y-13550174D02*
X11853039Y-13540650D01*
X11853039Y-13540650D02*
X11872087Y-13512079D01*
X11872087Y-13512079D02*
X11881611Y-13493031D01*
X11881611Y-13493031D02*
X11891134Y-13464460D01*
X11891134Y-13464460D02*
X11900658Y-13416841D01*
X11900658Y-13416841D02*
X11900658Y-13378746D01*
X11900658Y-13378746D02*
X11891134Y-13331127D01*
X11891134Y-13331127D02*
X11881611Y-13302555D01*
X11881611Y-13302555D02*
X11872087Y-13283508D01*
X11872087Y-13283508D02*
X11853039Y-13254936D01*
X11853039Y-13254936D02*
X11843515Y-13245412D01*
M02*
