%TF.GenerationSoftware,KiCad,Pcbnew,8.0.0*%
%TF.CreationDate,2024-03-30T18:18:10+01:00*%
%TF.ProjectId,MCU,4d43552e-6b69-4636-9164-5f7063625858,rev?*%
%TF.SameCoordinates,Original*%
%TF.FileFunction,Paste,Top*%
%TF.FilePolarity,Positive*%
%FSLAX46Y46*%
G04 Gerber Fmt 4.6, Leading zero omitted, Abs format (unit mm)*
G04 Created by KiCad (PCBNEW 8.0.0) date 2024-03-30 18:18:10*
%MOMM*%
%LPD*%
G01*
G04 APERTURE LIST*
G04 Aperture macros list*
%AMRoundRect*
0 Rectangle with rounded corners*
0 $1 Rounding radius*
0 $2 $3 $4 $5 $6 $7 $8 $9 X,Y pos of 4 corners*
0 Add a 4 corners polygon primitive as box body*
4,1,4,$2,$3,$4,$5,$6,$7,$8,$9,$2,$3,0*
0 Add four circle primitives for the rounded corners*
1,1,$1+$1,$2,$3*
1,1,$1+$1,$4,$5*
1,1,$1+$1,$6,$7*
1,1,$1+$1,$8,$9*
0 Add four rect primitives between the rounded corners*
20,1,$1+$1,$2,$3,$4,$5,0*
20,1,$1+$1,$4,$5,$6,$7,0*
20,1,$1+$1,$6,$7,$8,$9,0*
20,1,$1+$1,$8,$9,$2,$3,0*%
G04 Aperture macros list end*
%ADD10RoundRect,0.250000X0.312500X0.625000X-0.312500X0.625000X-0.312500X-0.625000X0.312500X-0.625000X0*%
%ADD11RoundRect,0.250000X0.625000X-0.312500X0.625000X0.312500X-0.625000X0.312500X-0.625000X-0.312500X0*%
%ADD12R,0.300000X1.100000*%
%ADD13R,2.150000X2.200000*%
%ADD14RoundRect,0.250000X-0.625000X0.375000X-0.625000X-0.375000X0.625000X-0.375000X0.625000X0.375000X0*%
%ADD15RoundRect,0.250000X0.375000X0.625000X-0.375000X0.625000X-0.375000X-0.625000X0.375000X-0.625000X0*%
%ADD16RoundRect,0.250000X-0.325000X-0.650000X0.325000X-0.650000X0.325000X0.650000X-0.325000X0.650000X0*%
%ADD17R,0.700000X0.450000*%
%ADD18RoundRect,0.050000X-0.285000X-0.100000X0.285000X-0.100000X0.285000X0.100000X-0.285000X0.100000X0*%
%ADD19RoundRect,0.250000X0.650000X-0.325000X0.650000X0.325000X-0.650000X0.325000X-0.650000X-0.325000X0*%
%ADD20RoundRect,0.250000X-0.650000X0.325000X-0.650000X-0.325000X0.650000X-0.325000X0.650000X0.325000X0*%
%ADD21RoundRect,0.150000X-0.825000X-0.150000X0.825000X-0.150000X0.825000X0.150000X-0.825000X0.150000X0*%
%ADD22RoundRect,0.250000X0.325000X0.650000X-0.325000X0.650000X-0.325000X-0.650000X0.325000X-0.650000X0*%
%ADD23R,0.950000X1.200000*%
%ADD24R,2.460000X3.550000*%
%ADD25R,1.475000X0.450000*%
%ADD26RoundRect,0.250000X-0.312500X-0.625000X0.312500X-0.625000X0.312500X0.625000X-0.312500X0.625000X0*%
%ADD27RoundRect,0.250000X-0.625000X0.312500X-0.625000X-0.312500X0.625000X-0.312500X0.625000X0.312500X0*%
%ADD28R,2.000000X4.000000*%
%ADD29R,0.375000X0.500000*%
%ADD30R,0.300000X0.650000*%
%ADD31RoundRect,0.250000X0.550000X-1.500000X0.550000X1.500000X-0.550000X1.500000X-0.550000X-1.500000X0*%
%ADD32R,0.350000X0.650000*%
%ADD33RoundRect,0.050000X-0.050000X-0.387500X0.050000X-0.387500X0.050000X0.387500X-0.050000X0.387500X0*%
%ADD34RoundRect,0.050000X-0.387500X-0.050000X0.387500X-0.050000X0.387500X0.050000X-0.387500X0.050000X0*%
%ADD35RoundRect,0.250000X-0.315000X-0.315000X0.315000X-0.315000X0.315000X0.315000X-0.315000X0.315000X0*%
%ADD36R,5.700000X5.632000*%
%ADD37R,2.600000X1.060000*%
%ADD38R,1.100000X3.200000*%
G04 APERTURE END LIST*
D10*
%TO.C,R38*%
X108762500Y-80200000D03*
X105837500Y-80200000D03*
%TD*%
D11*
%TO.C,R36*%
X128500000Y-73162500D03*
X128500000Y-70237500D03*
%TD*%
%TO.C,R37*%
X132100000Y-80662500D03*
X132100000Y-77737500D03*
%TD*%
D12*
%TO.C,P1*%
X99550000Y-117250000D03*
X100350000Y-117250000D03*
X100850000Y-117250000D03*
X101850000Y-117250000D03*
X103350000Y-117250000D03*
X104350000Y-117250000D03*
X104850000Y-117250000D03*
X105650000Y-117250000D03*
X105950000Y-117250000D03*
X105150000Y-117250000D03*
X103850000Y-117250000D03*
X102850000Y-117250000D03*
X102350000Y-117250000D03*
X101350000Y-117250000D03*
X100050000Y-117250000D03*
X99250000Y-117250000D03*
%TD*%
D10*
%TO.C,R35*%
X71762500Y-96600000D03*
X68837500Y-96600000D03*
%TD*%
D13*
%TO.C,D7*%
X126800000Y-63400000D03*
X126800000Y-67800000D03*
%TD*%
D14*
%TO.C,D6*%
X94500000Y-72550000D03*
X94500000Y-69750000D03*
%TD*%
D15*
%TO.C,D4*%
X117400000Y-75800000D03*
X120200000Y-75800000D03*
%TD*%
D16*
%TO.C,C21*%
X107875000Y-104400000D03*
X104925000Y-104400000D03*
%TD*%
D11*
%TO.C,R10*%
X81150000Y-64787500D03*
X81150000Y-67712500D03*
%TD*%
%TO.C,R8*%
X81200000Y-69737500D03*
X81200000Y-72662500D03*
%TD*%
D17*
%TO.C,D3*%
X127200000Y-89305000D03*
X129200000Y-88655000D03*
X129200000Y-89955000D03*
%TD*%
D18*
%TO.C,U2*%
X73290000Y-65250000D03*
X73290000Y-65750000D03*
X73290000Y-66250000D03*
X73290000Y-66750000D03*
X71810000Y-66750000D03*
X71810000Y-66250000D03*
X71810000Y-65750000D03*
X71810000Y-65250000D03*
%TD*%
D19*
%TO.C,C8*%
X75350000Y-62825000D03*
X75350000Y-65775000D03*
%TD*%
%TO.C,C24*%
X108900000Y-87020000D03*
X108900000Y-89970000D03*
%TD*%
D20*
%TO.C,C18*%
X94100000Y-89725000D03*
X94100000Y-86775000D03*
%TD*%
D11*
%TO.C,R24*%
X94500000Y-64787500D03*
X94500000Y-67712500D03*
%TD*%
D21*
%TO.C,U5*%
X116750000Y-87390000D03*
X116750000Y-88660000D03*
X116750000Y-89930000D03*
X116750000Y-91200000D03*
X111800000Y-91200000D03*
X111800000Y-89930000D03*
X111800000Y-88660000D03*
X111800000Y-87390000D03*
%TD*%
D22*
%TO.C,C4*%
X73275000Y-68700000D03*
X76225000Y-68700000D03*
%TD*%
D23*
%TO.C,Y1*%
X101000000Y-75937500D03*
X101000000Y-78137500D03*
X99250000Y-78137500D03*
X99250000Y-75937500D03*
%TD*%
D10*
%TO.C,R11*%
X80387500Y-100150000D03*
X83312500Y-100150000D03*
%TD*%
D24*
%TO.C,IC1*%
X114762000Y-65875000D03*
D25*
X111824000Y-68150000D03*
X111824000Y-67500000D03*
X111824000Y-66850000D03*
X111824000Y-66200000D03*
X111824000Y-65550000D03*
X111824000Y-64900000D03*
X111824000Y-64250000D03*
X111824000Y-63600000D03*
X117700000Y-63600000D03*
X117700000Y-64250000D03*
X117700000Y-64900000D03*
X117700000Y-65550000D03*
X117700000Y-66200000D03*
X117700000Y-66850000D03*
X117700000Y-67500000D03*
X117700000Y-68150000D03*
%TD*%
D22*
%TO.C,C23*%
X97975000Y-82137500D03*
X100925000Y-82137500D03*
%TD*%
D26*
%TO.C,R23*%
X126012500Y-80400000D03*
X123087500Y-80400000D03*
%TD*%
%TO.C,R4*%
X109762500Y-113000000D03*
X106837500Y-113000000D03*
%TD*%
D11*
%TO.C,R30*%
X138650000Y-94237500D03*
X138650000Y-97162500D03*
%TD*%
%TO.C,R5*%
X97800000Y-108437500D03*
X97800000Y-111362500D03*
%TD*%
D10*
%TO.C,R13*%
X115737500Y-118900000D03*
X118662500Y-118900000D03*
%TD*%
D20*
%TO.C,C17*%
X88800000Y-89775000D03*
X88800000Y-86825000D03*
%TD*%
D27*
%TO.C,R17*%
X123600000Y-104012500D03*
X123600000Y-101087500D03*
%TD*%
D11*
%TO.C,R3*%
X101300000Y-110037500D03*
X101300000Y-112962500D03*
%TD*%
D26*
%TO.C,R1*%
X83562500Y-109800000D03*
X80637500Y-109800000D03*
%TD*%
D28*
%TO.C,C15*%
X79400000Y-93900000D03*
X79400000Y-86800000D03*
%TD*%
D19*
%TO.C,C6*%
X78650000Y-69725000D03*
X78650000Y-72675000D03*
%TD*%
D20*
%TO.C,C16*%
X86100000Y-89775000D03*
X86100000Y-86825000D03*
%TD*%
D16*
%TO.C,C25*%
X125025000Y-89305000D03*
X122075000Y-89305000D03*
%TD*%
D11*
%TO.C,R33*%
X126950000Y-95687500D03*
X126950000Y-98612500D03*
%TD*%
D10*
%TO.C,R15*%
X131737500Y-118900000D03*
X134662500Y-118900000D03*
%TD*%
D11*
%TO.C,R27*%
X115000000Y-58837500D03*
X115000000Y-61762500D03*
%TD*%
D29*
%TO.C,U3*%
X103137500Y-107450000D03*
D30*
X102600000Y-107525000D03*
D29*
X102062500Y-107450000D03*
X102062500Y-105750000D03*
D30*
X102600000Y-105675000D03*
D29*
X103137500Y-105750000D03*
%TD*%
D16*
%TO.C,C11*%
X110475000Y-77200000D03*
X107525000Y-77200000D03*
%TD*%
D28*
%TO.C,C7*%
X87800000Y-65500000D03*
X87800000Y-72600000D03*
%TD*%
D11*
%TO.C,R6*%
X71500000Y-89637500D03*
X71500000Y-92562500D03*
%TD*%
D28*
%TO.C,C2*%
X63200000Y-65200000D03*
X63200000Y-72300000D03*
%TD*%
D19*
%TO.C,C22*%
X104800000Y-74525000D03*
X104800000Y-77475000D03*
%TD*%
D15*
%TO.C,D5*%
X117550000Y-80400000D03*
X120350000Y-80400000D03*
%TD*%
D27*
%TO.C,R21*%
X119825000Y-93262500D03*
X119825000Y-90337500D03*
%TD*%
D31*
%TO.C,C27*%
X101400000Y-62000000D03*
X101400000Y-67400000D03*
%TD*%
D11*
%TO.C,R20*%
X119825000Y-85337500D03*
X119825000Y-88262500D03*
%TD*%
D20*
%TO.C,C10*%
X100400000Y-97725000D03*
X100400000Y-94775000D03*
%TD*%
D22*
%TO.C,C19*%
X92125000Y-80800000D03*
X95075000Y-80800000D03*
%TD*%
D11*
%TO.C,R29*%
X111700000Y-58137500D03*
X111700000Y-61062500D03*
%TD*%
D27*
%TO.C,R12*%
X126600000Y-104062500D03*
X126600000Y-101137500D03*
%TD*%
D26*
%TO.C,R22*%
X125862500Y-75800000D03*
X122937500Y-75800000D03*
%TD*%
D11*
%TO.C,R26*%
X120400000Y-59837500D03*
X120400000Y-62762500D03*
%TD*%
D27*
%TO.C,R7*%
X63100000Y-92562500D03*
X63100000Y-89637500D03*
%TD*%
D26*
%TO.C,R32*%
X133462500Y-97200000D03*
X130537500Y-97200000D03*
%TD*%
D19*
%TO.C,C13*%
X128800000Y-115925000D03*
X128800000Y-118875000D03*
%TD*%
D10*
%TO.C,R34*%
X132337500Y-112900000D03*
X135262500Y-112900000D03*
%TD*%
D19*
%TO.C,C14*%
X136900000Y-115925000D03*
X136900000Y-118875000D03*
%TD*%
%TO.C,C3*%
X69800000Y-63300000D03*
X69800000Y-66250000D03*
%TD*%
D32*
%TO.C,L2*%
X91850000Y-86750000D03*
X91000000Y-86750000D03*
%TD*%
D10*
%TO.C,R14*%
X123637500Y-118900000D03*
X126562500Y-118900000D03*
%TD*%
D33*
%TO.C,U4*%
X98400000Y-85525000D03*
X98800000Y-85525000D03*
X99200000Y-85525000D03*
X99600000Y-85525000D03*
X100000000Y-85525000D03*
X100400000Y-85525000D03*
X100800000Y-85525000D03*
X101200000Y-85525000D03*
X101600000Y-85525000D03*
X102000000Y-85525000D03*
X102400000Y-85525000D03*
X102800000Y-85525000D03*
X103200000Y-85525000D03*
X103600000Y-85525000D03*
D34*
X104437500Y-86362500D03*
X104437500Y-86762500D03*
X104437500Y-87162500D03*
X104437500Y-87562500D03*
X104437500Y-87962500D03*
X104437500Y-88362500D03*
X104437500Y-88762500D03*
X104437500Y-89162500D03*
X104437500Y-89562500D03*
X104437500Y-89962500D03*
X104437500Y-90362500D03*
X104437500Y-90762500D03*
X104437500Y-91162500D03*
X104437500Y-91562500D03*
D33*
X103600000Y-92400000D03*
X103200000Y-92400000D03*
X102800000Y-92400000D03*
X102400000Y-92400000D03*
X102000000Y-92400000D03*
X101600000Y-92400000D03*
X101200000Y-92400000D03*
X100800000Y-92400000D03*
X100400000Y-92400000D03*
X100000000Y-92400000D03*
X99600000Y-92400000D03*
X99200000Y-92400000D03*
X98800000Y-92400000D03*
X98400000Y-92400000D03*
D34*
X97562500Y-91562500D03*
X97562500Y-91162500D03*
X97562500Y-90762500D03*
X97562500Y-90362500D03*
X97562500Y-89962500D03*
X97562500Y-89562500D03*
X97562500Y-89162500D03*
X97562500Y-88762500D03*
X97562500Y-88362500D03*
X97562500Y-87962500D03*
X97562500Y-87562500D03*
X97562500Y-87162500D03*
X97562500Y-86762500D03*
X97562500Y-86362500D03*
D35*
X103100000Y-91062500D03*
X103100000Y-89662500D03*
X103100000Y-88262500D03*
X103100000Y-86862500D03*
X101700000Y-91062500D03*
X101700000Y-89662500D03*
X101700000Y-88262500D03*
X101700000Y-86862500D03*
X100300000Y-91062500D03*
X100300000Y-89662500D03*
X100300000Y-88262500D03*
X100300000Y-86862500D03*
X98900000Y-91062500D03*
X98900000Y-89662500D03*
X98900000Y-88262500D03*
X98900000Y-86862500D03*
%TD*%
D11*
%TO.C,R19*%
X122750000Y-95837500D03*
X122750000Y-98762500D03*
%TD*%
D26*
%TO.C,R18*%
X113762500Y-93550000D03*
X110837500Y-93550000D03*
%TD*%
D27*
%TO.C,R16*%
X110600000Y-104662500D03*
X110600000Y-101737500D03*
%TD*%
D26*
%TO.C,R31*%
X128512500Y-112450000D03*
X125587500Y-112450000D03*
%TD*%
D11*
%TO.C,R25*%
X120400000Y-64837500D03*
X120400000Y-67762500D03*
%TD*%
D19*
%TO.C,C28*%
X108500000Y-58825000D03*
X108500000Y-61775000D03*
%TD*%
D11*
%TO.C,R2*%
X103900000Y-110037500D03*
X103900000Y-112962500D03*
%TD*%
%TO.C,R9*%
X66400000Y-89637500D03*
X66400000Y-92562500D03*
%TD*%
%TO.C,R28*%
X107500000Y-64537500D03*
X107500000Y-67462500D03*
%TD*%
D22*
%TO.C,C20*%
X92125000Y-83700000D03*
X95075000Y-83700000D03*
%TD*%
D36*
%TO.C,D2*%
X63157000Y-79800000D03*
D37*
X56607000Y-82086000D03*
X56607000Y-77514000D03*
%TD*%
D19*
%TO.C,C26*%
X123000000Y-64825000D03*
X123000000Y-67775000D03*
%TD*%
%TO.C,C12*%
X120900000Y-115925000D03*
X120900000Y-118875000D03*
%TD*%
D38*
%TO.C,L1*%
X75450000Y-72650000D03*
X73350000Y-72650000D03*
%TD*%
M02*
