%TF.GenerationSoftware,KiCad,Pcbnew,8.0.0*%
%TF.CreationDate,2024-03-30T18:18:07+01:00*%
%TF.ProjectId,MCU,4d43552e-6b69-4636-9164-5f7063625858,rev?*%
%TF.SameCoordinates,Original*%
%TF.FileFunction,Drillmap*%
%TF.FilePolarity,Positive*%
%FSLAX45Y45*%
G04 Gerber Fmt 4.5, Leading zero omitted, Abs format (unit mm)*
G04 Created by KiCad (PCBNEW 8.0.0) date 2024-03-30 18:18:07*
%MOMM*%
%LPD*%
G01*
G04 APERTURE LIST*
%ADD10C,0.050000*%
%ADD11C,0.200000*%
%ADD12C,0.100000*%
%ADD13C,0.152000*%
%ADD14C,0.180000*%
%ADD15C,0.190000*%
G04 APERTURE END LIST*
D10*
X7430000Y-12420000D02*
X9800000Y-12420000D01*
X11180000Y-12420000D02*
X10720000Y-12420000D01*
X5090000Y-5410000D02*
X15100000Y-5420000D01*
X14000000Y-12420000D02*
X11180000Y-12420000D01*
X15100000Y-5420000D02*
X15100000Y-12420000D01*
X10720000Y-11810000D02*
X10720000Y-12420000D01*
X7430000Y-12420000D02*
X5090000Y-12410000D01*
X9800000Y-12420000D02*
X9800000Y-11810000D01*
X5090000Y-12410000D02*
X5090000Y-5410000D01*
X14000000Y-12420000D02*
X15100000Y-12420000D01*
X9800000Y-11810000D02*
X10720000Y-11810000D01*
D11*
D12*
X6675000Y-8795000D02*
X6705000Y-8825000D01*
X6705000Y-8795000D02*
X6675000Y-8825000D01*
X7365000Y-9685000D02*
X7395000Y-9715000D01*
X7395000Y-9685000D02*
X7365000Y-9715000D01*
X8525000Y-10715000D02*
X8555000Y-10745000D01*
X8555000Y-10715000D02*
X8525000Y-10745000D01*
X8655000Y-10135000D02*
X8685000Y-10165000D01*
X8685000Y-10135000D02*
X8655000Y-10165000D01*
X8745000Y-10805000D02*
X8775000Y-10835000D01*
X8775000Y-10805000D02*
X8745000Y-10835000D01*
X8790000Y-10450000D02*
X8820000Y-10480000D01*
X8820000Y-10450000D02*
X8790000Y-10480000D01*
X8895000Y-10135000D02*
X8925000Y-10165000D01*
X8925000Y-10135000D02*
X8895000Y-10165000D01*
X8935000Y-9815000D02*
X8965000Y-9845000D01*
X8965000Y-9815000D02*
X8935000Y-9845000D01*
X9035000Y-10455000D02*
X9065000Y-10485000D01*
X9065000Y-10455000D02*
X9035000Y-10485000D01*
X9165000Y-9565000D02*
X9195000Y-9595000D01*
X9195000Y-9565000D02*
X9165000Y-9595000D01*
X9185000Y-9815000D02*
X9215000Y-9845000D01*
X9215000Y-9815000D02*
X9185000Y-9845000D01*
X9315000Y-9695000D02*
X9345000Y-9725000D01*
X9345000Y-9695000D02*
X9315000Y-9725000D01*
X9360000Y-9240000D02*
X9390000Y-9270000D01*
X9390000Y-9240000D02*
X9360000Y-9270000D01*
X9475000Y-9230000D02*
X9505000Y-9260000D01*
X9505000Y-9230000D02*
X9475000Y-9260000D01*
X9475000Y-9565000D02*
X9505000Y-9595000D01*
X9505000Y-9565000D02*
X9475000Y-9595000D01*
X9565000Y-9225000D02*
X9595000Y-9255000D01*
X9595000Y-9225000D02*
X9565000Y-9255000D01*
X9645000Y-8195000D02*
X9675000Y-8225000D01*
X9675000Y-8195000D02*
X9645000Y-8225000D01*
X9765000Y-10695000D02*
X9795000Y-10725000D01*
X9795000Y-10695000D02*
X9765000Y-10725000D01*
X9895000Y-8705000D02*
X9925000Y-8735000D01*
X9925000Y-8705000D02*
X9895000Y-8735000D01*
X9895000Y-8855000D02*
X9925000Y-8885000D01*
X9925000Y-8855000D02*
X9895000Y-8885000D01*
X9895000Y-9015000D02*
X9925000Y-9045000D01*
X9925000Y-9015000D02*
X9895000Y-9045000D01*
X10005000Y-8705000D02*
X10035000Y-8735000D01*
X10035000Y-8705000D02*
X10005000Y-8735000D01*
X10005000Y-8855000D02*
X10035000Y-8885000D01*
X10035000Y-8855000D02*
X10005000Y-8885000D01*
X10005000Y-9015000D02*
X10035000Y-9045000D01*
X10035000Y-9015000D02*
X10005000Y-9045000D01*
X10025000Y-9895000D02*
X10055000Y-9925000D01*
X10055000Y-9895000D02*
X10025000Y-9925000D01*
X10135000Y-8705000D02*
X10165000Y-8735000D01*
X10165000Y-8705000D02*
X10135000Y-8735000D01*
X10135000Y-8855000D02*
X10165000Y-8885000D01*
X10165000Y-8855000D02*
X10135000Y-8885000D01*
X10135000Y-9015000D02*
X10165000Y-9045000D01*
X10165000Y-9015000D02*
X10135000Y-9045000D01*
X10195000Y-9385000D02*
X10225000Y-9415000D01*
X10225000Y-9385000D02*
X10195000Y-9415000D01*
X10195000Y-9605000D02*
X10225000Y-9635000D01*
X10225000Y-9605000D02*
X10195000Y-9635000D01*
X10195000Y-10385000D02*
X10225000Y-10415000D01*
X10225000Y-10385000D02*
X10195000Y-10415000D01*
X10215000Y-7605000D02*
X10245000Y-7635000D01*
X10245000Y-7605000D02*
X10215000Y-7635000D01*
X10265000Y-8705000D02*
X10295000Y-8735000D01*
X10295000Y-8705000D02*
X10265000Y-8735000D01*
X10265000Y-8855000D02*
X10295000Y-8885000D01*
X10295000Y-8855000D02*
X10265000Y-8885000D01*
X10265000Y-9015000D02*
X10295000Y-9045000D01*
X10295000Y-9015000D02*
X10265000Y-9045000D01*
X10295000Y-9385000D02*
X10325000Y-9415000D01*
X10325000Y-9385000D02*
X10295000Y-9415000D01*
X10295000Y-9605000D02*
X10325000Y-9635000D01*
X10325000Y-9605000D02*
X10295000Y-9635000D01*
X10295000Y-10285000D02*
X10325000Y-10315000D01*
X10325000Y-10285000D02*
X10295000Y-10315000D01*
X10445000Y-8035000D02*
X10475000Y-8065000D01*
X10475000Y-8035000D02*
X10445000Y-8065000D01*
X10465000Y-7295000D02*
X10495000Y-7325000D01*
X10495000Y-7295000D02*
X10465000Y-7325000D01*
X10555000Y-8260000D02*
X10585000Y-8290000D01*
X10585000Y-8260000D02*
X10555000Y-8290000D01*
X10605000Y-9525000D02*
X10635000Y-9555000D01*
X10635000Y-9525000D02*
X10605000Y-9555000D01*
X10647500Y-8507500D02*
X10677500Y-8537500D01*
X10677500Y-8507500D02*
X10647500Y-8537500D01*
X10710000Y-8685000D02*
X10740000Y-8715000D01*
X10740000Y-8685000D02*
X10710000Y-8715000D01*
X10810000Y-8540000D02*
X10840000Y-8570000D01*
X10840000Y-8540000D02*
X10810000Y-8570000D01*
X10875000Y-8982000D02*
X10905000Y-9012000D01*
X10905000Y-8982000D02*
X10875000Y-9012000D01*
X10875000Y-9245000D02*
X10905000Y-9275000D01*
X10905000Y-9245000D02*
X10875000Y-9275000D01*
X10905000Y-8250000D02*
X10935000Y-8280000D01*
X10935000Y-8250000D02*
X10905000Y-8280000D01*
X11085000Y-7985000D02*
X11115000Y-8015000D01*
X11115000Y-7985000D02*
X11085000Y-8015000D01*
X11145000Y-8390000D02*
X11175000Y-8420000D01*
X11175000Y-8390000D02*
X11145000Y-8420000D01*
X11558750Y-11875000D02*
X11588750Y-11905000D01*
X11588750Y-11875000D02*
X11558750Y-11905000D01*
X11845000Y-7355000D02*
X11875000Y-7385000D01*
X11875000Y-7355000D02*
X11845000Y-7385000D01*
X11855000Y-11540000D02*
X11885000Y-11570000D01*
X11885000Y-11540000D02*
X11855000Y-11570000D01*
X12245000Y-11575000D02*
X12275000Y-11605000D01*
X12275000Y-11575000D02*
X12245000Y-11605000D01*
X12348750Y-11875000D02*
X12378750Y-11905000D01*
X12378750Y-11875000D02*
X12348750Y-11905000D01*
X12348750Y-11875000D02*
X12378750Y-11905000D01*
X12378750Y-11875000D02*
X12348750Y-11905000D01*
X12610000Y-8915500D02*
X12640000Y-8945500D01*
X12640000Y-8915500D02*
X12610000Y-8945500D01*
X12635000Y-11490000D02*
X12665000Y-11520000D01*
X12665000Y-11490000D02*
X12635000Y-11520000D01*
X13035000Y-11575000D02*
X13065000Y-11605000D01*
X13065000Y-11575000D02*
X13035000Y-11605000D01*
X13155000Y-11875000D02*
X13185000Y-11905000D01*
X13185000Y-11875000D02*
X13155000Y-11905000D01*
X13451250Y-11875000D02*
X13481250Y-11905000D01*
X13481250Y-11875000D02*
X13451250Y-11905000D01*
X13845000Y-11575000D02*
X13875000Y-11605000D01*
X13875000Y-11575000D02*
X13845000Y-11605000D01*
X12615500Y-10871000D02*
G75*
G02*
X12540500Y-10871000I-37500J0D01*
G01*
X12540500Y-10871000D02*
G75*
G02*
X12615500Y-10871000I37500J0D01*
G01*
X12742500Y-10871000D02*
G75*
G02*
X12667500Y-10871000I-37500J0D01*
G01*
X12667500Y-10871000D02*
G75*
G02*
X12742500Y-10871000I37500J0D01*
G01*
X12869500Y-10871000D02*
G75*
G02*
X12794500Y-10871000I-37500J0D01*
G01*
X12794500Y-10871000D02*
G75*
G02*
X12869500Y-10871000I37500J0D01*
G01*
X13212500Y-9280000D02*
G75*
G02*
X13137500Y-9280000I-37500J0D01*
G01*
X13137500Y-9280000D02*
G75*
G02*
X13212500Y-9280000I37500J0D01*
G01*
X13339500Y-9280000D02*
G75*
G02*
X13264500Y-9280000I-37500J0D01*
G01*
X13264500Y-9280000D02*
G75*
G02*
X13339500Y-9280000I37500J0D01*
G01*
X13466500Y-9280000D02*
G75*
G02*
X13391500Y-9280000I-37500J0D01*
G01*
X13391500Y-9280000D02*
G75*
G02*
X13466500Y-9280000I37500J0D01*
G01*
X5270000Y-11700000D02*
X5270000Y-11780000D01*
X5230000Y-11740000D02*
X5310000Y-11740000D01*
X5350000Y-6080000D02*
X5350000Y-6160000D01*
X5310000Y-6120000D02*
X5390000Y-6120000D01*
X5350000Y-7960000D02*
X5350000Y-8040000D01*
X5310000Y-8000000D02*
X5390000Y-8000000D01*
X5400000Y-10670000D02*
X5400000Y-10750000D01*
X5360000Y-10710000D02*
X5440000Y-10710000D01*
X5540000Y-9470000D02*
X5540000Y-9550000D01*
X5500000Y-9510000D02*
X5580000Y-9510000D01*
X5670000Y-12200000D02*
X5670000Y-12280000D01*
X5630000Y-12240000D02*
X5710000Y-12240000D01*
X5850000Y-5530000D02*
X5850000Y-5610000D01*
X5810000Y-5570000D02*
X5890000Y-5570000D01*
X6360000Y-5940000D02*
X6360000Y-6020000D01*
X6320000Y-5980000D02*
X6400000Y-5980000D01*
X6450000Y-10250000D02*
X6450000Y-10330000D01*
X6410000Y-10290000D02*
X6490000Y-10290000D01*
X6460000Y-12130000D02*
X6460000Y-12210000D01*
X6420000Y-12170000D02*
X6500000Y-12170000D01*
X6560000Y-5940000D02*
X6560000Y-6020000D01*
X6520000Y-5980000D02*
X6600000Y-5980000D01*
X6760000Y-5940000D02*
X6760000Y-6020000D01*
X6720000Y-5980000D02*
X6800000Y-5980000D01*
X6960000Y-5940000D02*
X6960000Y-6020000D01*
X6920000Y-5980000D02*
X7000000Y-5980000D01*
X7160000Y-5940000D02*
X7160000Y-6020000D01*
X7120000Y-5980000D02*
X7200000Y-5980000D01*
X7170000Y-8040000D02*
X7170000Y-8120000D01*
X7130000Y-8080000D02*
X7210000Y-8080000D01*
X7360000Y-5940000D02*
X7360000Y-6020000D01*
X7320000Y-5980000D02*
X7400000Y-5980000D01*
X7470000Y-9010000D02*
X7470000Y-9090000D01*
X7430000Y-9050000D02*
X7510000Y-9050000D01*
X7560000Y-5940000D02*
X7560000Y-6020000D01*
X7520000Y-5980000D02*
X7600000Y-5980000D01*
X7810000Y-5940000D02*
X7810000Y-6020000D01*
X7770000Y-5980000D02*
X7850000Y-5980000D01*
X7950000Y-11380000D02*
X7950000Y-11460000D01*
X7910000Y-11420000D02*
X7990000Y-11420000D01*
X8010000Y-5940000D02*
X8010000Y-6020000D01*
X7970000Y-5980000D02*
X8050000Y-5980000D01*
X8090000Y-10430000D02*
X8090000Y-10510000D01*
X8050000Y-10470000D02*
X8130000Y-10470000D01*
X8150000Y-9160000D02*
X8150000Y-9240000D01*
X8110000Y-9200000D02*
X8190000Y-9200000D01*
X8210000Y-5940000D02*
X8210000Y-6020000D01*
X8170000Y-5980000D02*
X8250000Y-5980000D01*
X8350000Y-9160000D02*
X8350000Y-9240000D01*
X8310000Y-9200000D02*
X8390000Y-9200000D01*
X8410000Y-5940000D02*
X8410000Y-6020000D01*
X8370000Y-5980000D02*
X8450000Y-5980000D01*
X8520000Y-8140000D02*
X8520000Y-8220000D01*
X8480000Y-8180000D02*
X8560000Y-8180000D01*
X8550000Y-9160000D02*
X8550000Y-9240000D01*
X8510000Y-9200000D02*
X8590000Y-9200000D01*
X8610000Y-5940000D02*
X8610000Y-6020000D01*
X8570000Y-5980000D02*
X8650000Y-5980000D01*
X8750000Y-9160000D02*
X8750000Y-9240000D01*
X8710000Y-9200000D02*
X8790000Y-9200000D01*
X8810000Y-5940000D02*
X8810000Y-6020000D01*
X8770000Y-5980000D02*
X8850000Y-5980000D01*
X8950000Y-9160000D02*
X8950000Y-9240000D01*
X8910000Y-9200000D02*
X8990000Y-9200000D01*
X8995000Y-7900000D02*
X8995000Y-7980000D01*
X8955000Y-7940000D02*
X9035000Y-7940000D01*
X9010000Y-5940000D02*
X9010000Y-6020000D01*
X8970000Y-5980000D02*
X9050000Y-5980000D01*
X9150000Y-9160000D02*
X9150000Y-9240000D01*
X9110000Y-9200000D02*
X9190000Y-9200000D01*
X9200000Y-11410000D02*
X9200000Y-11490000D01*
X9160000Y-11450000D02*
X9240000Y-11450000D01*
X9200000Y-11610000D02*
X9200000Y-11690000D01*
X9160000Y-11650000D02*
X9240000Y-11650000D01*
X9200000Y-11810000D02*
X9200000Y-11890000D01*
X9160000Y-11850000D02*
X9240000Y-11850000D01*
X9200000Y-12010000D02*
X9200000Y-12090000D01*
X9160000Y-12050000D02*
X9240000Y-12050000D01*
X9200000Y-12210000D02*
X9200000Y-12290000D01*
X9160000Y-12250000D02*
X9240000Y-12250000D01*
X9930000Y-10370000D02*
X9930000Y-10450000D01*
X9890000Y-10410000D02*
X9970000Y-10410000D01*
X10210000Y-5670000D02*
X10210000Y-5750000D01*
X10170000Y-5710000D02*
X10250000Y-5710000D01*
X10640000Y-10760000D02*
X10640000Y-10840000D01*
X10600000Y-10800000D02*
X10680000Y-10800000D01*
X10695000Y-9705000D02*
X10695000Y-9785000D01*
X10655000Y-9745000D02*
X10735000Y-9745000D01*
X10970000Y-7180000D02*
X10970000Y-7260000D01*
X10930000Y-7220000D02*
X11010000Y-7220000D01*
X11170000Y-7180000D02*
X11170000Y-7260000D01*
X11130000Y-7220000D02*
X11210000Y-7220000D01*
X11300000Y-11410000D02*
X11300000Y-11490000D01*
X11260000Y-11450000D02*
X11340000Y-11450000D01*
X11300000Y-11610000D02*
X11300000Y-11690000D01*
X11260000Y-11650000D02*
X11340000Y-11650000D01*
X11300000Y-11810000D02*
X11300000Y-11890000D01*
X11260000Y-11850000D02*
X11340000Y-11850000D01*
X11300000Y-12010000D02*
X11300000Y-12090000D01*
X11260000Y-12050000D02*
X11340000Y-12050000D01*
X11300000Y-12210000D02*
X11300000Y-12290000D01*
X11260000Y-12250000D02*
X11340000Y-12250000D01*
X11370000Y-7180000D02*
X11370000Y-7260000D01*
X11330000Y-7220000D02*
X11410000Y-7220000D01*
X11476200Y-6547500D02*
X11476200Y-6627500D01*
X11436200Y-6587500D02*
X11516200Y-6587500D01*
X11650000Y-9560000D02*
X11650000Y-9640000D01*
X11610000Y-9600000D02*
X11690000Y-9600000D01*
X11650000Y-9760000D02*
X11650000Y-9840000D01*
X11610000Y-9800000D02*
X11690000Y-9800000D01*
X11650000Y-9960000D02*
X11650000Y-10040000D01*
X11610000Y-10000000D02*
X11690000Y-10000000D01*
X11650000Y-10160000D02*
X11650000Y-10240000D01*
X11610000Y-10200000D02*
X11690000Y-10200000D01*
X11650000Y-10360000D02*
X11650000Y-10440000D01*
X11610000Y-10400000D02*
X11690000Y-10400000D01*
X11650000Y-10560000D02*
X11650000Y-10640000D01*
X11610000Y-10600000D02*
X11690000Y-10600000D01*
X11650000Y-10760000D02*
X11650000Y-10840000D01*
X11610000Y-10800000D02*
X11690000Y-10800000D01*
X12470000Y-5660000D02*
X12470000Y-5740000D01*
X12430000Y-5700000D02*
X12510000Y-5700000D01*
X12670000Y-5660000D02*
X12670000Y-5740000D01*
X12630000Y-5700000D02*
X12710000Y-5700000D01*
X12840000Y-10015000D02*
X12840000Y-10095000D01*
X12800000Y-10055000D02*
X12880000Y-10055000D01*
X12870000Y-5660000D02*
X12870000Y-5740000D01*
X12830000Y-5700000D02*
X12910000Y-5700000D01*
X12900000Y-7460000D02*
X12900000Y-7540000D01*
X12860000Y-7500000D02*
X12940000Y-7500000D01*
X12900000Y-7660000D02*
X12900000Y-7740000D01*
X12860000Y-7700000D02*
X12940000Y-7700000D01*
X12900000Y-7860000D02*
X12900000Y-7940000D01*
X12860000Y-7900000D02*
X12940000Y-7900000D01*
X12900000Y-8060000D02*
X12900000Y-8140000D01*
X12860000Y-8100000D02*
X12940000Y-8100000D01*
X12900000Y-8510000D02*
X12900000Y-8590000D01*
X12860000Y-8550000D02*
X12940000Y-8550000D01*
X13070000Y-5660000D02*
X13070000Y-5740000D01*
X13030000Y-5700000D02*
X13110000Y-5700000D01*
X13270000Y-5660000D02*
X13270000Y-5740000D01*
X13230000Y-5700000D02*
X13310000Y-5700000D01*
X13270000Y-6130000D02*
X13270000Y-6210000D01*
X13230000Y-6170000D02*
X13310000Y-6170000D01*
X13440000Y-7620000D02*
X13440000Y-7700000D01*
X13400000Y-7660000D02*
X13480000Y-7660000D01*
X13470000Y-5660000D02*
X13470000Y-5740000D01*
X13430000Y-5700000D02*
X13510000Y-5700000D01*
X13670000Y-5660000D02*
X13670000Y-5740000D01*
X13630000Y-5700000D02*
X13710000Y-5700000D01*
X14030000Y-5640000D02*
X14030000Y-5720000D01*
X13990000Y-5680000D02*
X14070000Y-5680000D01*
X14040000Y-6090000D02*
X14040000Y-6170000D01*
X14000000Y-6130000D02*
X14080000Y-6130000D01*
X14280000Y-7940000D02*
X14280000Y-8020000D01*
X14240000Y-7980000D02*
X14320000Y-7980000D01*
X14350000Y-10700000D02*
X14350000Y-10780000D01*
X14310000Y-10740000D02*
X14390000Y-10740000D01*
X14350000Y-12170000D02*
X14350000Y-12250000D01*
X14310000Y-12210000D02*
X14390000Y-12210000D01*
X14400000Y-9320000D02*
X14400000Y-9400000D01*
X14360000Y-9360000D02*
X14440000Y-9360000D01*
X14400000Y-11650000D02*
X14400000Y-11730000D01*
X14360000Y-11690000D02*
X14440000Y-11690000D01*
X14850000Y-10170000D02*
X14850000Y-10250000D01*
X14810000Y-10210000D02*
X14890000Y-10210000D01*
X14920000Y-8500000D02*
X14920000Y-8580000D01*
X14880000Y-8540000D02*
X14960000Y-8540000D01*
X14950000Y-6750000D02*
X14950000Y-6830000D01*
X14910000Y-6790000D02*
X14990000Y-6790000D01*
X5528285Y-7018284D02*
X5528285Y-6961715D01*
X5471716Y-6961715D01*
X5471716Y-7018284D01*
X5528285Y-7018284D01*
X5528285Y-7423284D02*
X5528285Y-7366715D01*
X5471716Y-7366715D01*
X5471716Y-7423284D01*
X5528285Y-7423284D01*
X5538285Y-8683285D02*
X5538285Y-8626716D01*
X5481716Y-8626716D01*
X5481716Y-8683285D01*
X5538285Y-8683285D01*
X5538285Y-9088285D02*
X5538285Y-9031716D01*
X5481716Y-9031716D01*
X5481716Y-9088285D01*
X5538285Y-9088285D01*
X6338284Y-8698285D02*
X6338284Y-8641716D01*
X6281715Y-8641716D01*
X6281715Y-8698285D01*
X6338284Y-8698285D01*
X6638284Y-9788285D02*
X6638284Y-9731716D01*
X6581715Y-9731716D01*
X6581715Y-9788285D01*
X6638284Y-9788285D01*
X7176284Y-8690285D02*
X7176284Y-8633716D01*
X7119715Y-8633716D01*
X7119715Y-8690285D01*
X7176284Y-8690285D01*
X7535784Y-7888284D02*
X7535784Y-7831715D01*
X7479215Y-7831715D01*
X7479215Y-7888284D01*
X7535784Y-7888284D01*
X7763284Y-10043285D02*
X7763284Y-9986716D01*
X7706715Y-9986716D01*
X7706715Y-10043285D01*
X7763284Y-10043285D01*
X7940784Y-7888284D02*
X7940784Y-7831715D01*
X7884215Y-7831715D01*
X7884215Y-7888284D01*
X7940784Y-7888284D01*
X8463285Y-11398284D02*
X8463285Y-11341715D01*
X8406716Y-11341715D01*
X8406716Y-11398284D01*
X8463285Y-11398284D01*
X8868285Y-11398284D02*
X8868285Y-11341715D01*
X8811716Y-11341715D01*
X8811716Y-11398284D01*
X8868285Y-11398284D01*
X11243284Y-9695785D02*
X11243284Y-9639216D01*
X11186715Y-9639216D01*
X11186715Y-9695785D01*
X11243284Y-9695785D01*
X11243284Y-9949785D02*
X11243284Y-9893216D01*
X11186715Y-9893216D01*
X11186715Y-9949785D01*
X11243284Y-9949785D01*
X11333284Y-10500785D02*
X11333284Y-10444216D01*
X11276715Y-10444216D01*
X11276715Y-10500785D01*
X11333284Y-10500785D01*
X11333284Y-10754785D02*
X11333284Y-10698216D01*
X11276715Y-10698216D01*
X11276715Y-10754785D01*
X11333284Y-10754785D01*
X12005284Y-9695785D02*
X12005284Y-9639216D01*
X11948715Y-9639216D01*
X11948715Y-9695785D01*
X12005284Y-9695785D01*
X12005284Y-9949785D02*
X12005284Y-9893216D01*
X11948715Y-9893216D01*
X11948715Y-9949785D01*
X12005284Y-9949785D01*
X12095284Y-10500785D02*
X12095284Y-10444216D01*
X12038715Y-10444216D01*
X12038715Y-10500785D01*
X12095284Y-10500785D01*
X12095284Y-10754785D02*
X12095284Y-10698216D01*
X12038715Y-10698216D01*
X12038715Y-10754785D01*
X12095284Y-10754785D01*
D13*
X9698000Y-11916000D02*
X9774000Y-11840000D01*
X9698000Y-11764000D01*
X9622000Y-11840000D01*
X9698000Y-11916000D01*
X10822000Y-11916000D02*
X10898000Y-11840000D01*
X10822000Y-11764000D01*
X10746000Y-11840000D01*
X10822000Y-11916000D01*
D14*
X6875000Y-10380000D02*
X7055000Y-10560000D01*
X7055000Y-10380000D02*
X6875000Y-10560000D01*
X7055000Y-10470000D02*
G75*
G02*
X6875000Y-10470000I-90000J0D01*
G01*
X6875000Y-10470000D02*
G75*
G02*
X7055000Y-10470000I90000J0D01*
G01*
X6875000Y-10930000D02*
X7055000Y-11110000D01*
X7055000Y-10930000D02*
X6875000Y-11110000D01*
X7055000Y-11020000D02*
G75*
G02*
X6875000Y-11020000I-90000J0D01*
G01*
X6875000Y-11020000D02*
G75*
G02*
X7055000Y-11020000I90000J0D01*
G01*
X7295000Y-10380000D02*
X7475000Y-10560000D01*
X7475000Y-10380000D02*
X7295000Y-10560000D01*
X7475000Y-10470000D02*
G75*
G02*
X7295000Y-10470000I-90000J0D01*
G01*
X7295000Y-10470000D02*
G75*
G02*
X7475000Y-10470000I90000J0D01*
G01*
X7295000Y-10930000D02*
X7475000Y-11110000D01*
X7475000Y-10930000D02*
X7295000Y-11110000D01*
X7475000Y-11020000D02*
G75*
G02*
X7295000Y-11020000I-90000J0D01*
G01*
X7295000Y-11020000D02*
G75*
G02*
X7475000Y-11020000I90000J0D01*
G01*
X13227810Y-6398425D02*
X13407810Y-6578425D01*
X13407810Y-6398425D02*
X13227810Y-6578425D01*
X13407810Y-6488425D02*
G75*
G02*
X13227810Y-6488425I-90000J0D01*
G01*
X13227810Y-6488425D02*
G75*
G02*
X13407810Y-6488425I90000J0D01*
G01*
X13227810Y-7178425D02*
X13407810Y-7358425D01*
X13407810Y-7178425D02*
X13227810Y-7358425D01*
X13407810Y-7268425D02*
G75*
G02*
X13227810Y-7268425I-90000J0D01*
G01*
X13227810Y-7268425D02*
G75*
G02*
X13407810Y-7268425I90000J0D01*
G01*
X13247810Y-10188425D02*
X13427810Y-10368425D01*
X13427810Y-10188425D02*
X13247810Y-10368425D01*
X13427810Y-10278425D02*
G75*
G02*
X13247810Y-10278425I-90000J0D01*
G01*
X13247810Y-10278425D02*
G75*
G02*
X13427810Y-10278425I90000J0D01*
G01*
X13247810Y-10608425D02*
X13427810Y-10788425D01*
X13427810Y-10608425D02*
X13247810Y-10788425D01*
X13427810Y-10698425D02*
G75*
G02*
X13247810Y-10698425I-90000J0D01*
G01*
X13247810Y-10698425D02*
G75*
G02*
X13427810Y-10698425I90000J0D01*
G01*
X13777810Y-6398425D02*
X13957810Y-6578425D01*
X13957810Y-6398425D02*
X13777810Y-6578425D01*
X13957810Y-6488425D02*
G75*
G02*
X13777810Y-6488425I-90000J0D01*
G01*
X13777810Y-6488425D02*
G75*
G02*
X13957810Y-6488425I90000J0D01*
G01*
X13777810Y-7178425D02*
X13957810Y-7358425D01*
X13957810Y-7178425D02*
X13777810Y-7358425D01*
X13957810Y-7268425D02*
G75*
G02*
X13777810Y-7268425I-90000J0D01*
G01*
X13777810Y-7268425D02*
G75*
G02*
X13957810Y-7268425I90000J0D01*
G01*
X13797810Y-10188425D02*
X13977810Y-10368425D01*
X13977810Y-10188425D02*
X13797810Y-10368425D01*
X13977810Y-10278425D02*
G75*
G02*
X13797810Y-10278425I-90000J0D01*
G01*
X13797810Y-10278425D02*
G75*
G02*
X13977810Y-10278425I90000J0D01*
G01*
X13797810Y-10608425D02*
X13977810Y-10788425D01*
X13977810Y-10608425D02*
X13797810Y-10788425D01*
X13977810Y-10698425D02*
G75*
G02*
X13797810Y-10698425I-90000J0D01*
G01*
X13797810Y-10698425D02*
G75*
G02*
X13977810Y-10698425I90000J0D01*
G01*
X13808710Y-7978425D02*
X13988710Y-8158425D01*
X13988710Y-7978425D02*
X13808710Y-8158425D01*
X13988710Y-8068425D02*
G75*
G02*
X13808710Y-8068425I-90000J0D01*
G01*
X13808710Y-8068425D02*
G75*
G02*
X13988710Y-8068425I90000J0D01*
G01*
X13808710Y-8398425D02*
X13988710Y-8578425D01*
X13988710Y-8398425D02*
X13808710Y-8578425D01*
X13988710Y-8488425D02*
G75*
G02*
X13808710Y-8488425I-90000J0D01*
G01*
X13808710Y-8488425D02*
G75*
G02*
X13988710Y-8488425I90000J0D01*
G01*
X13808710Y-8818425D02*
X13988710Y-8998425D01*
X13988710Y-8818425D02*
X13808710Y-8998425D01*
X13988710Y-8908425D02*
G75*
G02*
X13808710Y-8908425I-90000J0D01*
G01*
X13808710Y-8908425D02*
G75*
G02*
X13988710Y-8908425I90000J0D01*
G01*
D15*
X9603000Y-12145000D02*
X9793000Y-12335000D01*
X9793000Y-12145000D02*
X9603000Y-12335000D01*
X9698000Y-12145000D02*
X9698000Y-12335000D01*
X9603000Y-12240000D02*
X9793000Y-12240000D01*
X10727000Y-12145000D02*
X10917000Y-12335000D01*
X10917000Y-12145000D02*
X10727000Y-12335000D01*
X10822000Y-12145000D02*
X10822000Y-12335000D01*
X10727000Y-12240000D02*
X10917000Y-12240000D01*
D11*
X5348277Y-12733984D02*
X5348277Y-12533984D01*
X5348277Y-12533984D02*
X5395896Y-12533984D01*
X5395896Y-12533984D02*
X5424467Y-12543508D01*
X5424467Y-12543508D02*
X5443515Y-12562555D01*
X5443515Y-12562555D02*
X5453039Y-12581603D01*
X5453039Y-12581603D02*
X5462563Y-12619698D01*
X5462563Y-12619698D02*
X5462563Y-12648269D01*
X5462563Y-12648269D02*
X5453039Y-12686365D01*
X5453039Y-12686365D02*
X5443515Y-12705412D01*
X5443515Y-12705412D02*
X5424467Y-12724460D01*
X5424467Y-12724460D02*
X5395896Y-12733984D01*
X5395896Y-12733984D02*
X5348277Y-12733984D01*
X5548277Y-12733984D02*
X5548277Y-12600650D01*
X5548277Y-12638746D02*
X5557801Y-12619698D01*
X5557801Y-12619698D02*
X5567324Y-12610174D01*
X5567324Y-12610174D02*
X5586372Y-12600650D01*
X5586372Y-12600650D02*
X5605420Y-12600650D01*
X5672086Y-12733984D02*
X5672086Y-12600650D01*
X5672086Y-12533984D02*
X5662562Y-12543508D01*
X5662562Y-12543508D02*
X5672086Y-12553031D01*
X5672086Y-12553031D02*
X5681610Y-12543508D01*
X5681610Y-12543508D02*
X5672086Y-12533984D01*
X5672086Y-12533984D02*
X5672086Y-12553031D01*
X5795896Y-12733984D02*
X5776848Y-12724460D01*
X5776848Y-12724460D02*
X5767324Y-12705412D01*
X5767324Y-12705412D02*
X5767324Y-12533984D01*
X5900658Y-12733984D02*
X5881610Y-12724460D01*
X5881610Y-12724460D02*
X5872086Y-12705412D01*
X5872086Y-12705412D02*
X5872086Y-12533984D01*
X6129229Y-12733984D02*
X6129229Y-12533984D01*
X6129229Y-12533984D02*
X6195896Y-12676841D01*
X6195896Y-12676841D02*
X6262562Y-12533984D01*
X6262562Y-12533984D02*
X6262562Y-12733984D01*
X6443515Y-12733984D02*
X6443515Y-12629222D01*
X6443515Y-12629222D02*
X6433991Y-12610174D01*
X6433991Y-12610174D02*
X6414943Y-12600650D01*
X6414943Y-12600650D02*
X6376848Y-12600650D01*
X6376848Y-12600650D02*
X6357801Y-12610174D01*
X6443515Y-12724460D02*
X6424467Y-12733984D01*
X6424467Y-12733984D02*
X6376848Y-12733984D01*
X6376848Y-12733984D02*
X6357801Y-12724460D01*
X6357801Y-12724460D02*
X6348277Y-12705412D01*
X6348277Y-12705412D02*
X6348277Y-12686365D01*
X6348277Y-12686365D02*
X6357801Y-12667317D01*
X6357801Y-12667317D02*
X6376848Y-12657793D01*
X6376848Y-12657793D02*
X6424467Y-12657793D01*
X6424467Y-12657793D02*
X6443515Y-12648269D01*
X6538753Y-12600650D02*
X6538753Y-12800650D01*
X6538753Y-12610174D02*
X6557801Y-12600650D01*
X6557801Y-12600650D02*
X6595896Y-12600650D01*
X6595896Y-12600650D02*
X6614943Y-12610174D01*
X6614943Y-12610174D02*
X6624467Y-12619698D01*
X6624467Y-12619698D02*
X6633991Y-12638746D01*
X6633991Y-12638746D02*
X6633991Y-12695888D01*
X6633991Y-12695888D02*
X6624467Y-12714936D01*
X6624467Y-12714936D02*
X6614943Y-12724460D01*
X6614943Y-12724460D02*
X6595896Y-12733984D01*
X6595896Y-12733984D02*
X6557801Y-12733984D01*
X6557801Y-12733984D02*
X6538753Y-12724460D01*
X6719705Y-12714936D02*
X6729229Y-12724460D01*
X6729229Y-12724460D02*
X6719705Y-12733984D01*
X6719705Y-12733984D02*
X6710182Y-12724460D01*
X6710182Y-12724460D02*
X6719705Y-12714936D01*
X6719705Y-12714936D02*
X6719705Y-12733984D01*
X6719705Y-12610174D02*
X6729229Y-12619698D01*
X6729229Y-12619698D02*
X6719705Y-12629222D01*
X6719705Y-12629222D02*
X6710182Y-12619698D01*
X6710182Y-12619698D02*
X6719705Y-12610174D01*
X6719705Y-12610174D02*
X6719705Y-12629222D01*
D12*
X5057500Y-13047500D02*
X5087500Y-13077500D01*
X5087500Y-13047500D02*
X5057500Y-13077500D01*
D11*
X5386372Y-12953984D02*
X5405420Y-12953984D01*
X5405420Y-12953984D02*
X5424467Y-12963508D01*
X5424467Y-12963508D02*
X5433991Y-12973031D01*
X5433991Y-12973031D02*
X5443515Y-12992079D01*
X5443515Y-12992079D02*
X5453039Y-13030174D01*
X5453039Y-13030174D02*
X5453039Y-13077793D01*
X5453039Y-13077793D02*
X5443515Y-13115888D01*
X5443515Y-13115888D02*
X5433991Y-13134936D01*
X5433991Y-13134936D02*
X5424467Y-13144460D01*
X5424467Y-13144460D02*
X5405420Y-13153984D01*
X5405420Y-13153984D02*
X5386372Y-13153984D01*
X5386372Y-13153984D02*
X5367324Y-13144460D01*
X5367324Y-13144460D02*
X5357801Y-13134936D01*
X5357801Y-13134936D02*
X5348277Y-13115888D01*
X5348277Y-13115888D02*
X5338753Y-13077793D01*
X5338753Y-13077793D02*
X5338753Y-13030174D01*
X5338753Y-13030174D02*
X5348277Y-12992079D01*
X5348277Y-12992079D02*
X5357801Y-12973031D01*
X5357801Y-12973031D02*
X5367324Y-12963508D01*
X5367324Y-12963508D02*
X5386372Y-12953984D01*
X5538753Y-13134936D02*
X5548277Y-13144460D01*
X5548277Y-13144460D02*
X5538753Y-13153984D01*
X5538753Y-13153984D02*
X5529229Y-13144460D01*
X5529229Y-13144460D02*
X5538753Y-13134936D01*
X5538753Y-13134936D02*
X5538753Y-13153984D01*
X5614943Y-12953984D02*
X5738753Y-12953984D01*
X5738753Y-12953984D02*
X5672086Y-13030174D01*
X5672086Y-13030174D02*
X5700658Y-13030174D01*
X5700658Y-13030174D02*
X5719705Y-13039698D01*
X5719705Y-13039698D02*
X5729229Y-13049222D01*
X5729229Y-13049222D02*
X5738753Y-13068269D01*
X5738753Y-13068269D02*
X5738753Y-13115888D01*
X5738753Y-13115888D02*
X5729229Y-13134936D01*
X5729229Y-13134936D02*
X5719705Y-13144460D01*
X5719705Y-13144460D02*
X5700658Y-13153984D01*
X5700658Y-13153984D02*
X5643515Y-13153984D01*
X5643515Y-13153984D02*
X5624467Y-13144460D01*
X5624467Y-13144460D02*
X5614943Y-13134936D01*
X5862562Y-12953984D02*
X5881610Y-12953984D01*
X5881610Y-12953984D02*
X5900658Y-12963508D01*
X5900658Y-12963508D02*
X5910182Y-12973031D01*
X5910182Y-12973031D02*
X5919705Y-12992079D01*
X5919705Y-12992079D02*
X5929229Y-13030174D01*
X5929229Y-13030174D02*
X5929229Y-13077793D01*
X5929229Y-13077793D02*
X5919705Y-13115888D01*
X5919705Y-13115888D02*
X5910182Y-13134936D01*
X5910182Y-13134936D02*
X5900658Y-13144460D01*
X5900658Y-13144460D02*
X5881610Y-13153984D01*
X5881610Y-13153984D02*
X5862562Y-13153984D01*
X5862562Y-13153984D02*
X5843515Y-13144460D01*
X5843515Y-13144460D02*
X5833991Y-13134936D01*
X5833991Y-13134936D02*
X5824467Y-13115888D01*
X5824467Y-13115888D02*
X5814943Y-13077793D01*
X5814943Y-13077793D02*
X5814943Y-13030174D01*
X5814943Y-13030174D02*
X5824467Y-12992079D01*
X5824467Y-12992079D02*
X5833991Y-12973031D01*
X5833991Y-12973031D02*
X5843515Y-12963508D01*
X5843515Y-12963508D02*
X5862562Y-12953984D01*
X6053039Y-12953984D02*
X6072086Y-12953984D01*
X6072086Y-12953984D02*
X6091134Y-12963508D01*
X6091134Y-12963508D02*
X6100658Y-12973031D01*
X6100658Y-12973031D02*
X6110182Y-12992079D01*
X6110182Y-12992079D02*
X6119705Y-13030174D01*
X6119705Y-13030174D02*
X6119705Y-13077793D01*
X6119705Y-13077793D02*
X6110182Y-13115888D01*
X6110182Y-13115888D02*
X6100658Y-13134936D01*
X6100658Y-13134936D02*
X6091134Y-13144460D01*
X6091134Y-13144460D02*
X6072086Y-13153984D01*
X6072086Y-13153984D02*
X6053039Y-13153984D01*
X6053039Y-13153984D02*
X6033991Y-13144460D01*
X6033991Y-13144460D02*
X6024467Y-13134936D01*
X6024467Y-13134936D02*
X6014943Y-13115888D01*
X6014943Y-13115888D02*
X6005420Y-13077793D01*
X6005420Y-13077793D02*
X6005420Y-13030174D01*
X6005420Y-13030174D02*
X6014943Y-12992079D01*
X6014943Y-12992079D02*
X6024467Y-12973031D01*
X6024467Y-12973031D02*
X6033991Y-12963508D01*
X6033991Y-12963508D02*
X6053039Y-12953984D01*
X6205420Y-13153984D02*
X6205420Y-13020650D01*
X6205420Y-13039698D02*
X6214943Y-13030174D01*
X6214943Y-13030174D02*
X6233991Y-13020650D01*
X6233991Y-13020650D02*
X6262563Y-13020650D01*
X6262563Y-13020650D02*
X6281610Y-13030174D01*
X6281610Y-13030174D02*
X6291134Y-13049222D01*
X6291134Y-13049222D02*
X6291134Y-13153984D01*
X6291134Y-13049222D02*
X6300658Y-13030174D01*
X6300658Y-13030174D02*
X6319705Y-13020650D01*
X6319705Y-13020650D02*
X6348277Y-13020650D01*
X6348277Y-13020650D02*
X6367324Y-13030174D01*
X6367324Y-13030174D02*
X6376848Y-13049222D01*
X6376848Y-13049222D02*
X6376848Y-13153984D01*
X6472086Y-13153984D02*
X6472086Y-13020650D01*
X6472086Y-13039698D02*
X6481610Y-13030174D01*
X6481610Y-13030174D02*
X6500658Y-13020650D01*
X6500658Y-13020650D02*
X6529229Y-13020650D01*
X6529229Y-13020650D02*
X6548277Y-13030174D01*
X6548277Y-13030174D02*
X6557801Y-13049222D01*
X6557801Y-13049222D02*
X6557801Y-13153984D01*
X6557801Y-13049222D02*
X6567324Y-13030174D01*
X6567324Y-13030174D02*
X6586372Y-13020650D01*
X6586372Y-13020650D02*
X6614943Y-13020650D01*
X6614943Y-13020650D02*
X6633991Y-13030174D01*
X6633991Y-13030174D02*
X6643515Y-13049222D01*
X6643515Y-13049222D02*
X6643515Y-13153984D01*
X7033991Y-12944460D02*
X6862563Y-13201603D01*
X7291134Y-12953984D02*
X7310182Y-12953984D01*
X7310182Y-12953984D02*
X7329229Y-12963508D01*
X7329229Y-12963508D02*
X7338753Y-12973031D01*
X7338753Y-12973031D02*
X7348277Y-12992079D01*
X7348277Y-12992079D02*
X7357801Y-13030174D01*
X7357801Y-13030174D02*
X7357801Y-13077793D01*
X7357801Y-13077793D02*
X7348277Y-13115888D01*
X7348277Y-13115888D02*
X7338753Y-13134936D01*
X7338753Y-13134936D02*
X7329229Y-13144460D01*
X7329229Y-13144460D02*
X7310182Y-13153984D01*
X7310182Y-13153984D02*
X7291134Y-13153984D01*
X7291134Y-13153984D02*
X7272086Y-13144460D01*
X7272086Y-13144460D02*
X7262563Y-13134936D01*
X7262563Y-13134936D02*
X7253039Y-13115888D01*
X7253039Y-13115888D02*
X7243515Y-13077793D01*
X7243515Y-13077793D02*
X7243515Y-13030174D01*
X7243515Y-13030174D02*
X7253039Y-12992079D01*
X7253039Y-12992079D02*
X7262563Y-12973031D01*
X7262563Y-12973031D02*
X7272086Y-12963508D01*
X7272086Y-12963508D02*
X7291134Y-12953984D01*
X7443515Y-13134936D02*
X7453039Y-13144460D01*
X7453039Y-13144460D02*
X7443515Y-13153984D01*
X7443515Y-13153984D02*
X7433991Y-13144460D01*
X7433991Y-13144460D02*
X7443515Y-13134936D01*
X7443515Y-13134936D02*
X7443515Y-13153984D01*
X7576848Y-12953984D02*
X7595896Y-12953984D01*
X7595896Y-12953984D02*
X7614944Y-12963508D01*
X7614944Y-12963508D02*
X7624467Y-12973031D01*
X7624467Y-12973031D02*
X7633991Y-12992079D01*
X7633991Y-12992079D02*
X7643515Y-13030174D01*
X7643515Y-13030174D02*
X7643515Y-13077793D01*
X7643515Y-13077793D02*
X7633991Y-13115888D01*
X7633991Y-13115888D02*
X7624467Y-13134936D01*
X7624467Y-13134936D02*
X7614944Y-13144460D01*
X7614944Y-13144460D02*
X7595896Y-13153984D01*
X7595896Y-13153984D02*
X7576848Y-13153984D01*
X7576848Y-13153984D02*
X7557801Y-13144460D01*
X7557801Y-13144460D02*
X7548277Y-13134936D01*
X7548277Y-13134936D02*
X7538753Y-13115888D01*
X7538753Y-13115888D02*
X7529229Y-13077793D01*
X7529229Y-13077793D02*
X7529229Y-13030174D01*
X7529229Y-13030174D02*
X7538753Y-12992079D01*
X7538753Y-12992079D02*
X7548277Y-12973031D01*
X7548277Y-12973031D02*
X7557801Y-12963508D01*
X7557801Y-12963508D02*
X7576848Y-12953984D01*
X7833991Y-13153984D02*
X7719706Y-13153984D01*
X7776848Y-13153984D02*
X7776848Y-12953984D01*
X7776848Y-12953984D02*
X7757801Y-12982555D01*
X7757801Y-12982555D02*
X7738753Y-13001603D01*
X7738753Y-13001603D02*
X7719706Y-13011127D01*
X8024467Y-13153984D02*
X7910182Y-13153984D01*
X7967325Y-13153984D02*
X7967325Y-12953984D01*
X7967325Y-12953984D02*
X7948277Y-12982555D01*
X7948277Y-12982555D02*
X7929229Y-13001603D01*
X7929229Y-13001603D02*
X7910182Y-13011127D01*
X8138753Y-13039698D02*
X8119706Y-13030174D01*
X8119706Y-13030174D02*
X8110182Y-13020650D01*
X8110182Y-13020650D02*
X8100658Y-13001603D01*
X8100658Y-13001603D02*
X8100658Y-12992079D01*
X8100658Y-12992079D02*
X8110182Y-12973031D01*
X8110182Y-12973031D02*
X8119706Y-12963508D01*
X8119706Y-12963508D02*
X8138753Y-12953984D01*
X8138753Y-12953984D02*
X8176848Y-12953984D01*
X8176848Y-12953984D02*
X8195896Y-12963508D01*
X8195896Y-12963508D02*
X8205420Y-12973031D01*
X8205420Y-12973031D02*
X8214944Y-12992079D01*
X8214944Y-12992079D02*
X8214944Y-13001603D01*
X8214944Y-13001603D02*
X8205420Y-13020650D01*
X8205420Y-13020650D02*
X8195896Y-13030174D01*
X8195896Y-13030174D02*
X8176848Y-13039698D01*
X8176848Y-13039698D02*
X8138753Y-13039698D01*
X8138753Y-13039698D02*
X8119706Y-13049222D01*
X8119706Y-13049222D02*
X8110182Y-13058746D01*
X8110182Y-13058746D02*
X8100658Y-13077793D01*
X8100658Y-13077793D02*
X8100658Y-13115888D01*
X8100658Y-13115888D02*
X8110182Y-13134936D01*
X8110182Y-13134936D02*
X8119706Y-13144460D01*
X8119706Y-13144460D02*
X8138753Y-13153984D01*
X8138753Y-13153984D02*
X8176848Y-13153984D01*
X8176848Y-13153984D02*
X8195896Y-13144460D01*
X8195896Y-13144460D02*
X8205420Y-13134936D01*
X8205420Y-13134936D02*
X8214944Y-13115888D01*
X8214944Y-13115888D02*
X8214944Y-13077793D01*
X8214944Y-13077793D02*
X8205420Y-13058746D01*
X8205420Y-13058746D02*
X8195896Y-13049222D01*
X8195896Y-13049222D02*
X8176848Y-13039698D01*
X8291134Y-12953984D02*
X8291134Y-12992079D01*
X8367325Y-12953984D02*
X8367325Y-12992079D01*
X8662563Y-13230174D02*
X8653039Y-13220650D01*
X8653039Y-13220650D02*
X8633991Y-13192079D01*
X8633991Y-13192079D02*
X8624468Y-13173031D01*
X8624468Y-13173031D02*
X8614944Y-13144460D01*
X8614944Y-13144460D02*
X8605420Y-13096841D01*
X8605420Y-13096841D02*
X8605420Y-13058746D01*
X8605420Y-13058746D02*
X8614944Y-13011127D01*
X8614944Y-13011127D02*
X8624468Y-12982555D01*
X8624468Y-12982555D02*
X8633991Y-12963508D01*
X8633991Y-12963508D02*
X8653039Y-12934936D01*
X8653039Y-12934936D02*
X8662563Y-12925412D01*
X8824468Y-12953984D02*
X8786372Y-12953984D01*
X8786372Y-12953984D02*
X8767325Y-12963508D01*
X8767325Y-12963508D02*
X8757801Y-12973031D01*
X8757801Y-12973031D02*
X8738753Y-13001603D01*
X8738753Y-13001603D02*
X8729230Y-13039698D01*
X8729230Y-13039698D02*
X8729230Y-13115888D01*
X8729230Y-13115888D02*
X8738753Y-13134936D01*
X8738753Y-13134936D02*
X8748277Y-13144460D01*
X8748277Y-13144460D02*
X8767325Y-13153984D01*
X8767325Y-13153984D02*
X8805420Y-13153984D01*
X8805420Y-13153984D02*
X8824468Y-13144460D01*
X8824468Y-13144460D02*
X8833991Y-13134936D01*
X8833991Y-13134936D02*
X8843515Y-13115888D01*
X8843515Y-13115888D02*
X8843515Y-13068269D01*
X8843515Y-13068269D02*
X8833991Y-13049222D01*
X8833991Y-13049222D02*
X8824468Y-13039698D01*
X8824468Y-13039698D02*
X8805420Y-13030174D01*
X8805420Y-13030174D02*
X8767325Y-13030174D01*
X8767325Y-13030174D02*
X8748277Y-13039698D01*
X8748277Y-13039698D02*
X8738753Y-13049222D01*
X8738753Y-13049222D02*
X8729230Y-13068269D01*
X8919706Y-12973031D02*
X8929230Y-12963508D01*
X8929230Y-12963508D02*
X8948277Y-12953984D01*
X8948277Y-12953984D02*
X8995896Y-12953984D01*
X8995896Y-12953984D02*
X9014944Y-12963508D01*
X9014944Y-12963508D02*
X9024468Y-12973031D01*
X9024468Y-12973031D02*
X9033991Y-12992079D01*
X9033991Y-12992079D02*
X9033991Y-13011127D01*
X9033991Y-13011127D02*
X9024468Y-13039698D01*
X9024468Y-13039698D02*
X8910182Y-13153984D01*
X8910182Y-13153984D02*
X9033991Y-13153984D01*
X9272087Y-13153984D02*
X9272087Y-12953984D01*
X9357801Y-13153984D02*
X9357801Y-13049222D01*
X9357801Y-13049222D02*
X9348277Y-13030174D01*
X9348277Y-13030174D02*
X9329230Y-13020650D01*
X9329230Y-13020650D02*
X9300658Y-13020650D01*
X9300658Y-13020650D02*
X9281611Y-13030174D01*
X9281611Y-13030174D02*
X9272087Y-13039698D01*
X9481611Y-13153984D02*
X9462563Y-13144460D01*
X9462563Y-13144460D02*
X9453039Y-13134936D01*
X9453039Y-13134936D02*
X9443515Y-13115888D01*
X9443515Y-13115888D02*
X9443515Y-13058746D01*
X9443515Y-13058746D02*
X9453039Y-13039698D01*
X9453039Y-13039698D02*
X9462563Y-13030174D01*
X9462563Y-13030174D02*
X9481611Y-13020650D01*
X9481611Y-13020650D02*
X9510182Y-13020650D01*
X9510182Y-13020650D02*
X9529230Y-13030174D01*
X9529230Y-13030174D02*
X9538753Y-13039698D01*
X9538753Y-13039698D02*
X9548277Y-13058746D01*
X9548277Y-13058746D02*
X9548277Y-13115888D01*
X9548277Y-13115888D02*
X9538753Y-13134936D01*
X9538753Y-13134936D02*
X9529230Y-13144460D01*
X9529230Y-13144460D02*
X9510182Y-13153984D01*
X9510182Y-13153984D02*
X9481611Y-13153984D01*
X9662563Y-13153984D02*
X9643515Y-13144460D01*
X9643515Y-13144460D02*
X9633992Y-13125412D01*
X9633992Y-13125412D02*
X9633992Y-12953984D01*
X9814944Y-13144460D02*
X9795896Y-13153984D01*
X9795896Y-13153984D02*
X9757801Y-13153984D01*
X9757801Y-13153984D02*
X9738753Y-13144460D01*
X9738753Y-13144460D02*
X9729230Y-13125412D01*
X9729230Y-13125412D02*
X9729230Y-13049222D01*
X9729230Y-13049222D02*
X9738753Y-13030174D01*
X9738753Y-13030174D02*
X9757801Y-13020650D01*
X9757801Y-13020650D02*
X9795896Y-13020650D01*
X9795896Y-13020650D02*
X9814944Y-13030174D01*
X9814944Y-13030174D02*
X9824468Y-13049222D01*
X9824468Y-13049222D02*
X9824468Y-13068269D01*
X9824468Y-13068269D02*
X9729230Y-13087317D01*
X9900658Y-13144460D02*
X9919706Y-13153984D01*
X9919706Y-13153984D02*
X9957801Y-13153984D01*
X9957801Y-13153984D02*
X9976849Y-13144460D01*
X9976849Y-13144460D02*
X9986373Y-13125412D01*
X9986373Y-13125412D02*
X9986373Y-13115888D01*
X9986373Y-13115888D02*
X9976849Y-13096841D01*
X9976849Y-13096841D02*
X9957801Y-13087317D01*
X9957801Y-13087317D02*
X9929230Y-13087317D01*
X9929230Y-13087317D02*
X9910182Y-13077793D01*
X9910182Y-13077793D02*
X9900658Y-13058746D01*
X9900658Y-13058746D02*
X9900658Y-13049222D01*
X9900658Y-13049222D02*
X9910182Y-13030174D01*
X9910182Y-13030174D02*
X9929230Y-13020650D01*
X9929230Y-13020650D02*
X9957801Y-13020650D01*
X9957801Y-13020650D02*
X9976849Y-13030174D01*
X10053039Y-13230174D02*
X10062563Y-13220650D01*
X10062563Y-13220650D02*
X10081611Y-13192079D01*
X10081611Y-13192079D02*
X10091134Y-13173031D01*
X10091134Y-13173031D02*
X10100658Y-13144460D01*
X10100658Y-13144460D02*
X10110182Y-13096841D01*
X10110182Y-13096841D02*
X10110182Y-13058746D01*
X10110182Y-13058746D02*
X10100658Y-13011127D01*
X10100658Y-13011127D02*
X10091134Y-12982555D01*
X10091134Y-12982555D02*
X10081611Y-12963508D01*
X10081611Y-12963508D02*
X10062563Y-12934936D01*
X10062563Y-12934936D02*
X10053039Y-12925412D01*
D12*
X5087500Y-13326500D02*
G75*
G02*
X5012500Y-13326500I-37500J0D01*
G01*
X5012500Y-13326500D02*
G75*
G02*
X5087500Y-13326500I37500J0D01*
G01*
D11*
X5386372Y-13217984D02*
X5405420Y-13217984D01*
X5405420Y-13217984D02*
X5424467Y-13227508D01*
X5424467Y-13227508D02*
X5433991Y-13237031D01*
X5433991Y-13237031D02*
X5443515Y-13256079D01*
X5443515Y-13256079D02*
X5453039Y-13294174D01*
X5453039Y-13294174D02*
X5453039Y-13341793D01*
X5453039Y-13341793D02*
X5443515Y-13379888D01*
X5443515Y-13379888D02*
X5433991Y-13398936D01*
X5433991Y-13398936D02*
X5424467Y-13408460D01*
X5424467Y-13408460D02*
X5405420Y-13417984D01*
X5405420Y-13417984D02*
X5386372Y-13417984D01*
X5386372Y-13417984D02*
X5367324Y-13408460D01*
X5367324Y-13408460D02*
X5357801Y-13398936D01*
X5357801Y-13398936D02*
X5348277Y-13379888D01*
X5348277Y-13379888D02*
X5338753Y-13341793D01*
X5338753Y-13341793D02*
X5338753Y-13294174D01*
X5338753Y-13294174D02*
X5348277Y-13256079D01*
X5348277Y-13256079D02*
X5357801Y-13237031D01*
X5357801Y-13237031D02*
X5367324Y-13227508D01*
X5367324Y-13227508D02*
X5386372Y-13217984D01*
X5538753Y-13398936D02*
X5548277Y-13408460D01*
X5548277Y-13408460D02*
X5538753Y-13417984D01*
X5538753Y-13417984D02*
X5529229Y-13408460D01*
X5529229Y-13408460D02*
X5538753Y-13398936D01*
X5538753Y-13398936D02*
X5538753Y-13417984D01*
X5614943Y-13217984D02*
X5748277Y-13217984D01*
X5748277Y-13217984D02*
X5662562Y-13417984D01*
X5919705Y-13217984D02*
X5824467Y-13217984D01*
X5824467Y-13217984D02*
X5814943Y-13313222D01*
X5814943Y-13313222D02*
X5824467Y-13303698D01*
X5824467Y-13303698D02*
X5843515Y-13294174D01*
X5843515Y-13294174D02*
X5891134Y-13294174D01*
X5891134Y-13294174D02*
X5910182Y-13303698D01*
X5910182Y-13303698D02*
X5919705Y-13313222D01*
X5919705Y-13313222D02*
X5929229Y-13332269D01*
X5929229Y-13332269D02*
X5929229Y-13379888D01*
X5929229Y-13379888D02*
X5919705Y-13398936D01*
X5919705Y-13398936D02*
X5910182Y-13408460D01*
X5910182Y-13408460D02*
X5891134Y-13417984D01*
X5891134Y-13417984D02*
X5843515Y-13417984D01*
X5843515Y-13417984D02*
X5824467Y-13408460D01*
X5824467Y-13408460D02*
X5814943Y-13398936D01*
X6053039Y-13217984D02*
X6072086Y-13217984D01*
X6072086Y-13217984D02*
X6091134Y-13227508D01*
X6091134Y-13227508D02*
X6100658Y-13237031D01*
X6100658Y-13237031D02*
X6110182Y-13256079D01*
X6110182Y-13256079D02*
X6119705Y-13294174D01*
X6119705Y-13294174D02*
X6119705Y-13341793D01*
X6119705Y-13341793D02*
X6110182Y-13379888D01*
X6110182Y-13379888D02*
X6100658Y-13398936D01*
X6100658Y-13398936D02*
X6091134Y-13408460D01*
X6091134Y-13408460D02*
X6072086Y-13417984D01*
X6072086Y-13417984D02*
X6053039Y-13417984D01*
X6053039Y-13417984D02*
X6033991Y-13408460D01*
X6033991Y-13408460D02*
X6024467Y-13398936D01*
X6024467Y-13398936D02*
X6014943Y-13379888D01*
X6014943Y-13379888D02*
X6005420Y-13341793D01*
X6005420Y-13341793D02*
X6005420Y-13294174D01*
X6005420Y-13294174D02*
X6014943Y-13256079D01*
X6014943Y-13256079D02*
X6024467Y-13237031D01*
X6024467Y-13237031D02*
X6033991Y-13227508D01*
X6033991Y-13227508D02*
X6053039Y-13217984D01*
X6205420Y-13417984D02*
X6205420Y-13284650D01*
X6205420Y-13303698D02*
X6214943Y-13294174D01*
X6214943Y-13294174D02*
X6233991Y-13284650D01*
X6233991Y-13284650D02*
X6262563Y-13284650D01*
X6262563Y-13284650D02*
X6281610Y-13294174D01*
X6281610Y-13294174D02*
X6291134Y-13313222D01*
X6291134Y-13313222D02*
X6291134Y-13417984D01*
X6291134Y-13313222D02*
X6300658Y-13294174D01*
X6300658Y-13294174D02*
X6319705Y-13284650D01*
X6319705Y-13284650D02*
X6348277Y-13284650D01*
X6348277Y-13284650D02*
X6367324Y-13294174D01*
X6367324Y-13294174D02*
X6376848Y-13313222D01*
X6376848Y-13313222D02*
X6376848Y-13417984D01*
X6472086Y-13417984D02*
X6472086Y-13284650D01*
X6472086Y-13303698D02*
X6481610Y-13294174D01*
X6481610Y-13294174D02*
X6500658Y-13284650D01*
X6500658Y-13284650D02*
X6529229Y-13284650D01*
X6529229Y-13284650D02*
X6548277Y-13294174D01*
X6548277Y-13294174D02*
X6557801Y-13313222D01*
X6557801Y-13313222D02*
X6557801Y-13417984D01*
X6557801Y-13313222D02*
X6567324Y-13294174D01*
X6567324Y-13294174D02*
X6586372Y-13284650D01*
X6586372Y-13284650D02*
X6614943Y-13284650D01*
X6614943Y-13284650D02*
X6633991Y-13294174D01*
X6633991Y-13294174D02*
X6643515Y-13313222D01*
X6643515Y-13313222D02*
X6643515Y-13417984D01*
X7033991Y-13208460D02*
X6862563Y-13465603D01*
X7291134Y-13217984D02*
X7310182Y-13217984D01*
X7310182Y-13217984D02*
X7329229Y-13227508D01*
X7329229Y-13227508D02*
X7338753Y-13237031D01*
X7338753Y-13237031D02*
X7348277Y-13256079D01*
X7348277Y-13256079D02*
X7357801Y-13294174D01*
X7357801Y-13294174D02*
X7357801Y-13341793D01*
X7357801Y-13341793D02*
X7348277Y-13379888D01*
X7348277Y-13379888D02*
X7338753Y-13398936D01*
X7338753Y-13398936D02*
X7329229Y-13408460D01*
X7329229Y-13408460D02*
X7310182Y-13417984D01*
X7310182Y-13417984D02*
X7291134Y-13417984D01*
X7291134Y-13417984D02*
X7272086Y-13408460D01*
X7272086Y-13408460D02*
X7262563Y-13398936D01*
X7262563Y-13398936D02*
X7253039Y-13379888D01*
X7253039Y-13379888D02*
X7243515Y-13341793D01*
X7243515Y-13341793D02*
X7243515Y-13294174D01*
X7243515Y-13294174D02*
X7253039Y-13256079D01*
X7253039Y-13256079D02*
X7262563Y-13237031D01*
X7262563Y-13237031D02*
X7272086Y-13227508D01*
X7272086Y-13227508D02*
X7291134Y-13217984D01*
X7443515Y-13398936D02*
X7453039Y-13408460D01*
X7453039Y-13408460D02*
X7443515Y-13417984D01*
X7443515Y-13417984D02*
X7433991Y-13408460D01*
X7433991Y-13408460D02*
X7443515Y-13398936D01*
X7443515Y-13398936D02*
X7443515Y-13417984D01*
X7576848Y-13217984D02*
X7595896Y-13217984D01*
X7595896Y-13217984D02*
X7614944Y-13227508D01*
X7614944Y-13227508D02*
X7624467Y-13237031D01*
X7624467Y-13237031D02*
X7633991Y-13256079D01*
X7633991Y-13256079D02*
X7643515Y-13294174D01*
X7643515Y-13294174D02*
X7643515Y-13341793D01*
X7643515Y-13341793D02*
X7633991Y-13379888D01*
X7633991Y-13379888D02*
X7624467Y-13398936D01*
X7624467Y-13398936D02*
X7614944Y-13408460D01*
X7614944Y-13408460D02*
X7595896Y-13417984D01*
X7595896Y-13417984D02*
X7576848Y-13417984D01*
X7576848Y-13417984D02*
X7557801Y-13408460D01*
X7557801Y-13408460D02*
X7548277Y-13398936D01*
X7548277Y-13398936D02*
X7538753Y-13379888D01*
X7538753Y-13379888D02*
X7529229Y-13341793D01*
X7529229Y-13341793D02*
X7529229Y-13294174D01*
X7529229Y-13294174D02*
X7538753Y-13256079D01*
X7538753Y-13256079D02*
X7548277Y-13237031D01*
X7548277Y-13237031D02*
X7557801Y-13227508D01*
X7557801Y-13227508D02*
X7576848Y-13217984D01*
X7719706Y-13237031D02*
X7729229Y-13227508D01*
X7729229Y-13227508D02*
X7748277Y-13217984D01*
X7748277Y-13217984D02*
X7795896Y-13217984D01*
X7795896Y-13217984D02*
X7814944Y-13227508D01*
X7814944Y-13227508D02*
X7824467Y-13237031D01*
X7824467Y-13237031D02*
X7833991Y-13256079D01*
X7833991Y-13256079D02*
X7833991Y-13275127D01*
X7833991Y-13275127D02*
X7824467Y-13303698D01*
X7824467Y-13303698D02*
X7710182Y-13417984D01*
X7710182Y-13417984D02*
X7833991Y-13417984D01*
X7929229Y-13417984D02*
X7967325Y-13417984D01*
X7967325Y-13417984D02*
X7986372Y-13408460D01*
X7986372Y-13408460D02*
X7995896Y-13398936D01*
X7995896Y-13398936D02*
X8014944Y-13370365D01*
X8014944Y-13370365D02*
X8024467Y-13332269D01*
X8024467Y-13332269D02*
X8024467Y-13256079D01*
X8024467Y-13256079D02*
X8014944Y-13237031D01*
X8014944Y-13237031D02*
X8005420Y-13227508D01*
X8005420Y-13227508D02*
X7986372Y-13217984D01*
X7986372Y-13217984D02*
X7948277Y-13217984D01*
X7948277Y-13217984D02*
X7929229Y-13227508D01*
X7929229Y-13227508D02*
X7919706Y-13237031D01*
X7919706Y-13237031D02*
X7910182Y-13256079D01*
X7910182Y-13256079D02*
X7910182Y-13303698D01*
X7910182Y-13303698D02*
X7919706Y-13322746D01*
X7919706Y-13322746D02*
X7929229Y-13332269D01*
X7929229Y-13332269D02*
X7948277Y-13341793D01*
X7948277Y-13341793D02*
X7986372Y-13341793D01*
X7986372Y-13341793D02*
X8005420Y-13332269D01*
X8005420Y-13332269D02*
X8014944Y-13322746D01*
X8014944Y-13322746D02*
X8024467Y-13303698D01*
X8205420Y-13217984D02*
X8110182Y-13217984D01*
X8110182Y-13217984D02*
X8100658Y-13313222D01*
X8100658Y-13313222D02*
X8110182Y-13303698D01*
X8110182Y-13303698D02*
X8129229Y-13294174D01*
X8129229Y-13294174D02*
X8176848Y-13294174D01*
X8176848Y-13294174D02*
X8195896Y-13303698D01*
X8195896Y-13303698D02*
X8205420Y-13313222D01*
X8205420Y-13313222D02*
X8214944Y-13332269D01*
X8214944Y-13332269D02*
X8214944Y-13379888D01*
X8214944Y-13379888D02*
X8205420Y-13398936D01*
X8205420Y-13398936D02*
X8195896Y-13408460D01*
X8195896Y-13408460D02*
X8176848Y-13417984D01*
X8176848Y-13417984D02*
X8129229Y-13417984D01*
X8129229Y-13417984D02*
X8110182Y-13408460D01*
X8110182Y-13408460D02*
X8100658Y-13398936D01*
X8291134Y-13217984D02*
X8291134Y-13256079D01*
X8367325Y-13217984D02*
X8367325Y-13256079D01*
X8662563Y-13494174D02*
X8653039Y-13484650D01*
X8653039Y-13484650D02*
X8633991Y-13456079D01*
X8633991Y-13456079D02*
X8624468Y-13437031D01*
X8624468Y-13437031D02*
X8614944Y-13408460D01*
X8614944Y-13408460D02*
X8605420Y-13360841D01*
X8605420Y-13360841D02*
X8605420Y-13322746D01*
X8605420Y-13322746D02*
X8614944Y-13275127D01*
X8614944Y-13275127D02*
X8624468Y-13246555D01*
X8624468Y-13246555D02*
X8633991Y-13227508D01*
X8633991Y-13227508D02*
X8653039Y-13198936D01*
X8653039Y-13198936D02*
X8662563Y-13189412D01*
X8824468Y-13217984D02*
X8786372Y-13217984D01*
X8786372Y-13217984D02*
X8767325Y-13227508D01*
X8767325Y-13227508D02*
X8757801Y-13237031D01*
X8757801Y-13237031D02*
X8738753Y-13265603D01*
X8738753Y-13265603D02*
X8729230Y-13303698D01*
X8729230Y-13303698D02*
X8729230Y-13379888D01*
X8729230Y-13379888D02*
X8738753Y-13398936D01*
X8738753Y-13398936D02*
X8748277Y-13408460D01*
X8748277Y-13408460D02*
X8767325Y-13417984D01*
X8767325Y-13417984D02*
X8805420Y-13417984D01*
X8805420Y-13417984D02*
X8824468Y-13408460D01*
X8824468Y-13408460D02*
X8833991Y-13398936D01*
X8833991Y-13398936D02*
X8843515Y-13379888D01*
X8843515Y-13379888D02*
X8843515Y-13332269D01*
X8843515Y-13332269D02*
X8833991Y-13313222D01*
X8833991Y-13313222D02*
X8824468Y-13303698D01*
X8824468Y-13303698D02*
X8805420Y-13294174D01*
X8805420Y-13294174D02*
X8767325Y-13294174D01*
X8767325Y-13294174D02*
X8748277Y-13303698D01*
X8748277Y-13303698D02*
X8738753Y-13313222D01*
X8738753Y-13313222D02*
X8729230Y-13332269D01*
X9081611Y-13417984D02*
X9081611Y-13217984D01*
X9167325Y-13417984D02*
X9167325Y-13313222D01*
X9167325Y-13313222D02*
X9157801Y-13294174D01*
X9157801Y-13294174D02*
X9138753Y-13284650D01*
X9138753Y-13284650D02*
X9110182Y-13284650D01*
X9110182Y-13284650D02*
X9091134Y-13294174D01*
X9091134Y-13294174D02*
X9081611Y-13303698D01*
X9291134Y-13417984D02*
X9272087Y-13408460D01*
X9272087Y-13408460D02*
X9262563Y-13398936D01*
X9262563Y-13398936D02*
X9253039Y-13379888D01*
X9253039Y-13379888D02*
X9253039Y-13322746D01*
X9253039Y-13322746D02*
X9262563Y-13303698D01*
X9262563Y-13303698D02*
X9272087Y-13294174D01*
X9272087Y-13294174D02*
X9291134Y-13284650D01*
X9291134Y-13284650D02*
X9319706Y-13284650D01*
X9319706Y-13284650D02*
X9338753Y-13294174D01*
X9338753Y-13294174D02*
X9348277Y-13303698D01*
X9348277Y-13303698D02*
X9357801Y-13322746D01*
X9357801Y-13322746D02*
X9357801Y-13379888D01*
X9357801Y-13379888D02*
X9348277Y-13398936D01*
X9348277Y-13398936D02*
X9338753Y-13408460D01*
X9338753Y-13408460D02*
X9319706Y-13417984D01*
X9319706Y-13417984D02*
X9291134Y-13417984D01*
X9472087Y-13417984D02*
X9453039Y-13408460D01*
X9453039Y-13408460D02*
X9443515Y-13389412D01*
X9443515Y-13389412D02*
X9443515Y-13217984D01*
X9624468Y-13408460D02*
X9605420Y-13417984D01*
X9605420Y-13417984D02*
X9567325Y-13417984D01*
X9567325Y-13417984D02*
X9548277Y-13408460D01*
X9548277Y-13408460D02*
X9538753Y-13389412D01*
X9538753Y-13389412D02*
X9538753Y-13313222D01*
X9538753Y-13313222D02*
X9548277Y-13294174D01*
X9548277Y-13294174D02*
X9567325Y-13284650D01*
X9567325Y-13284650D02*
X9605420Y-13284650D01*
X9605420Y-13284650D02*
X9624468Y-13294174D01*
X9624468Y-13294174D02*
X9633992Y-13313222D01*
X9633992Y-13313222D02*
X9633992Y-13332269D01*
X9633992Y-13332269D02*
X9538753Y-13351317D01*
X9710182Y-13408460D02*
X9729230Y-13417984D01*
X9729230Y-13417984D02*
X9767325Y-13417984D01*
X9767325Y-13417984D02*
X9786373Y-13408460D01*
X9786373Y-13408460D02*
X9795896Y-13389412D01*
X9795896Y-13389412D02*
X9795896Y-13379888D01*
X9795896Y-13379888D02*
X9786373Y-13360841D01*
X9786373Y-13360841D02*
X9767325Y-13351317D01*
X9767325Y-13351317D02*
X9738753Y-13351317D01*
X9738753Y-13351317D02*
X9719706Y-13341793D01*
X9719706Y-13341793D02*
X9710182Y-13322746D01*
X9710182Y-13322746D02*
X9710182Y-13313222D01*
X9710182Y-13313222D02*
X9719706Y-13294174D01*
X9719706Y-13294174D02*
X9738753Y-13284650D01*
X9738753Y-13284650D02*
X9767325Y-13284650D01*
X9767325Y-13284650D02*
X9786373Y-13294174D01*
X9862563Y-13494174D02*
X9872087Y-13484650D01*
X9872087Y-13484650D02*
X9891134Y-13456079D01*
X9891134Y-13456079D02*
X9900658Y-13437031D01*
X9900658Y-13437031D02*
X9910182Y-13408460D01*
X9910182Y-13408460D02*
X9919706Y-13360841D01*
X9919706Y-13360841D02*
X9919706Y-13322746D01*
X9919706Y-13322746D02*
X9910182Y-13275127D01*
X9910182Y-13275127D02*
X9900658Y-13246555D01*
X9900658Y-13246555D02*
X9891134Y-13227508D01*
X9891134Y-13227508D02*
X9872087Y-13198936D01*
X9872087Y-13198936D02*
X9862563Y-13189412D01*
D12*
X5047500Y-13550500D02*
X5047500Y-13630500D01*
X5007500Y-13590500D02*
X5087500Y-13590500D01*
D11*
X5386372Y-13481984D02*
X5405420Y-13481984D01*
X5405420Y-13481984D02*
X5424467Y-13491508D01*
X5424467Y-13491508D02*
X5433991Y-13501031D01*
X5433991Y-13501031D02*
X5443515Y-13520079D01*
X5443515Y-13520079D02*
X5453039Y-13558174D01*
X5453039Y-13558174D02*
X5453039Y-13605793D01*
X5453039Y-13605793D02*
X5443515Y-13643888D01*
X5443515Y-13643888D02*
X5433991Y-13662936D01*
X5433991Y-13662936D02*
X5424467Y-13672460D01*
X5424467Y-13672460D02*
X5405420Y-13681984D01*
X5405420Y-13681984D02*
X5386372Y-13681984D01*
X5386372Y-13681984D02*
X5367324Y-13672460D01*
X5367324Y-13672460D02*
X5357801Y-13662936D01*
X5357801Y-13662936D02*
X5348277Y-13643888D01*
X5348277Y-13643888D02*
X5338753Y-13605793D01*
X5338753Y-13605793D02*
X5338753Y-13558174D01*
X5338753Y-13558174D02*
X5348277Y-13520079D01*
X5348277Y-13520079D02*
X5357801Y-13501031D01*
X5357801Y-13501031D02*
X5367324Y-13491508D01*
X5367324Y-13491508D02*
X5386372Y-13481984D01*
X5538753Y-13662936D02*
X5548277Y-13672460D01*
X5548277Y-13672460D02*
X5538753Y-13681984D01*
X5538753Y-13681984D02*
X5529229Y-13672460D01*
X5529229Y-13672460D02*
X5538753Y-13662936D01*
X5538753Y-13662936D02*
X5538753Y-13681984D01*
X5662562Y-13567698D02*
X5643515Y-13558174D01*
X5643515Y-13558174D02*
X5633991Y-13548650D01*
X5633991Y-13548650D02*
X5624467Y-13529603D01*
X5624467Y-13529603D02*
X5624467Y-13520079D01*
X5624467Y-13520079D02*
X5633991Y-13501031D01*
X5633991Y-13501031D02*
X5643515Y-13491508D01*
X5643515Y-13491508D02*
X5662562Y-13481984D01*
X5662562Y-13481984D02*
X5700658Y-13481984D01*
X5700658Y-13481984D02*
X5719705Y-13491508D01*
X5719705Y-13491508D02*
X5729229Y-13501031D01*
X5729229Y-13501031D02*
X5738753Y-13520079D01*
X5738753Y-13520079D02*
X5738753Y-13529603D01*
X5738753Y-13529603D02*
X5729229Y-13548650D01*
X5729229Y-13548650D02*
X5719705Y-13558174D01*
X5719705Y-13558174D02*
X5700658Y-13567698D01*
X5700658Y-13567698D02*
X5662562Y-13567698D01*
X5662562Y-13567698D02*
X5643515Y-13577222D01*
X5643515Y-13577222D02*
X5633991Y-13586746D01*
X5633991Y-13586746D02*
X5624467Y-13605793D01*
X5624467Y-13605793D02*
X5624467Y-13643888D01*
X5624467Y-13643888D02*
X5633991Y-13662936D01*
X5633991Y-13662936D02*
X5643515Y-13672460D01*
X5643515Y-13672460D02*
X5662562Y-13681984D01*
X5662562Y-13681984D02*
X5700658Y-13681984D01*
X5700658Y-13681984D02*
X5719705Y-13672460D01*
X5719705Y-13672460D02*
X5729229Y-13662936D01*
X5729229Y-13662936D02*
X5738753Y-13643888D01*
X5738753Y-13643888D02*
X5738753Y-13605793D01*
X5738753Y-13605793D02*
X5729229Y-13586746D01*
X5729229Y-13586746D02*
X5719705Y-13577222D01*
X5719705Y-13577222D02*
X5700658Y-13567698D01*
X5862562Y-13481984D02*
X5881610Y-13481984D01*
X5881610Y-13481984D02*
X5900658Y-13491508D01*
X5900658Y-13491508D02*
X5910182Y-13501031D01*
X5910182Y-13501031D02*
X5919705Y-13520079D01*
X5919705Y-13520079D02*
X5929229Y-13558174D01*
X5929229Y-13558174D02*
X5929229Y-13605793D01*
X5929229Y-13605793D02*
X5919705Y-13643888D01*
X5919705Y-13643888D02*
X5910182Y-13662936D01*
X5910182Y-13662936D02*
X5900658Y-13672460D01*
X5900658Y-13672460D02*
X5881610Y-13681984D01*
X5881610Y-13681984D02*
X5862562Y-13681984D01*
X5862562Y-13681984D02*
X5843515Y-13672460D01*
X5843515Y-13672460D02*
X5833991Y-13662936D01*
X5833991Y-13662936D02*
X5824467Y-13643888D01*
X5824467Y-13643888D02*
X5814943Y-13605793D01*
X5814943Y-13605793D02*
X5814943Y-13558174D01*
X5814943Y-13558174D02*
X5824467Y-13520079D01*
X5824467Y-13520079D02*
X5833991Y-13501031D01*
X5833991Y-13501031D02*
X5843515Y-13491508D01*
X5843515Y-13491508D02*
X5862562Y-13481984D01*
X6053039Y-13481984D02*
X6072086Y-13481984D01*
X6072086Y-13481984D02*
X6091134Y-13491508D01*
X6091134Y-13491508D02*
X6100658Y-13501031D01*
X6100658Y-13501031D02*
X6110182Y-13520079D01*
X6110182Y-13520079D02*
X6119705Y-13558174D01*
X6119705Y-13558174D02*
X6119705Y-13605793D01*
X6119705Y-13605793D02*
X6110182Y-13643888D01*
X6110182Y-13643888D02*
X6100658Y-13662936D01*
X6100658Y-13662936D02*
X6091134Y-13672460D01*
X6091134Y-13672460D02*
X6072086Y-13681984D01*
X6072086Y-13681984D02*
X6053039Y-13681984D01*
X6053039Y-13681984D02*
X6033991Y-13672460D01*
X6033991Y-13672460D02*
X6024467Y-13662936D01*
X6024467Y-13662936D02*
X6014943Y-13643888D01*
X6014943Y-13643888D02*
X6005420Y-13605793D01*
X6005420Y-13605793D02*
X6005420Y-13558174D01*
X6005420Y-13558174D02*
X6014943Y-13520079D01*
X6014943Y-13520079D02*
X6024467Y-13501031D01*
X6024467Y-13501031D02*
X6033991Y-13491508D01*
X6033991Y-13491508D02*
X6053039Y-13481984D01*
X6205420Y-13681984D02*
X6205420Y-13548650D01*
X6205420Y-13567698D02*
X6214943Y-13558174D01*
X6214943Y-13558174D02*
X6233991Y-13548650D01*
X6233991Y-13548650D02*
X6262563Y-13548650D01*
X6262563Y-13548650D02*
X6281610Y-13558174D01*
X6281610Y-13558174D02*
X6291134Y-13577222D01*
X6291134Y-13577222D02*
X6291134Y-13681984D01*
X6291134Y-13577222D02*
X6300658Y-13558174D01*
X6300658Y-13558174D02*
X6319705Y-13548650D01*
X6319705Y-13548650D02*
X6348277Y-13548650D01*
X6348277Y-13548650D02*
X6367324Y-13558174D01*
X6367324Y-13558174D02*
X6376848Y-13577222D01*
X6376848Y-13577222D02*
X6376848Y-13681984D01*
X6472086Y-13681984D02*
X6472086Y-13548650D01*
X6472086Y-13567698D02*
X6481610Y-13558174D01*
X6481610Y-13558174D02*
X6500658Y-13548650D01*
X6500658Y-13548650D02*
X6529229Y-13548650D01*
X6529229Y-13548650D02*
X6548277Y-13558174D01*
X6548277Y-13558174D02*
X6557801Y-13577222D01*
X6557801Y-13577222D02*
X6557801Y-13681984D01*
X6557801Y-13577222D02*
X6567324Y-13558174D01*
X6567324Y-13558174D02*
X6586372Y-13548650D01*
X6586372Y-13548650D02*
X6614943Y-13548650D01*
X6614943Y-13548650D02*
X6633991Y-13558174D01*
X6633991Y-13558174D02*
X6643515Y-13577222D01*
X6643515Y-13577222D02*
X6643515Y-13681984D01*
X7033991Y-13472460D02*
X6862563Y-13729603D01*
X7291134Y-13481984D02*
X7310182Y-13481984D01*
X7310182Y-13481984D02*
X7329229Y-13491508D01*
X7329229Y-13491508D02*
X7338753Y-13501031D01*
X7338753Y-13501031D02*
X7348277Y-13520079D01*
X7348277Y-13520079D02*
X7357801Y-13558174D01*
X7357801Y-13558174D02*
X7357801Y-13605793D01*
X7357801Y-13605793D02*
X7348277Y-13643888D01*
X7348277Y-13643888D02*
X7338753Y-13662936D01*
X7338753Y-13662936D02*
X7329229Y-13672460D01*
X7329229Y-13672460D02*
X7310182Y-13681984D01*
X7310182Y-13681984D02*
X7291134Y-13681984D01*
X7291134Y-13681984D02*
X7272086Y-13672460D01*
X7272086Y-13672460D02*
X7262563Y-13662936D01*
X7262563Y-13662936D02*
X7253039Y-13643888D01*
X7253039Y-13643888D02*
X7243515Y-13605793D01*
X7243515Y-13605793D02*
X7243515Y-13558174D01*
X7243515Y-13558174D02*
X7253039Y-13520079D01*
X7253039Y-13520079D02*
X7262563Y-13501031D01*
X7262563Y-13501031D02*
X7272086Y-13491508D01*
X7272086Y-13491508D02*
X7291134Y-13481984D01*
X7443515Y-13662936D02*
X7453039Y-13672460D01*
X7453039Y-13672460D02*
X7443515Y-13681984D01*
X7443515Y-13681984D02*
X7433991Y-13672460D01*
X7433991Y-13672460D02*
X7443515Y-13662936D01*
X7443515Y-13662936D02*
X7443515Y-13681984D01*
X7576848Y-13481984D02*
X7595896Y-13481984D01*
X7595896Y-13481984D02*
X7614944Y-13491508D01*
X7614944Y-13491508D02*
X7624467Y-13501031D01*
X7624467Y-13501031D02*
X7633991Y-13520079D01*
X7633991Y-13520079D02*
X7643515Y-13558174D01*
X7643515Y-13558174D02*
X7643515Y-13605793D01*
X7643515Y-13605793D02*
X7633991Y-13643888D01*
X7633991Y-13643888D02*
X7624467Y-13662936D01*
X7624467Y-13662936D02*
X7614944Y-13672460D01*
X7614944Y-13672460D02*
X7595896Y-13681984D01*
X7595896Y-13681984D02*
X7576848Y-13681984D01*
X7576848Y-13681984D02*
X7557801Y-13672460D01*
X7557801Y-13672460D02*
X7548277Y-13662936D01*
X7548277Y-13662936D02*
X7538753Y-13643888D01*
X7538753Y-13643888D02*
X7529229Y-13605793D01*
X7529229Y-13605793D02*
X7529229Y-13558174D01*
X7529229Y-13558174D02*
X7538753Y-13520079D01*
X7538753Y-13520079D02*
X7548277Y-13501031D01*
X7548277Y-13501031D02*
X7557801Y-13491508D01*
X7557801Y-13491508D02*
X7576848Y-13481984D01*
X7710182Y-13481984D02*
X7833991Y-13481984D01*
X7833991Y-13481984D02*
X7767325Y-13558174D01*
X7767325Y-13558174D02*
X7795896Y-13558174D01*
X7795896Y-13558174D02*
X7814944Y-13567698D01*
X7814944Y-13567698D02*
X7824467Y-13577222D01*
X7824467Y-13577222D02*
X7833991Y-13596269D01*
X7833991Y-13596269D02*
X7833991Y-13643888D01*
X7833991Y-13643888D02*
X7824467Y-13662936D01*
X7824467Y-13662936D02*
X7814944Y-13672460D01*
X7814944Y-13672460D02*
X7795896Y-13681984D01*
X7795896Y-13681984D02*
X7738753Y-13681984D01*
X7738753Y-13681984D02*
X7719706Y-13672460D01*
X7719706Y-13672460D02*
X7710182Y-13662936D01*
X8024467Y-13681984D02*
X7910182Y-13681984D01*
X7967325Y-13681984D02*
X7967325Y-13481984D01*
X7967325Y-13481984D02*
X7948277Y-13510555D01*
X7948277Y-13510555D02*
X7929229Y-13529603D01*
X7929229Y-13529603D02*
X7910182Y-13539127D01*
X8205420Y-13481984D02*
X8110182Y-13481984D01*
X8110182Y-13481984D02*
X8100658Y-13577222D01*
X8100658Y-13577222D02*
X8110182Y-13567698D01*
X8110182Y-13567698D02*
X8129229Y-13558174D01*
X8129229Y-13558174D02*
X8176848Y-13558174D01*
X8176848Y-13558174D02*
X8195896Y-13567698D01*
X8195896Y-13567698D02*
X8205420Y-13577222D01*
X8205420Y-13577222D02*
X8214944Y-13596269D01*
X8214944Y-13596269D02*
X8214944Y-13643888D01*
X8214944Y-13643888D02*
X8205420Y-13662936D01*
X8205420Y-13662936D02*
X8195896Y-13672460D01*
X8195896Y-13672460D02*
X8176848Y-13681984D01*
X8176848Y-13681984D02*
X8129229Y-13681984D01*
X8129229Y-13681984D02*
X8110182Y-13672460D01*
X8110182Y-13672460D02*
X8100658Y-13662936D01*
X8291134Y-13481984D02*
X8291134Y-13520079D01*
X8367325Y-13481984D02*
X8367325Y-13520079D01*
X8662563Y-13758174D02*
X8653039Y-13748650D01*
X8653039Y-13748650D02*
X8633991Y-13720079D01*
X8633991Y-13720079D02*
X8624468Y-13701031D01*
X8624468Y-13701031D02*
X8614944Y-13672460D01*
X8614944Y-13672460D02*
X8605420Y-13624841D01*
X8605420Y-13624841D02*
X8605420Y-13586746D01*
X8605420Y-13586746D02*
X8614944Y-13539127D01*
X8614944Y-13539127D02*
X8624468Y-13510555D01*
X8624468Y-13510555D02*
X8633991Y-13491508D01*
X8633991Y-13491508D02*
X8653039Y-13462936D01*
X8653039Y-13462936D02*
X8662563Y-13453412D01*
X8767325Y-13567698D02*
X8748277Y-13558174D01*
X8748277Y-13558174D02*
X8738753Y-13548650D01*
X8738753Y-13548650D02*
X8729230Y-13529603D01*
X8729230Y-13529603D02*
X8729230Y-13520079D01*
X8729230Y-13520079D02*
X8738753Y-13501031D01*
X8738753Y-13501031D02*
X8748277Y-13491508D01*
X8748277Y-13491508D02*
X8767325Y-13481984D01*
X8767325Y-13481984D02*
X8805420Y-13481984D01*
X8805420Y-13481984D02*
X8824468Y-13491508D01*
X8824468Y-13491508D02*
X8833991Y-13501031D01*
X8833991Y-13501031D02*
X8843515Y-13520079D01*
X8843515Y-13520079D02*
X8843515Y-13529603D01*
X8843515Y-13529603D02*
X8833991Y-13548650D01*
X8833991Y-13548650D02*
X8824468Y-13558174D01*
X8824468Y-13558174D02*
X8805420Y-13567698D01*
X8805420Y-13567698D02*
X8767325Y-13567698D01*
X8767325Y-13567698D02*
X8748277Y-13577222D01*
X8748277Y-13577222D02*
X8738753Y-13586746D01*
X8738753Y-13586746D02*
X8729230Y-13605793D01*
X8729230Y-13605793D02*
X8729230Y-13643888D01*
X8729230Y-13643888D02*
X8738753Y-13662936D01*
X8738753Y-13662936D02*
X8748277Y-13672460D01*
X8748277Y-13672460D02*
X8767325Y-13681984D01*
X8767325Y-13681984D02*
X8805420Y-13681984D01*
X8805420Y-13681984D02*
X8824468Y-13672460D01*
X8824468Y-13672460D02*
X8833991Y-13662936D01*
X8833991Y-13662936D02*
X8843515Y-13643888D01*
X8843515Y-13643888D02*
X8843515Y-13605793D01*
X8843515Y-13605793D02*
X8833991Y-13586746D01*
X8833991Y-13586746D02*
X8824468Y-13577222D01*
X8824468Y-13577222D02*
X8805420Y-13567698D01*
X9024468Y-13481984D02*
X8929230Y-13481984D01*
X8929230Y-13481984D02*
X8919706Y-13577222D01*
X8919706Y-13577222D02*
X8929230Y-13567698D01*
X8929230Y-13567698D02*
X8948277Y-13558174D01*
X8948277Y-13558174D02*
X8995896Y-13558174D01*
X8995896Y-13558174D02*
X9014944Y-13567698D01*
X9014944Y-13567698D02*
X9024468Y-13577222D01*
X9024468Y-13577222D02*
X9033991Y-13596269D01*
X9033991Y-13596269D02*
X9033991Y-13643888D01*
X9033991Y-13643888D02*
X9024468Y-13662936D01*
X9024468Y-13662936D02*
X9014944Y-13672460D01*
X9014944Y-13672460D02*
X8995896Y-13681984D01*
X8995896Y-13681984D02*
X8948277Y-13681984D01*
X8948277Y-13681984D02*
X8929230Y-13672460D01*
X8929230Y-13672460D02*
X8919706Y-13662936D01*
X9272087Y-13681984D02*
X9272087Y-13481984D01*
X9357801Y-13681984D02*
X9357801Y-13577222D01*
X9357801Y-13577222D02*
X9348277Y-13558174D01*
X9348277Y-13558174D02*
X9329230Y-13548650D01*
X9329230Y-13548650D02*
X9300658Y-13548650D01*
X9300658Y-13548650D02*
X9281611Y-13558174D01*
X9281611Y-13558174D02*
X9272087Y-13567698D01*
X9481611Y-13681984D02*
X9462563Y-13672460D01*
X9462563Y-13672460D02*
X9453039Y-13662936D01*
X9453039Y-13662936D02*
X9443515Y-13643888D01*
X9443515Y-13643888D02*
X9443515Y-13586746D01*
X9443515Y-13586746D02*
X9453039Y-13567698D01*
X9453039Y-13567698D02*
X9462563Y-13558174D01*
X9462563Y-13558174D02*
X9481611Y-13548650D01*
X9481611Y-13548650D02*
X9510182Y-13548650D01*
X9510182Y-13548650D02*
X9529230Y-13558174D01*
X9529230Y-13558174D02*
X9538753Y-13567698D01*
X9538753Y-13567698D02*
X9548277Y-13586746D01*
X9548277Y-13586746D02*
X9548277Y-13643888D01*
X9548277Y-13643888D02*
X9538753Y-13662936D01*
X9538753Y-13662936D02*
X9529230Y-13672460D01*
X9529230Y-13672460D02*
X9510182Y-13681984D01*
X9510182Y-13681984D02*
X9481611Y-13681984D01*
X9662563Y-13681984D02*
X9643515Y-13672460D01*
X9643515Y-13672460D02*
X9633992Y-13653412D01*
X9633992Y-13653412D02*
X9633992Y-13481984D01*
X9814944Y-13672460D02*
X9795896Y-13681984D01*
X9795896Y-13681984D02*
X9757801Y-13681984D01*
X9757801Y-13681984D02*
X9738753Y-13672460D01*
X9738753Y-13672460D02*
X9729230Y-13653412D01*
X9729230Y-13653412D02*
X9729230Y-13577222D01*
X9729230Y-13577222D02*
X9738753Y-13558174D01*
X9738753Y-13558174D02*
X9757801Y-13548650D01*
X9757801Y-13548650D02*
X9795896Y-13548650D01*
X9795896Y-13548650D02*
X9814944Y-13558174D01*
X9814944Y-13558174D02*
X9824468Y-13577222D01*
X9824468Y-13577222D02*
X9824468Y-13596269D01*
X9824468Y-13596269D02*
X9729230Y-13615317D01*
X9900658Y-13672460D02*
X9919706Y-13681984D01*
X9919706Y-13681984D02*
X9957801Y-13681984D01*
X9957801Y-13681984D02*
X9976849Y-13672460D01*
X9976849Y-13672460D02*
X9986373Y-13653412D01*
X9986373Y-13653412D02*
X9986373Y-13643888D01*
X9986373Y-13643888D02*
X9976849Y-13624841D01*
X9976849Y-13624841D02*
X9957801Y-13615317D01*
X9957801Y-13615317D02*
X9929230Y-13615317D01*
X9929230Y-13615317D02*
X9910182Y-13605793D01*
X9910182Y-13605793D02*
X9900658Y-13586746D01*
X9900658Y-13586746D02*
X9900658Y-13577222D01*
X9900658Y-13577222D02*
X9910182Y-13558174D01*
X9910182Y-13558174D02*
X9929230Y-13548650D01*
X9929230Y-13548650D02*
X9957801Y-13548650D01*
X9957801Y-13548650D02*
X9976849Y-13558174D01*
X10053039Y-13758174D02*
X10062563Y-13748650D01*
X10062563Y-13748650D02*
X10081611Y-13720079D01*
X10081611Y-13720079D02*
X10091134Y-13701031D01*
X10091134Y-13701031D02*
X10100658Y-13672460D01*
X10100658Y-13672460D02*
X10110182Y-13624841D01*
X10110182Y-13624841D02*
X10110182Y-13586746D01*
X10110182Y-13586746D02*
X10100658Y-13539127D01*
X10100658Y-13539127D02*
X10091134Y-13510555D01*
X10091134Y-13510555D02*
X10081611Y-13491508D01*
X10081611Y-13491508D02*
X10062563Y-13462936D01*
X10062563Y-13462936D02*
X10053039Y-13453412D01*
D12*
X5075785Y-13882784D02*
X5075785Y-13826215D01*
X5019216Y-13826215D01*
X5019216Y-13882784D01*
X5075785Y-13882784D01*
D11*
X5386372Y-13745984D02*
X5405420Y-13745984D01*
X5405420Y-13745984D02*
X5424467Y-13755508D01*
X5424467Y-13755508D02*
X5433991Y-13765031D01*
X5433991Y-13765031D02*
X5443515Y-13784079D01*
X5443515Y-13784079D02*
X5453039Y-13822174D01*
X5453039Y-13822174D02*
X5453039Y-13869793D01*
X5453039Y-13869793D02*
X5443515Y-13907888D01*
X5443515Y-13907888D02*
X5433991Y-13926936D01*
X5433991Y-13926936D02*
X5424467Y-13936460D01*
X5424467Y-13936460D02*
X5405420Y-13945984D01*
X5405420Y-13945984D02*
X5386372Y-13945984D01*
X5386372Y-13945984D02*
X5367324Y-13936460D01*
X5367324Y-13936460D02*
X5357801Y-13926936D01*
X5357801Y-13926936D02*
X5348277Y-13907888D01*
X5348277Y-13907888D02*
X5338753Y-13869793D01*
X5338753Y-13869793D02*
X5338753Y-13822174D01*
X5338753Y-13822174D02*
X5348277Y-13784079D01*
X5348277Y-13784079D02*
X5357801Y-13765031D01*
X5357801Y-13765031D02*
X5367324Y-13755508D01*
X5367324Y-13755508D02*
X5386372Y-13745984D01*
X5538753Y-13926936D02*
X5548277Y-13936460D01*
X5548277Y-13936460D02*
X5538753Y-13945984D01*
X5538753Y-13945984D02*
X5529229Y-13936460D01*
X5529229Y-13936460D02*
X5538753Y-13926936D01*
X5538753Y-13926936D02*
X5538753Y-13945984D01*
X5662562Y-13831698D02*
X5643515Y-13822174D01*
X5643515Y-13822174D02*
X5633991Y-13812650D01*
X5633991Y-13812650D02*
X5624467Y-13793603D01*
X5624467Y-13793603D02*
X5624467Y-13784079D01*
X5624467Y-13784079D02*
X5633991Y-13765031D01*
X5633991Y-13765031D02*
X5643515Y-13755508D01*
X5643515Y-13755508D02*
X5662562Y-13745984D01*
X5662562Y-13745984D02*
X5700658Y-13745984D01*
X5700658Y-13745984D02*
X5719705Y-13755508D01*
X5719705Y-13755508D02*
X5729229Y-13765031D01*
X5729229Y-13765031D02*
X5738753Y-13784079D01*
X5738753Y-13784079D02*
X5738753Y-13793603D01*
X5738753Y-13793603D02*
X5729229Y-13812650D01*
X5729229Y-13812650D02*
X5719705Y-13822174D01*
X5719705Y-13822174D02*
X5700658Y-13831698D01*
X5700658Y-13831698D02*
X5662562Y-13831698D01*
X5662562Y-13831698D02*
X5643515Y-13841222D01*
X5643515Y-13841222D02*
X5633991Y-13850746D01*
X5633991Y-13850746D02*
X5624467Y-13869793D01*
X5624467Y-13869793D02*
X5624467Y-13907888D01*
X5624467Y-13907888D02*
X5633991Y-13926936D01*
X5633991Y-13926936D02*
X5643515Y-13936460D01*
X5643515Y-13936460D02*
X5662562Y-13945984D01*
X5662562Y-13945984D02*
X5700658Y-13945984D01*
X5700658Y-13945984D02*
X5719705Y-13936460D01*
X5719705Y-13936460D02*
X5729229Y-13926936D01*
X5729229Y-13926936D02*
X5738753Y-13907888D01*
X5738753Y-13907888D02*
X5738753Y-13869793D01*
X5738753Y-13869793D02*
X5729229Y-13850746D01*
X5729229Y-13850746D02*
X5719705Y-13841222D01*
X5719705Y-13841222D02*
X5700658Y-13831698D01*
X5862562Y-13745984D02*
X5881610Y-13745984D01*
X5881610Y-13745984D02*
X5900658Y-13755508D01*
X5900658Y-13755508D02*
X5910182Y-13765031D01*
X5910182Y-13765031D02*
X5919705Y-13784079D01*
X5919705Y-13784079D02*
X5929229Y-13822174D01*
X5929229Y-13822174D02*
X5929229Y-13869793D01*
X5929229Y-13869793D02*
X5919705Y-13907888D01*
X5919705Y-13907888D02*
X5910182Y-13926936D01*
X5910182Y-13926936D02*
X5900658Y-13936460D01*
X5900658Y-13936460D02*
X5881610Y-13945984D01*
X5881610Y-13945984D02*
X5862562Y-13945984D01*
X5862562Y-13945984D02*
X5843515Y-13936460D01*
X5843515Y-13936460D02*
X5833991Y-13926936D01*
X5833991Y-13926936D02*
X5824467Y-13907888D01*
X5824467Y-13907888D02*
X5814943Y-13869793D01*
X5814943Y-13869793D02*
X5814943Y-13822174D01*
X5814943Y-13822174D02*
X5824467Y-13784079D01*
X5824467Y-13784079D02*
X5833991Y-13765031D01*
X5833991Y-13765031D02*
X5843515Y-13755508D01*
X5843515Y-13755508D02*
X5862562Y-13745984D01*
X6053039Y-13745984D02*
X6072086Y-13745984D01*
X6072086Y-13745984D02*
X6091134Y-13755508D01*
X6091134Y-13755508D02*
X6100658Y-13765031D01*
X6100658Y-13765031D02*
X6110182Y-13784079D01*
X6110182Y-13784079D02*
X6119705Y-13822174D01*
X6119705Y-13822174D02*
X6119705Y-13869793D01*
X6119705Y-13869793D02*
X6110182Y-13907888D01*
X6110182Y-13907888D02*
X6100658Y-13926936D01*
X6100658Y-13926936D02*
X6091134Y-13936460D01*
X6091134Y-13936460D02*
X6072086Y-13945984D01*
X6072086Y-13945984D02*
X6053039Y-13945984D01*
X6053039Y-13945984D02*
X6033991Y-13936460D01*
X6033991Y-13936460D02*
X6024467Y-13926936D01*
X6024467Y-13926936D02*
X6014943Y-13907888D01*
X6014943Y-13907888D02*
X6005420Y-13869793D01*
X6005420Y-13869793D02*
X6005420Y-13822174D01*
X6005420Y-13822174D02*
X6014943Y-13784079D01*
X6014943Y-13784079D02*
X6024467Y-13765031D01*
X6024467Y-13765031D02*
X6033991Y-13755508D01*
X6033991Y-13755508D02*
X6053039Y-13745984D01*
X6205420Y-13945984D02*
X6205420Y-13812650D01*
X6205420Y-13831698D02*
X6214943Y-13822174D01*
X6214943Y-13822174D02*
X6233991Y-13812650D01*
X6233991Y-13812650D02*
X6262563Y-13812650D01*
X6262563Y-13812650D02*
X6281610Y-13822174D01*
X6281610Y-13822174D02*
X6291134Y-13841222D01*
X6291134Y-13841222D02*
X6291134Y-13945984D01*
X6291134Y-13841222D02*
X6300658Y-13822174D01*
X6300658Y-13822174D02*
X6319705Y-13812650D01*
X6319705Y-13812650D02*
X6348277Y-13812650D01*
X6348277Y-13812650D02*
X6367324Y-13822174D01*
X6367324Y-13822174D02*
X6376848Y-13841222D01*
X6376848Y-13841222D02*
X6376848Y-13945984D01*
X6472086Y-13945984D02*
X6472086Y-13812650D01*
X6472086Y-13831698D02*
X6481610Y-13822174D01*
X6481610Y-13822174D02*
X6500658Y-13812650D01*
X6500658Y-13812650D02*
X6529229Y-13812650D01*
X6529229Y-13812650D02*
X6548277Y-13822174D01*
X6548277Y-13822174D02*
X6557801Y-13841222D01*
X6557801Y-13841222D02*
X6557801Y-13945984D01*
X6557801Y-13841222D02*
X6567324Y-13822174D01*
X6567324Y-13822174D02*
X6586372Y-13812650D01*
X6586372Y-13812650D02*
X6614943Y-13812650D01*
X6614943Y-13812650D02*
X6633991Y-13822174D01*
X6633991Y-13822174D02*
X6643515Y-13841222D01*
X6643515Y-13841222D02*
X6643515Y-13945984D01*
X7033991Y-13736460D02*
X6862563Y-13993603D01*
X7291134Y-13745984D02*
X7310182Y-13745984D01*
X7310182Y-13745984D02*
X7329229Y-13755508D01*
X7329229Y-13755508D02*
X7338753Y-13765031D01*
X7338753Y-13765031D02*
X7348277Y-13784079D01*
X7348277Y-13784079D02*
X7357801Y-13822174D01*
X7357801Y-13822174D02*
X7357801Y-13869793D01*
X7357801Y-13869793D02*
X7348277Y-13907888D01*
X7348277Y-13907888D02*
X7338753Y-13926936D01*
X7338753Y-13926936D02*
X7329229Y-13936460D01*
X7329229Y-13936460D02*
X7310182Y-13945984D01*
X7310182Y-13945984D02*
X7291134Y-13945984D01*
X7291134Y-13945984D02*
X7272086Y-13936460D01*
X7272086Y-13936460D02*
X7262563Y-13926936D01*
X7262563Y-13926936D02*
X7253039Y-13907888D01*
X7253039Y-13907888D02*
X7243515Y-13869793D01*
X7243515Y-13869793D02*
X7243515Y-13822174D01*
X7243515Y-13822174D02*
X7253039Y-13784079D01*
X7253039Y-13784079D02*
X7262563Y-13765031D01*
X7262563Y-13765031D02*
X7272086Y-13755508D01*
X7272086Y-13755508D02*
X7291134Y-13745984D01*
X7443515Y-13926936D02*
X7453039Y-13936460D01*
X7453039Y-13936460D02*
X7443515Y-13945984D01*
X7443515Y-13945984D02*
X7433991Y-13936460D01*
X7433991Y-13936460D02*
X7443515Y-13926936D01*
X7443515Y-13926936D02*
X7443515Y-13945984D01*
X7576848Y-13745984D02*
X7595896Y-13745984D01*
X7595896Y-13745984D02*
X7614944Y-13755508D01*
X7614944Y-13755508D02*
X7624467Y-13765031D01*
X7624467Y-13765031D02*
X7633991Y-13784079D01*
X7633991Y-13784079D02*
X7643515Y-13822174D01*
X7643515Y-13822174D02*
X7643515Y-13869793D01*
X7643515Y-13869793D02*
X7633991Y-13907888D01*
X7633991Y-13907888D02*
X7624467Y-13926936D01*
X7624467Y-13926936D02*
X7614944Y-13936460D01*
X7614944Y-13936460D02*
X7595896Y-13945984D01*
X7595896Y-13945984D02*
X7576848Y-13945984D01*
X7576848Y-13945984D02*
X7557801Y-13936460D01*
X7557801Y-13936460D02*
X7548277Y-13926936D01*
X7548277Y-13926936D02*
X7538753Y-13907888D01*
X7538753Y-13907888D02*
X7529229Y-13869793D01*
X7529229Y-13869793D02*
X7529229Y-13822174D01*
X7529229Y-13822174D02*
X7538753Y-13784079D01*
X7538753Y-13784079D02*
X7548277Y-13765031D01*
X7548277Y-13765031D02*
X7557801Y-13755508D01*
X7557801Y-13755508D02*
X7576848Y-13745984D01*
X7710182Y-13745984D02*
X7833991Y-13745984D01*
X7833991Y-13745984D02*
X7767325Y-13822174D01*
X7767325Y-13822174D02*
X7795896Y-13822174D01*
X7795896Y-13822174D02*
X7814944Y-13831698D01*
X7814944Y-13831698D02*
X7824467Y-13841222D01*
X7824467Y-13841222D02*
X7833991Y-13860269D01*
X7833991Y-13860269D02*
X7833991Y-13907888D01*
X7833991Y-13907888D02*
X7824467Y-13926936D01*
X7824467Y-13926936D02*
X7814944Y-13936460D01*
X7814944Y-13936460D02*
X7795896Y-13945984D01*
X7795896Y-13945984D02*
X7738753Y-13945984D01*
X7738753Y-13945984D02*
X7719706Y-13936460D01*
X7719706Y-13936460D02*
X7710182Y-13926936D01*
X8024467Y-13945984D02*
X7910182Y-13945984D01*
X7967325Y-13945984D02*
X7967325Y-13745984D01*
X7967325Y-13745984D02*
X7948277Y-13774555D01*
X7948277Y-13774555D02*
X7929229Y-13793603D01*
X7929229Y-13793603D02*
X7910182Y-13803127D01*
X8205420Y-13745984D02*
X8110182Y-13745984D01*
X8110182Y-13745984D02*
X8100658Y-13841222D01*
X8100658Y-13841222D02*
X8110182Y-13831698D01*
X8110182Y-13831698D02*
X8129229Y-13822174D01*
X8129229Y-13822174D02*
X8176848Y-13822174D01*
X8176848Y-13822174D02*
X8195896Y-13831698D01*
X8195896Y-13831698D02*
X8205420Y-13841222D01*
X8205420Y-13841222D02*
X8214944Y-13860269D01*
X8214944Y-13860269D02*
X8214944Y-13907888D01*
X8214944Y-13907888D02*
X8205420Y-13926936D01*
X8205420Y-13926936D02*
X8195896Y-13936460D01*
X8195896Y-13936460D02*
X8176848Y-13945984D01*
X8176848Y-13945984D02*
X8129229Y-13945984D01*
X8129229Y-13945984D02*
X8110182Y-13936460D01*
X8110182Y-13936460D02*
X8100658Y-13926936D01*
X8291134Y-13745984D02*
X8291134Y-13784079D01*
X8367325Y-13745984D02*
X8367325Y-13784079D01*
X8662563Y-14022174D02*
X8653039Y-14012650D01*
X8653039Y-14012650D02*
X8633991Y-13984079D01*
X8633991Y-13984079D02*
X8624468Y-13965031D01*
X8624468Y-13965031D02*
X8614944Y-13936460D01*
X8614944Y-13936460D02*
X8605420Y-13888841D01*
X8605420Y-13888841D02*
X8605420Y-13850746D01*
X8605420Y-13850746D02*
X8614944Y-13803127D01*
X8614944Y-13803127D02*
X8624468Y-13774555D01*
X8624468Y-13774555D02*
X8633991Y-13755508D01*
X8633991Y-13755508D02*
X8653039Y-13726936D01*
X8653039Y-13726936D02*
X8662563Y-13717412D01*
X8729230Y-13765031D02*
X8738753Y-13755508D01*
X8738753Y-13755508D02*
X8757801Y-13745984D01*
X8757801Y-13745984D02*
X8805420Y-13745984D01*
X8805420Y-13745984D02*
X8824468Y-13755508D01*
X8824468Y-13755508D02*
X8833991Y-13765031D01*
X8833991Y-13765031D02*
X8843515Y-13784079D01*
X8843515Y-13784079D02*
X8843515Y-13803127D01*
X8843515Y-13803127D02*
X8833991Y-13831698D01*
X8833991Y-13831698D02*
X8719706Y-13945984D01*
X8719706Y-13945984D02*
X8843515Y-13945984D01*
X8967325Y-13745984D02*
X8986372Y-13745984D01*
X8986372Y-13745984D02*
X9005420Y-13755508D01*
X9005420Y-13755508D02*
X9014944Y-13765031D01*
X9014944Y-13765031D02*
X9024468Y-13784079D01*
X9024468Y-13784079D02*
X9033991Y-13822174D01*
X9033991Y-13822174D02*
X9033991Y-13869793D01*
X9033991Y-13869793D02*
X9024468Y-13907888D01*
X9024468Y-13907888D02*
X9014944Y-13926936D01*
X9014944Y-13926936D02*
X9005420Y-13936460D01*
X9005420Y-13936460D02*
X8986372Y-13945984D01*
X8986372Y-13945984D02*
X8967325Y-13945984D01*
X8967325Y-13945984D02*
X8948277Y-13936460D01*
X8948277Y-13936460D02*
X8938753Y-13926936D01*
X8938753Y-13926936D02*
X8929230Y-13907888D01*
X8929230Y-13907888D02*
X8919706Y-13869793D01*
X8919706Y-13869793D02*
X8919706Y-13822174D01*
X8919706Y-13822174D02*
X8929230Y-13784079D01*
X8929230Y-13784079D02*
X8938753Y-13765031D01*
X8938753Y-13765031D02*
X8948277Y-13755508D01*
X8948277Y-13755508D02*
X8967325Y-13745984D01*
X9272087Y-13945984D02*
X9272087Y-13745984D01*
X9357801Y-13945984D02*
X9357801Y-13841222D01*
X9357801Y-13841222D02*
X9348277Y-13822174D01*
X9348277Y-13822174D02*
X9329230Y-13812650D01*
X9329230Y-13812650D02*
X9300658Y-13812650D01*
X9300658Y-13812650D02*
X9281611Y-13822174D01*
X9281611Y-13822174D02*
X9272087Y-13831698D01*
X9481611Y-13945984D02*
X9462563Y-13936460D01*
X9462563Y-13936460D02*
X9453039Y-13926936D01*
X9453039Y-13926936D02*
X9443515Y-13907888D01*
X9443515Y-13907888D02*
X9443515Y-13850746D01*
X9443515Y-13850746D02*
X9453039Y-13831698D01*
X9453039Y-13831698D02*
X9462563Y-13822174D01*
X9462563Y-13822174D02*
X9481611Y-13812650D01*
X9481611Y-13812650D02*
X9510182Y-13812650D01*
X9510182Y-13812650D02*
X9529230Y-13822174D01*
X9529230Y-13822174D02*
X9538753Y-13831698D01*
X9538753Y-13831698D02*
X9548277Y-13850746D01*
X9548277Y-13850746D02*
X9548277Y-13907888D01*
X9548277Y-13907888D02*
X9538753Y-13926936D01*
X9538753Y-13926936D02*
X9529230Y-13936460D01*
X9529230Y-13936460D02*
X9510182Y-13945984D01*
X9510182Y-13945984D02*
X9481611Y-13945984D01*
X9662563Y-13945984D02*
X9643515Y-13936460D01*
X9643515Y-13936460D02*
X9633992Y-13917412D01*
X9633992Y-13917412D02*
X9633992Y-13745984D01*
X9814944Y-13936460D02*
X9795896Y-13945984D01*
X9795896Y-13945984D02*
X9757801Y-13945984D01*
X9757801Y-13945984D02*
X9738753Y-13936460D01*
X9738753Y-13936460D02*
X9729230Y-13917412D01*
X9729230Y-13917412D02*
X9729230Y-13841222D01*
X9729230Y-13841222D02*
X9738753Y-13822174D01*
X9738753Y-13822174D02*
X9757801Y-13812650D01*
X9757801Y-13812650D02*
X9795896Y-13812650D01*
X9795896Y-13812650D02*
X9814944Y-13822174D01*
X9814944Y-13822174D02*
X9824468Y-13841222D01*
X9824468Y-13841222D02*
X9824468Y-13860269D01*
X9824468Y-13860269D02*
X9729230Y-13879317D01*
X9900658Y-13936460D02*
X9919706Y-13945984D01*
X9919706Y-13945984D02*
X9957801Y-13945984D01*
X9957801Y-13945984D02*
X9976849Y-13936460D01*
X9976849Y-13936460D02*
X9986373Y-13917412D01*
X9986373Y-13917412D02*
X9986373Y-13907888D01*
X9986373Y-13907888D02*
X9976849Y-13888841D01*
X9976849Y-13888841D02*
X9957801Y-13879317D01*
X9957801Y-13879317D02*
X9929230Y-13879317D01*
X9929230Y-13879317D02*
X9910182Y-13869793D01*
X9910182Y-13869793D02*
X9900658Y-13850746D01*
X9900658Y-13850746D02*
X9900658Y-13841222D01*
X9900658Y-13841222D02*
X9910182Y-13822174D01*
X9910182Y-13822174D02*
X9929230Y-13812650D01*
X9929230Y-13812650D02*
X9957801Y-13812650D01*
X9957801Y-13812650D02*
X9976849Y-13822174D01*
X10053039Y-14022174D02*
X10062563Y-14012650D01*
X10062563Y-14012650D02*
X10081611Y-13984079D01*
X10081611Y-13984079D02*
X10091134Y-13965031D01*
X10091134Y-13965031D02*
X10100658Y-13936460D01*
X10100658Y-13936460D02*
X10110182Y-13888841D01*
X10110182Y-13888841D02*
X10110182Y-13850746D01*
X10110182Y-13850746D02*
X10100658Y-13803127D01*
X10100658Y-13803127D02*
X10091134Y-13774555D01*
X10091134Y-13774555D02*
X10081611Y-13755508D01*
X10081611Y-13755508D02*
X10062563Y-13726936D01*
X10062563Y-13726936D02*
X10053039Y-13717412D01*
D13*
X5011500Y-14194500D02*
X5087500Y-14118500D01*
X5011500Y-14042500D01*
X4935500Y-14118500D01*
X5011500Y-14194500D01*
D11*
X5453039Y-14209984D02*
X5338753Y-14209984D01*
X5395896Y-14209984D02*
X5395896Y-14009984D01*
X5395896Y-14009984D02*
X5376848Y-14038555D01*
X5376848Y-14038555D02*
X5357801Y-14057603D01*
X5357801Y-14057603D02*
X5338753Y-14067127D01*
X5538753Y-14190936D02*
X5548277Y-14200460D01*
X5548277Y-14200460D02*
X5538753Y-14209984D01*
X5538753Y-14209984D02*
X5529229Y-14200460D01*
X5529229Y-14200460D02*
X5538753Y-14190936D01*
X5538753Y-14190936D02*
X5538753Y-14209984D01*
X5729229Y-14009984D02*
X5633991Y-14009984D01*
X5633991Y-14009984D02*
X5624467Y-14105222D01*
X5624467Y-14105222D02*
X5633991Y-14095698D01*
X5633991Y-14095698D02*
X5653039Y-14086174D01*
X5653039Y-14086174D02*
X5700658Y-14086174D01*
X5700658Y-14086174D02*
X5719705Y-14095698D01*
X5719705Y-14095698D02*
X5729229Y-14105222D01*
X5729229Y-14105222D02*
X5738753Y-14124269D01*
X5738753Y-14124269D02*
X5738753Y-14171888D01*
X5738753Y-14171888D02*
X5729229Y-14190936D01*
X5729229Y-14190936D02*
X5719705Y-14200460D01*
X5719705Y-14200460D02*
X5700658Y-14209984D01*
X5700658Y-14209984D02*
X5653039Y-14209984D01*
X5653039Y-14209984D02*
X5633991Y-14200460D01*
X5633991Y-14200460D02*
X5624467Y-14190936D01*
X5814943Y-14029031D02*
X5824467Y-14019508D01*
X5824467Y-14019508D02*
X5843515Y-14009984D01*
X5843515Y-14009984D02*
X5891134Y-14009984D01*
X5891134Y-14009984D02*
X5910182Y-14019508D01*
X5910182Y-14019508D02*
X5919705Y-14029031D01*
X5919705Y-14029031D02*
X5929229Y-14048079D01*
X5929229Y-14048079D02*
X5929229Y-14067127D01*
X5929229Y-14067127D02*
X5919705Y-14095698D01*
X5919705Y-14095698D02*
X5805420Y-14209984D01*
X5805420Y-14209984D02*
X5929229Y-14209984D01*
X6053039Y-14009984D02*
X6072086Y-14009984D01*
X6072086Y-14009984D02*
X6091134Y-14019508D01*
X6091134Y-14019508D02*
X6100658Y-14029031D01*
X6100658Y-14029031D02*
X6110182Y-14048079D01*
X6110182Y-14048079D02*
X6119705Y-14086174D01*
X6119705Y-14086174D02*
X6119705Y-14133793D01*
X6119705Y-14133793D02*
X6110182Y-14171888D01*
X6110182Y-14171888D02*
X6100658Y-14190936D01*
X6100658Y-14190936D02*
X6091134Y-14200460D01*
X6091134Y-14200460D02*
X6072086Y-14209984D01*
X6072086Y-14209984D02*
X6053039Y-14209984D01*
X6053039Y-14209984D02*
X6033991Y-14200460D01*
X6033991Y-14200460D02*
X6024467Y-14190936D01*
X6024467Y-14190936D02*
X6014943Y-14171888D01*
X6014943Y-14171888D02*
X6005420Y-14133793D01*
X6005420Y-14133793D02*
X6005420Y-14086174D01*
X6005420Y-14086174D02*
X6014943Y-14048079D01*
X6014943Y-14048079D02*
X6024467Y-14029031D01*
X6024467Y-14029031D02*
X6033991Y-14019508D01*
X6033991Y-14019508D02*
X6053039Y-14009984D01*
X6205420Y-14209984D02*
X6205420Y-14076650D01*
X6205420Y-14095698D02*
X6214943Y-14086174D01*
X6214943Y-14086174D02*
X6233991Y-14076650D01*
X6233991Y-14076650D02*
X6262563Y-14076650D01*
X6262563Y-14076650D02*
X6281610Y-14086174D01*
X6281610Y-14086174D02*
X6291134Y-14105222D01*
X6291134Y-14105222D02*
X6291134Y-14209984D01*
X6291134Y-14105222D02*
X6300658Y-14086174D01*
X6300658Y-14086174D02*
X6319705Y-14076650D01*
X6319705Y-14076650D02*
X6348277Y-14076650D01*
X6348277Y-14076650D02*
X6367324Y-14086174D01*
X6367324Y-14086174D02*
X6376848Y-14105222D01*
X6376848Y-14105222D02*
X6376848Y-14209984D01*
X6472086Y-14209984D02*
X6472086Y-14076650D01*
X6472086Y-14095698D02*
X6481610Y-14086174D01*
X6481610Y-14086174D02*
X6500658Y-14076650D01*
X6500658Y-14076650D02*
X6529229Y-14076650D01*
X6529229Y-14076650D02*
X6548277Y-14086174D01*
X6548277Y-14086174D02*
X6557801Y-14105222D01*
X6557801Y-14105222D02*
X6557801Y-14209984D01*
X6557801Y-14105222D02*
X6567324Y-14086174D01*
X6567324Y-14086174D02*
X6586372Y-14076650D01*
X6586372Y-14076650D02*
X6614943Y-14076650D01*
X6614943Y-14076650D02*
X6633991Y-14086174D01*
X6633991Y-14086174D02*
X6643515Y-14105222D01*
X6643515Y-14105222D02*
X6643515Y-14209984D01*
X7033991Y-14000460D02*
X6862563Y-14257603D01*
X7291134Y-14009984D02*
X7310182Y-14009984D01*
X7310182Y-14009984D02*
X7329229Y-14019508D01*
X7329229Y-14019508D02*
X7338753Y-14029031D01*
X7338753Y-14029031D02*
X7348277Y-14048079D01*
X7348277Y-14048079D02*
X7357801Y-14086174D01*
X7357801Y-14086174D02*
X7357801Y-14133793D01*
X7357801Y-14133793D02*
X7348277Y-14171888D01*
X7348277Y-14171888D02*
X7338753Y-14190936D01*
X7338753Y-14190936D02*
X7329229Y-14200460D01*
X7329229Y-14200460D02*
X7310182Y-14209984D01*
X7310182Y-14209984D02*
X7291134Y-14209984D01*
X7291134Y-14209984D02*
X7272086Y-14200460D01*
X7272086Y-14200460D02*
X7262563Y-14190936D01*
X7262563Y-14190936D02*
X7253039Y-14171888D01*
X7253039Y-14171888D02*
X7243515Y-14133793D01*
X7243515Y-14133793D02*
X7243515Y-14086174D01*
X7243515Y-14086174D02*
X7253039Y-14048079D01*
X7253039Y-14048079D02*
X7262563Y-14029031D01*
X7262563Y-14029031D02*
X7272086Y-14019508D01*
X7272086Y-14019508D02*
X7291134Y-14009984D01*
X7443515Y-14190936D02*
X7453039Y-14200460D01*
X7453039Y-14200460D02*
X7443515Y-14209984D01*
X7443515Y-14209984D02*
X7433991Y-14200460D01*
X7433991Y-14200460D02*
X7443515Y-14190936D01*
X7443515Y-14190936D02*
X7443515Y-14209984D01*
X7576848Y-14009984D02*
X7595896Y-14009984D01*
X7595896Y-14009984D02*
X7614944Y-14019508D01*
X7614944Y-14019508D02*
X7624467Y-14029031D01*
X7624467Y-14029031D02*
X7633991Y-14048079D01*
X7633991Y-14048079D02*
X7643515Y-14086174D01*
X7643515Y-14086174D02*
X7643515Y-14133793D01*
X7643515Y-14133793D02*
X7633991Y-14171888D01*
X7633991Y-14171888D02*
X7624467Y-14190936D01*
X7624467Y-14190936D02*
X7614944Y-14200460D01*
X7614944Y-14200460D02*
X7595896Y-14209984D01*
X7595896Y-14209984D02*
X7576848Y-14209984D01*
X7576848Y-14209984D02*
X7557801Y-14200460D01*
X7557801Y-14200460D02*
X7548277Y-14190936D01*
X7548277Y-14190936D02*
X7538753Y-14171888D01*
X7538753Y-14171888D02*
X7529229Y-14133793D01*
X7529229Y-14133793D02*
X7529229Y-14086174D01*
X7529229Y-14086174D02*
X7538753Y-14048079D01*
X7538753Y-14048079D02*
X7548277Y-14029031D01*
X7548277Y-14029031D02*
X7557801Y-14019508D01*
X7557801Y-14019508D02*
X7576848Y-14009984D01*
X7824467Y-14009984D02*
X7729229Y-14009984D01*
X7729229Y-14009984D02*
X7719706Y-14105222D01*
X7719706Y-14105222D02*
X7729229Y-14095698D01*
X7729229Y-14095698D02*
X7748277Y-14086174D01*
X7748277Y-14086174D02*
X7795896Y-14086174D01*
X7795896Y-14086174D02*
X7814944Y-14095698D01*
X7814944Y-14095698D02*
X7824467Y-14105222D01*
X7824467Y-14105222D02*
X7833991Y-14124269D01*
X7833991Y-14124269D02*
X7833991Y-14171888D01*
X7833991Y-14171888D02*
X7824467Y-14190936D01*
X7824467Y-14190936D02*
X7814944Y-14200460D01*
X7814944Y-14200460D02*
X7795896Y-14209984D01*
X7795896Y-14209984D02*
X7748277Y-14209984D01*
X7748277Y-14209984D02*
X7729229Y-14200460D01*
X7729229Y-14200460D02*
X7719706Y-14190936D01*
X7929229Y-14209984D02*
X7967325Y-14209984D01*
X7967325Y-14209984D02*
X7986372Y-14200460D01*
X7986372Y-14200460D02*
X7995896Y-14190936D01*
X7995896Y-14190936D02*
X8014944Y-14162365D01*
X8014944Y-14162365D02*
X8024467Y-14124269D01*
X8024467Y-14124269D02*
X8024467Y-14048079D01*
X8024467Y-14048079D02*
X8014944Y-14029031D01*
X8014944Y-14029031D02*
X8005420Y-14019508D01*
X8005420Y-14019508D02*
X7986372Y-14009984D01*
X7986372Y-14009984D02*
X7948277Y-14009984D01*
X7948277Y-14009984D02*
X7929229Y-14019508D01*
X7929229Y-14019508D02*
X7919706Y-14029031D01*
X7919706Y-14029031D02*
X7910182Y-14048079D01*
X7910182Y-14048079D02*
X7910182Y-14095698D01*
X7910182Y-14095698D02*
X7919706Y-14114746D01*
X7919706Y-14114746D02*
X7929229Y-14124269D01*
X7929229Y-14124269D02*
X7948277Y-14133793D01*
X7948277Y-14133793D02*
X7986372Y-14133793D01*
X7986372Y-14133793D02*
X8005420Y-14124269D01*
X8005420Y-14124269D02*
X8014944Y-14114746D01*
X8014944Y-14114746D02*
X8024467Y-14095698D01*
X8138753Y-14095698D02*
X8119706Y-14086174D01*
X8119706Y-14086174D02*
X8110182Y-14076650D01*
X8110182Y-14076650D02*
X8100658Y-14057603D01*
X8100658Y-14057603D02*
X8100658Y-14048079D01*
X8100658Y-14048079D02*
X8110182Y-14029031D01*
X8110182Y-14029031D02*
X8119706Y-14019508D01*
X8119706Y-14019508D02*
X8138753Y-14009984D01*
X8138753Y-14009984D02*
X8176848Y-14009984D01*
X8176848Y-14009984D02*
X8195896Y-14019508D01*
X8195896Y-14019508D02*
X8205420Y-14029031D01*
X8205420Y-14029031D02*
X8214944Y-14048079D01*
X8214944Y-14048079D02*
X8214944Y-14057603D01*
X8214944Y-14057603D02*
X8205420Y-14076650D01*
X8205420Y-14076650D02*
X8195896Y-14086174D01*
X8195896Y-14086174D02*
X8176848Y-14095698D01*
X8176848Y-14095698D02*
X8138753Y-14095698D01*
X8138753Y-14095698D02*
X8119706Y-14105222D01*
X8119706Y-14105222D02*
X8110182Y-14114746D01*
X8110182Y-14114746D02*
X8100658Y-14133793D01*
X8100658Y-14133793D02*
X8100658Y-14171888D01*
X8100658Y-14171888D02*
X8110182Y-14190936D01*
X8110182Y-14190936D02*
X8119706Y-14200460D01*
X8119706Y-14200460D02*
X8138753Y-14209984D01*
X8138753Y-14209984D02*
X8176848Y-14209984D01*
X8176848Y-14209984D02*
X8195896Y-14200460D01*
X8195896Y-14200460D02*
X8205420Y-14190936D01*
X8205420Y-14190936D02*
X8214944Y-14171888D01*
X8214944Y-14171888D02*
X8214944Y-14133793D01*
X8214944Y-14133793D02*
X8205420Y-14114746D01*
X8205420Y-14114746D02*
X8195896Y-14105222D01*
X8195896Y-14105222D02*
X8176848Y-14095698D01*
X8291134Y-14009984D02*
X8291134Y-14048079D01*
X8367325Y-14009984D02*
X8367325Y-14048079D01*
X8662563Y-14286174D02*
X8653039Y-14276650D01*
X8653039Y-14276650D02*
X8633991Y-14248079D01*
X8633991Y-14248079D02*
X8624468Y-14229031D01*
X8624468Y-14229031D02*
X8614944Y-14200460D01*
X8614944Y-14200460D02*
X8605420Y-14152841D01*
X8605420Y-14152841D02*
X8605420Y-14114746D01*
X8605420Y-14114746D02*
X8614944Y-14067127D01*
X8614944Y-14067127D02*
X8624468Y-14038555D01*
X8624468Y-14038555D02*
X8633991Y-14019508D01*
X8633991Y-14019508D02*
X8653039Y-13990936D01*
X8653039Y-13990936D02*
X8662563Y-13981412D01*
X8729230Y-14029031D02*
X8738753Y-14019508D01*
X8738753Y-14019508D02*
X8757801Y-14009984D01*
X8757801Y-14009984D02*
X8805420Y-14009984D01*
X8805420Y-14009984D02*
X8824468Y-14019508D01*
X8824468Y-14019508D02*
X8833991Y-14029031D01*
X8833991Y-14029031D02*
X8843515Y-14048079D01*
X8843515Y-14048079D02*
X8843515Y-14067127D01*
X8843515Y-14067127D02*
X8833991Y-14095698D01*
X8833991Y-14095698D02*
X8719706Y-14209984D01*
X8719706Y-14209984D02*
X8843515Y-14209984D01*
X9081611Y-14209984D02*
X9081611Y-14009984D01*
X9167325Y-14209984D02*
X9167325Y-14105222D01*
X9167325Y-14105222D02*
X9157801Y-14086174D01*
X9157801Y-14086174D02*
X9138753Y-14076650D01*
X9138753Y-14076650D02*
X9110182Y-14076650D01*
X9110182Y-14076650D02*
X9091134Y-14086174D01*
X9091134Y-14086174D02*
X9081611Y-14095698D01*
X9291134Y-14209984D02*
X9272087Y-14200460D01*
X9272087Y-14200460D02*
X9262563Y-14190936D01*
X9262563Y-14190936D02*
X9253039Y-14171888D01*
X9253039Y-14171888D02*
X9253039Y-14114746D01*
X9253039Y-14114746D02*
X9262563Y-14095698D01*
X9262563Y-14095698D02*
X9272087Y-14086174D01*
X9272087Y-14086174D02*
X9291134Y-14076650D01*
X9291134Y-14076650D02*
X9319706Y-14076650D01*
X9319706Y-14076650D02*
X9338753Y-14086174D01*
X9338753Y-14086174D02*
X9348277Y-14095698D01*
X9348277Y-14095698D02*
X9357801Y-14114746D01*
X9357801Y-14114746D02*
X9357801Y-14171888D01*
X9357801Y-14171888D02*
X9348277Y-14190936D01*
X9348277Y-14190936D02*
X9338753Y-14200460D01*
X9338753Y-14200460D02*
X9319706Y-14209984D01*
X9319706Y-14209984D02*
X9291134Y-14209984D01*
X9472087Y-14209984D02*
X9453039Y-14200460D01*
X9453039Y-14200460D02*
X9443515Y-14181412D01*
X9443515Y-14181412D02*
X9443515Y-14009984D01*
X9624468Y-14200460D02*
X9605420Y-14209984D01*
X9605420Y-14209984D02*
X9567325Y-14209984D01*
X9567325Y-14209984D02*
X9548277Y-14200460D01*
X9548277Y-14200460D02*
X9538753Y-14181412D01*
X9538753Y-14181412D02*
X9538753Y-14105222D01*
X9538753Y-14105222D02*
X9548277Y-14086174D01*
X9548277Y-14086174D02*
X9567325Y-14076650D01*
X9567325Y-14076650D02*
X9605420Y-14076650D01*
X9605420Y-14076650D02*
X9624468Y-14086174D01*
X9624468Y-14086174D02*
X9633992Y-14105222D01*
X9633992Y-14105222D02*
X9633992Y-14124269D01*
X9633992Y-14124269D02*
X9538753Y-14143317D01*
X9710182Y-14200460D02*
X9729230Y-14209984D01*
X9729230Y-14209984D02*
X9767325Y-14209984D01*
X9767325Y-14209984D02*
X9786373Y-14200460D01*
X9786373Y-14200460D02*
X9795896Y-14181412D01*
X9795896Y-14181412D02*
X9795896Y-14171888D01*
X9795896Y-14171888D02*
X9786373Y-14152841D01*
X9786373Y-14152841D02*
X9767325Y-14143317D01*
X9767325Y-14143317D02*
X9738753Y-14143317D01*
X9738753Y-14143317D02*
X9719706Y-14133793D01*
X9719706Y-14133793D02*
X9710182Y-14114746D01*
X9710182Y-14114746D02*
X9710182Y-14105222D01*
X9710182Y-14105222D02*
X9719706Y-14086174D01*
X9719706Y-14086174D02*
X9738753Y-14076650D01*
X9738753Y-14076650D02*
X9767325Y-14076650D01*
X9767325Y-14076650D02*
X9786373Y-14086174D01*
X9862563Y-14286174D02*
X9872087Y-14276650D01*
X9872087Y-14276650D02*
X9891134Y-14248079D01*
X9891134Y-14248079D02*
X9900658Y-14229031D01*
X9900658Y-14229031D02*
X9910182Y-14200460D01*
X9910182Y-14200460D02*
X9919706Y-14152841D01*
X9919706Y-14152841D02*
X9919706Y-14114746D01*
X9919706Y-14114746D02*
X9910182Y-14067127D01*
X9910182Y-14067127D02*
X9900658Y-14038555D01*
X9900658Y-14038555D02*
X9891134Y-14019508D01*
X9891134Y-14019508D02*
X9872087Y-13990936D01*
X9872087Y-13990936D02*
X9862563Y-13981412D01*
D14*
X4907500Y-14300500D02*
X5087500Y-14480500D01*
X5087500Y-14300500D02*
X4907500Y-14480500D01*
X5087500Y-14390500D02*
G75*
G02*
X4907500Y-14390500I-90000J0D01*
G01*
X4907500Y-14390500D02*
G75*
G02*
X5087500Y-14390500I90000J0D01*
G01*
D11*
X5453039Y-14481984D02*
X5338753Y-14481984D01*
X5395896Y-14481984D02*
X5395896Y-14281984D01*
X5395896Y-14281984D02*
X5376848Y-14310555D01*
X5376848Y-14310555D02*
X5357801Y-14329603D01*
X5357801Y-14329603D02*
X5338753Y-14339127D01*
X5538753Y-14462936D02*
X5548277Y-14472460D01*
X5548277Y-14472460D02*
X5538753Y-14481984D01*
X5538753Y-14481984D02*
X5529229Y-14472460D01*
X5529229Y-14472460D02*
X5538753Y-14462936D01*
X5538753Y-14462936D02*
X5538753Y-14481984D01*
X5662562Y-14367698D02*
X5643515Y-14358174D01*
X5643515Y-14358174D02*
X5633991Y-14348650D01*
X5633991Y-14348650D02*
X5624467Y-14329603D01*
X5624467Y-14329603D02*
X5624467Y-14320079D01*
X5624467Y-14320079D02*
X5633991Y-14301031D01*
X5633991Y-14301031D02*
X5643515Y-14291508D01*
X5643515Y-14291508D02*
X5662562Y-14281984D01*
X5662562Y-14281984D02*
X5700658Y-14281984D01*
X5700658Y-14281984D02*
X5719705Y-14291508D01*
X5719705Y-14291508D02*
X5729229Y-14301031D01*
X5729229Y-14301031D02*
X5738753Y-14320079D01*
X5738753Y-14320079D02*
X5738753Y-14329603D01*
X5738753Y-14329603D02*
X5729229Y-14348650D01*
X5729229Y-14348650D02*
X5719705Y-14358174D01*
X5719705Y-14358174D02*
X5700658Y-14367698D01*
X5700658Y-14367698D02*
X5662562Y-14367698D01*
X5662562Y-14367698D02*
X5643515Y-14377222D01*
X5643515Y-14377222D02*
X5633991Y-14386746D01*
X5633991Y-14386746D02*
X5624467Y-14405793D01*
X5624467Y-14405793D02*
X5624467Y-14443888D01*
X5624467Y-14443888D02*
X5633991Y-14462936D01*
X5633991Y-14462936D02*
X5643515Y-14472460D01*
X5643515Y-14472460D02*
X5662562Y-14481984D01*
X5662562Y-14481984D02*
X5700658Y-14481984D01*
X5700658Y-14481984D02*
X5719705Y-14472460D01*
X5719705Y-14472460D02*
X5729229Y-14462936D01*
X5729229Y-14462936D02*
X5738753Y-14443888D01*
X5738753Y-14443888D02*
X5738753Y-14405793D01*
X5738753Y-14405793D02*
X5729229Y-14386746D01*
X5729229Y-14386746D02*
X5719705Y-14377222D01*
X5719705Y-14377222D02*
X5700658Y-14367698D01*
X5862562Y-14281984D02*
X5881610Y-14281984D01*
X5881610Y-14281984D02*
X5900658Y-14291508D01*
X5900658Y-14291508D02*
X5910182Y-14301031D01*
X5910182Y-14301031D02*
X5919705Y-14320079D01*
X5919705Y-14320079D02*
X5929229Y-14358174D01*
X5929229Y-14358174D02*
X5929229Y-14405793D01*
X5929229Y-14405793D02*
X5919705Y-14443888D01*
X5919705Y-14443888D02*
X5910182Y-14462936D01*
X5910182Y-14462936D02*
X5900658Y-14472460D01*
X5900658Y-14472460D02*
X5881610Y-14481984D01*
X5881610Y-14481984D02*
X5862562Y-14481984D01*
X5862562Y-14481984D02*
X5843515Y-14472460D01*
X5843515Y-14472460D02*
X5833991Y-14462936D01*
X5833991Y-14462936D02*
X5824467Y-14443888D01*
X5824467Y-14443888D02*
X5814943Y-14405793D01*
X5814943Y-14405793D02*
X5814943Y-14358174D01*
X5814943Y-14358174D02*
X5824467Y-14320079D01*
X5824467Y-14320079D02*
X5833991Y-14301031D01*
X5833991Y-14301031D02*
X5843515Y-14291508D01*
X5843515Y-14291508D02*
X5862562Y-14281984D01*
X6053039Y-14281984D02*
X6072086Y-14281984D01*
X6072086Y-14281984D02*
X6091134Y-14291508D01*
X6091134Y-14291508D02*
X6100658Y-14301031D01*
X6100658Y-14301031D02*
X6110182Y-14320079D01*
X6110182Y-14320079D02*
X6119705Y-14358174D01*
X6119705Y-14358174D02*
X6119705Y-14405793D01*
X6119705Y-14405793D02*
X6110182Y-14443888D01*
X6110182Y-14443888D02*
X6100658Y-14462936D01*
X6100658Y-14462936D02*
X6091134Y-14472460D01*
X6091134Y-14472460D02*
X6072086Y-14481984D01*
X6072086Y-14481984D02*
X6053039Y-14481984D01*
X6053039Y-14481984D02*
X6033991Y-14472460D01*
X6033991Y-14472460D02*
X6024467Y-14462936D01*
X6024467Y-14462936D02*
X6014943Y-14443888D01*
X6014943Y-14443888D02*
X6005420Y-14405793D01*
X6005420Y-14405793D02*
X6005420Y-14358174D01*
X6005420Y-14358174D02*
X6014943Y-14320079D01*
X6014943Y-14320079D02*
X6024467Y-14301031D01*
X6024467Y-14301031D02*
X6033991Y-14291508D01*
X6033991Y-14291508D02*
X6053039Y-14281984D01*
X6205420Y-14481984D02*
X6205420Y-14348650D01*
X6205420Y-14367698D02*
X6214943Y-14358174D01*
X6214943Y-14358174D02*
X6233991Y-14348650D01*
X6233991Y-14348650D02*
X6262563Y-14348650D01*
X6262563Y-14348650D02*
X6281610Y-14358174D01*
X6281610Y-14358174D02*
X6291134Y-14377222D01*
X6291134Y-14377222D02*
X6291134Y-14481984D01*
X6291134Y-14377222D02*
X6300658Y-14358174D01*
X6300658Y-14358174D02*
X6319705Y-14348650D01*
X6319705Y-14348650D02*
X6348277Y-14348650D01*
X6348277Y-14348650D02*
X6367324Y-14358174D01*
X6367324Y-14358174D02*
X6376848Y-14377222D01*
X6376848Y-14377222D02*
X6376848Y-14481984D01*
X6472086Y-14481984D02*
X6472086Y-14348650D01*
X6472086Y-14367698D02*
X6481610Y-14358174D01*
X6481610Y-14358174D02*
X6500658Y-14348650D01*
X6500658Y-14348650D02*
X6529229Y-14348650D01*
X6529229Y-14348650D02*
X6548277Y-14358174D01*
X6548277Y-14358174D02*
X6557801Y-14377222D01*
X6557801Y-14377222D02*
X6557801Y-14481984D01*
X6557801Y-14377222D02*
X6567324Y-14358174D01*
X6567324Y-14358174D02*
X6586372Y-14348650D01*
X6586372Y-14348650D02*
X6614943Y-14348650D01*
X6614943Y-14348650D02*
X6633991Y-14358174D01*
X6633991Y-14358174D02*
X6643515Y-14377222D01*
X6643515Y-14377222D02*
X6643515Y-14481984D01*
X7033991Y-14272460D02*
X6862563Y-14529603D01*
X7291134Y-14281984D02*
X7310182Y-14281984D01*
X7310182Y-14281984D02*
X7329229Y-14291508D01*
X7329229Y-14291508D02*
X7338753Y-14301031D01*
X7338753Y-14301031D02*
X7348277Y-14320079D01*
X7348277Y-14320079D02*
X7357801Y-14358174D01*
X7357801Y-14358174D02*
X7357801Y-14405793D01*
X7357801Y-14405793D02*
X7348277Y-14443888D01*
X7348277Y-14443888D02*
X7338753Y-14462936D01*
X7338753Y-14462936D02*
X7329229Y-14472460D01*
X7329229Y-14472460D02*
X7310182Y-14481984D01*
X7310182Y-14481984D02*
X7291134Y-14481984D01*
X7291134Y-14481984D02*
X7272086Y-14472460D01*
X7272086Y-14472460D02*
X7262563Y-14462936D01*
X7262563Y-14462936D02*
X7253039Y-14443888D01*
X7253039Y-14443888D02*
X7243515Y-14405793D01*
X7243515Y-14405793D02*
X7243515Y-14358174D01*
X7243515Y-14358174D02*
X7253039Y-14320079D01*
X7253039Y-14320079D02*
X7262563Y-14301031D01*
X7262563Y-14301031D02*
X7272086Y-14291508D01*
X7272086Y-14291508D02*
X7291134Y-14281984D01*
X7443515Y-14462936D02*
X7453039Y-14472460D01*
X7453039Y-14472460D02*
X7443515Y-14481984D01*
X7443515Y-14481984D02*
X7433991Y-14472460D01*
X7433991Y-14472460D02*
X7443515Y-14462936D01*
X7443515Y-14462936D02*
X7443515Y-14481984D01*
X7576848Y-14281984D02*
X7595896Y-14281984D01*
X7595896Y-14281984D02*
X7614944Y-14291508D01*
X7614944Y-14291508D02*
X7624467Y-14301031D01*
X7624467Y-14301031D02*
X7633991Y-14320079D01*
X7633991Y-14320079D02*
X7643515Y-14358174D01*
X7643515Y-14358174D02*
X7643515Y-14405793D01*
X7643515Y-14405793D02*
X7633991Y-14443888D01*
X7633991Y-14443888D02*
X7624467Y-14462936D01*
X7624467Y-14462936D02*
X7614944Y-14472460D01*
X7614944Y-14472460D02*
X7595896Y-14481984D01*
X7595896Y-14481984D02*
X7576848Y-14481984D01*
X7576848Y-14481984D02*
X7557801Y-14472460D01*
X7557801Y-14472460D02*
X7548277Y-14462936D01*
X7548277Y-14462936D02*
X7538753Y-14443888D01*
X7538753Y-14443888D02*
X7529229Y-14405793D01*
X7529229Y-14405793D02*
X7529229Y-14358174D01*
X7529229Y-14358174D02*
X7538753Y-14320079D01*
X7538753Y-14320079D02*
X7548277Y-14301031D01*
X7548277Y-14301031D02*
X7557801Y-14291508D01*
X7557801Y-14291508D02*
X7576848Y-14281984D01*
X7710182Y-14281984D02*
X7843515Y-14281984D01*
X7843515Y-14281984D02*
X7757801Y-14481984D01*
X7957801Y-14281984D02*
X7976848Y-14281984D01*
X7976848Y-14281984D02*
X7995896Y-14291508D01*
X7995896Y-14291508D02*
X8005420Y-14301031D01*
X8005420Y-14301031D02*
X8014944Y-14320079D01*
X8014944Y-14320079D02*
X8024467Y-14358174D01*
X8024467Y-14358174D02*
X8024467Y-14405793D01*
X8024467Y-14405793D02*
X8014944Y-14443888D01*
X8014944Y-14443888D02*
X8005420Y-14462936D01*
X8005420Y-14462936D02*
X7995896Y-14472460D01*
X7995896Y-14472460D02*
X7976848Y-14481984D01*
X7976848Y-14481984D02*
X7957801Y-14481984D01*
X7957801Y-14481984D02*
X7938753Y-14472460D01*
X7938753Y-14472460D02*
X7929229Y-14462936D01*
X7929229Y-14462936D02*
X7919706Y-14443888D01*
X7919706Y-14443888D02*
X7910182Y-14405793D01*
X7910182Y-14405793D02*
X7910182Y-14358174D01*
X7910182Y-14358174D02*
X7919706Y-14320079D01*
X7919706Y-14320079D02*
X7929229Y-14301031D01*
X7929229Y-14301031D02*
X7938753Y-14291508D01*
X7938753Y-14291508D02*
X7957801Y-14281984D01*
X8119706Y-14481984D02*
X8157801Y-14481984D01*
X8157801Y-14481984D02*
X8176848Y-14472460D01*
X8176848Y-14472460D02*
X8186372Y-14462936D01*
X8186372Y-14462936D02*
X8205420Y-14434365D01*
X8205420Y-14434365D02*
X8214944Y-14396269D01*
X8214944Y-14396269D02*
X8214944Y-14320079D01*
X8214944Y-14320079D02*
X8205420Y-14301031D01*
X8205420Y-14301031D02*
X8195896Y-14291508D01*
X8195896Y-14291508D02*
X8176848Y-14281984D01*
X8176848Y-14281984D02*
X8138753Y-14281984D01*
X8138753Y-14281984D02*
X8119706Y-14291508D01*
X8119706Y-14291508D02*
X8110182Y-14301031D01*
X8110182Y-14301031D02*
X8100658Y-14320079D01*
X8100658Y-14320079D02*
X8100658Y-14367698D01*
X8100658Y-14367698D02*
X8110182Y-14386746D01*
X8110182Y-14386746D02*
X8119706Y-14396269D01*
X8119706Y-14396269D02*
X8138753Y-14405793D01*
X8138753Y-14405793D02*
X8176848Y-14405793D01*
X8176848Y-14405793D02*
X8195896Y-14396269D01*
X8195896Y-14396269D02*
X8205420Y-14386746D01*
X8205420Y-14386746D02*
X8214944Y-14367698D01*
X8291134Y-14281984D02*
X8291134Y-14320079D01*
X8367325Y-14281984D02*
X8367325Y-14320079D01*
X8662563Y-14558174D02*
X8653039Y-14548650D01*
X8653039Y-14548650D02*
X8633991Y-14520079D01*
X8633991Y-14520079D02*
X8624468Y-14501031D01*
X8624468Y-14501031D02*
X8614944Y-14472460D01*
X8614944Y-14472460D02*
X8605420Y-14424841D01*
X8605420Y-14424841D02*
X8605420Y-14386746D01*
X8605420Y-14386746D02*
X8614944Y-14339127D01*
X8614944Y-14339127D02*
X8624468Y-14310555D01*
X8624468Y-14310555D02*
X8633991Y-14291508D01*
X8633991Y-14291508D02*
X8653039Y-14262936D01*
X8653039Y-14262936D02*
X8662563Y-14253412D01*
X8843515Y-14481984D02*
X8729230Y-14481984D01*
X8786372Y-14481984D02*
X8786372Y-14281984D01*
X8786372Y-14281984D02*
X8767325Y-14310555D01*
X8767325Y-14310555D02*
X8748277Y-14329603D01*
X8748277Y-14329603D02*
X8729230Y-14339127D01*
X9024468Y-14281984D02*
X8929230Y-14281984D01*
X8929230Y-14281984D02*
X8919706Y-14377222D01*
X8919706Y-14377222D02*
X8929230Y-14367698D01*
X8929230Y-14367698D02*
X8948277Y-14358174D01*
X8948277Y-14358174D02*
X8995896Y-14358174D01*
X8995896Y-14358174D02*
X9014944Y-14367698D01*
X9014944Y-14367698D02*
X9024468Y-14377222D01*
X9024468Y-14377222D02*
X9033991Y-14396269D01*
X9033991Y-14396269D02*
X9033991Y-14443888D01*
X9033991Y-14443888D02*
X9024468Y-14462936D01*
X9024468Y-14462936D02*
X9014944Y-14472460D01*
X9014944Y-14472460D02*
X8995896Y-14481984D01*
X8995896Y-14481984D02*
X8948277Y-14481984D01*
X8948277Y-14481984D02*
X8929230Y-14472460D01*
X8929230Y-14472460D02*
X8919706Y-14462936D01*
X9272087Y-14481984D02*
X9272087Y-14281984D01*
X9357801Y-14481984D02*
X9357801Y-14377222D01*
X9357801Y-14377222D02*
X9348277Y-14358174D01*
X9348277Y-14358174D02*
X9329230Y-14348650D01*
X9329230Y-14348650D02*
X9300658Y-14348650D01*
X9300658Y-14348650D02*
X9281611Y-14358174D01*
X9281611Y-14358174D02*
X9272087Y-14367698D01*
X9481611Y-14481984D02*
X9462563Y-14472460D01*
X9462563Y-14472460D02*
X9453039Y-14462936D01*
X9453039Y-14462936D02*
X9443515Y-14443888D01*
X9443515Y-14443888D02*
X9443515Y-14386746D01*
X9443515Y-14386746D02*
X9453039Y-14367698D01*
X9453039Y-14367698D02*
X9462563Y-14358174D01*
X9462563Y-14358174D02*
X9481611Y-14348650D01*
X9481611Y-14348650D02*
X9510182Y-14348650D01*
X9510182Y-14348650D02*
X9529230Y-14358174D01*
X9529230Y-14358174D02*
X9538753Y-14367698D01*
X9538753Y-14367698D02*
X9548277Y-14386746D01*
X9548277Y-14386746D02*
X9548277Y-14443888D01*
X9548277Y-14443888D02*
X9538753Y-14462936D01*
X9538753Y-14462936D02*
X9529230Y-14472460D01*
X9529230Y-14472460D02*
X9510182Y-14481984D01*
X9510182Y-14481984D02*
X9481611Y-14481984D01*
X9662563Y-14481984D02*
X9643515Y-14472460D01*
X9643515Y-14472460D02*
X9633992Y-14453412D01*
X9633992Y-14453412D02*
X9633992Y-14281984D01*
X9814944Y-14472460D02*
X9795896Y-14481984D01*
X9795896Y-14481984D02*
X9757801Y-14481984D01*
X9757801Y-14481984D02*
X9738753Y-14472460D01*
X9738753Y-14472460D02*
X9729230Y-14453412D01*
X9729230Y-14453412D02*
X9729230Y-14377222D01*
X9729230Y-14377222D02*
X9738753Y-14358174D01*
X9738753Y-14358174D02*
X9757801Y-14348650D01*
X9757801Y-14348650D02*
X9795896Y-14348650D01*
X9795896Y-14348650D02*
X9814944Y-14358174D01*
X9814944Y-14358174D02*
X9824468Y-14377222D01*
X9824468Y-14377222D02*
X9824468Y-14396269D01*
X9824468Y-14396269D02*
X9729230Y-14415317D01*
X9900658Y-14472460D02*
X9919706Y-14481984D01*
X9919706Y-14481984D02*
X9957801Y-14481984D01*
X9957801Y-14481984D02*
X9976849Y-14472460D01*
X9976849Y-14472460D02*
X9986373Y-14453412D01*
X9986373Y-14453412D02*
X9986373Y-14443888D01*
X9986373Y-14443888D02*
X9976849Y-14424841D01*
X9976849Y-14424841D02*
X9957801Y-14415317D01*
X9957801Y-14415317D02*
X9929230Y-14415317D01*
X9929230Y-14415317D02*
X9910182Y-14405793D01*
X9910182Y-14405793D02*
X9900658Y-14386746D01*
X9900658Y-14386746D02*
X9900658Y-14377222D01*
X9900658Y-14377222D02*
X9910182Y-14358174D01*
X9910182Y-14358174D02*
X9929230Y-14348650D01*
X9929230Y-14348650D02*
X9957801Y-14348650D01*
X9957801Y-14348650D02*
X9976849Y-14358174D01*
X10053039Y-14558174D02*
X10062563Y-14548650D01*
X10062563Y-14548650D02*
X10081611Y-14520079D01*
X10081611Y-14520079D02*
X10091134Y-14501031D01*
X10091134Y-14501031D02*
X10100658Y-14472460D01*
X10100658Y-14472460D02*
X10110182Y-14424841D01*
X10110182Y-14424841D02*
X10110182Y-14386746D01*
X10110182Y-14386746D02*
X10100658Y-14339127D01*
X10100658Y-14339127D02*
X10091134Y-14310555D01*
X10091134Y-14310555D02*
X10081611Y-14291508D01*
X10081611Y-14291508D02*
X10062563Y-14262936D01*
X10062563Y-14262936D02*
X10053039Y-14253412D01*
D15*
X4897500Y-14595500D02*
X5087500Y-14785500D01*
X5087500Y-14595500D02*
X4897500Y-14785500D01*
X4992500Y-14595500D02*
X4992500Y-14785500D01*
X4897500Y-14690500D02*
X5087500Y-14690500D01*
D11*
X5453039Y-14781984D02*
X5338753Y-14781984D01*
X5395896Y-14781984D02*
X5395896Y-14581984D01*
X5395896Y-14581984D02*
X5376848Y-14610555D01*
X5376848Y-14610555D02*
X5357801Y-14629603D01*
X5357801Y-14629603D02*
X5338753Y-14639127D01*
X5538753Y-14762936D02*
X5548277Y-14772460D01*
X5548277Y-14772460D02*
X5538753Y-14781984D01*
X5538753Y-14781984D02*
X5529229Y-14772460D01*
X5529229Y-14772460D02*
X5538753Y-14762936D01*
X5538753Y-14762936D02*
X5538753Y-14781984D01*
X5643515Y-14781984D02*
X5681610Y-14781984D01*
X5681610Y-14781984D02*
X5700658Y-14772460D01*
X5700658Y-14772460D02*
X5710182Y-14762936D01*
X5710182Y-14762936D02*
X5729229Y-14734365D01*
X5729229Y-14734365D02*
X5738753Y-14696269D01*
X5738753Y-14696269D02*
X5738753Y-14620079D01*
X5738753Y-14620079D02*
X5729229Y-14601031D01*
X5729229Y-14601031D02*
X5719705Y-14591508D01*
X5719705Y-14591508D02*
X5700658Y-14581984D01*
X5700658Y-14581984D02*
X5662562Y-14581984D01*
X5662562Y-14581984D02*
X5643515Y-14591508D01*
X5643515Y-14591508D02*
X5633991Y-14601031D01*
X5633991Y-14601031D02*
X5624467Y-14620079D01*
X5624467Y-14620079D02*
X5624467Y-14667698D01*
X5624467Y-14667698D02*
X5633991Y-14686746D01*
X5633991Y-14686746D02*
X5643515Y-14696269D01*
X5643515Y-14696269D02*
X5662562Y-14705793D01*
X5662562Y-14705793D02*
X5700658Y-14705793D01*
X5700658Y-14705793D02*
X5719705Y-14696269D01*
X5719705Y-14696269D02*
X5729229Y-14686746D01*
X5729229Y-14686746D02*
X5738753Y-14667698D01*
X5862562Y-14581984D02*
X5881610Y-14581984D01*
X5881610Y-14581984D02*
X5900658Y-14591508D01*
X5900658Y-14591508D02*
X5910182Y-14601031D01*
X5910182Y-14601031D02*
X5919705Y-14620079D01*
X5919705Y-14620079D02*
X5929229Y-14658174D01*
X5929229Y-14658174D02*
X5929229Y-14705793D01*
X5929229Y-14705793D02*
X5919705Y-14743888D01*
X5919705Y-14743888D02*
X5910182Y-14762936D01*
X5910182Y-14762936D02*
X5900658Y-14772460D01*
X5900658Y-14772460D02*
X5881610Y-14781984D01*
X5881610Y-14781984D02*
X5862562Y-14781984D01*
X5862562Y-14781984D02*
X5843515Y-14772460D01*
X5843515Y-14772460D02*
X5833991Y-14762936D01*
X5833991Y-14762936D02*
X5824467Y-14743888D01*
X5824467Y-14743888D02*
X5814943Y-14705793D01*
X5814943Y-14705793D02*
X5814943Y-14658174D01*
X5814943Y-14658174D02*
X5824467Y-14620079D01*
X5824467Y-14620079D02*
X5833991Y-14601031D01*
X5833991Y-14601031D02*
X5843515Y-14591508D01*
X5843515Y-14591508D02*
X5862562Y-14581984D01*
X6053039Y-14581984D02*
X6072086Y-14581984D01*
X6072086Y-14581984D02*
X6091134Y-14591508D01*
X6091134Y-14591508D02*
X6100658Y-14601031D01*
X6100658Y-14601031D02*
X6110182Y-14620079D01*
X6110182Y-14620079D02*
X6119705Y-14658174D01*
X6119705Y-14658174D02*
X6119705Y-14705793D01*
X6119705Y-14705793D02*
X6110182Y-14743888D01*
X6110182Y-14743888D02*
X6100658Y-14762936D01*
X6100658Y-14762936D02*
X6091134Y-14772460D01*
X6091134Y-14772460D02*
X6072086Y-14781984D01*
X6072086Y-14781984D02*
X6053039Y-14781984D01*
X6053039Y-14781984D02*
X6033991Y-14772460D01*
X6033991Y-14772460D02*
X6024467Y-14762936D01*
X6024467Y-14762936D02*
X6014943Y-14743888D01*
X6014943Y-14743888D02*
X6005420Y-14705793D01*
X6005420Y-14705793D02*
X6005420Y-14658174D01*
X6005420Y-14658174D02*
X6014943Y-14620079D01*
X6014943Y-14620079D02*
X6024467Y-14601031D01*
X6024467Y-14601031D02*
X6033991Y-14591508D01*
X6033991Y-14591508D02*
X6053039Y-14581984D01*
X6205420Y-14781984D02*
X6205420Y-14648650D01*
X6205420Y-14667698D02*
X6214943Y-14658174D01*
X6214943Y-14658174D02*
X6233991Y-14648650D01*
X6233991Y-14648650D02*
X6262563Y-14648650D01*
X6262563Y-14648650D02*
X6281610Y-14658174D01*
X6281610Y-14658174D02*
X6291134Y-14677222D01*
X6291134Y-14677222D02*
X6291134Y-14781984D01*
X6291134Y-14677222D02*
X6300658Y-14658174D01*
X6300658Y-14658174D02*
X6319705Y-14648650D01*
X6319705Y-14648650D02*
X6348277Y-14648650D01*
X6348277Y-14648650D02*
X6367324Y-14658174D01*
X6367324Y-14658174D02*
X6376848Y-14677222D01*
X6376848Y-14677222D02*
X6376848Y-14781984D01*
X6472086Y-14781984D02*
X6472086Y-14648650D01*
X6472086Y-14667698D02*
X6481610Y-14658174D01*
X6481610Y-14658174D02*
X6500658Y-14648650D01*
X6500658Y-14648650D02*
X6529229Y-14648650D01*
X6529229Y-14648650D02*
X6548277Y-14658174D01*
X6548277Y-14658174D02*
X6557801Y-14677222D01*
X6557801Y-14677222D02*
X6557801Y-14781984D01*
X6557801Y-14677222D02*
X6567324Y-14658174D01*
X6567324Y-14658174D02*
X6586372Y-14648650D01*
X6586372Y-14648650D02*
X6614943Y-14648650D01*
X6614943Y-14648650D02*
X6633991Y-14658174D01*
X6633991Y-14658174D02*
X6643515Y-14677222D01*
X6643515Y-14677222D02*
X6643515Y-14781984D01*
X7033991Y-14572460D02*
X6862563Y-14829603D01*
X7291134Y-14581984D02*
X7310182Y-14581984D01*
X7310182Y-14581984D02*
X7329229Y-14591508D01*
X7329229Y-14591508D02*
X7338753Y-14601031D01*
X7338753Y-14601031D02*
X7348277Y-14620079D01*
X7348277Y-14620079D02*
X7357801Y-14658174D01*
X7357801Y-14658174D02*
X7357801Y-14705793D01*
X7357801Y-14705793D02*
X7348277Y-14743888D01*
X7348277Y-14743888D02*
X7338753Y-14762936D01*
X7338753Y-14762936D02*
X7329229Y-14772460D01*
X7329229Y-14772460D02*
X7310182Y-14781984D01*
X7310182Y-14781984D02*
X7291134Y-14781984D01*
X7291134Y-14781984D02*
X7272086Y-14772460D01*
X7272086Y-14772460D02*
X7262563Y-14762936D01*
X7262563Y-14762936D02*
X7253039Y-14743888D01*
X7253039Y-14743888D02*
X7243515Y-14705793D01*
X7243515Y-14705793D02*
X7243515Y-14658174D01*
X7243515Y-14658174D02*
X7253039Y-14620079D01*
X7253039Y-14620079D02*
X7262563Y-14601031D01*
X7262563Y-14601031D02*
X7272086Y-14591508D01*
X7272086Y-14591508D02*
X7291134Y-14581984D01*
X7443515Y-14762936D02*
X7453039Y-14772460D01*
X7453039Y-14772460D02*
X7443515Y-14781984D01*
X7443515Y-14781984D02*
X7433991Y-14772460D01*
X7433991Y-14772460D02*
X7443515Y-14762936D01*
X7443515Y-14762936D02*
X7443515Y-14781984D01*
X7576848Y-14581984D02*
X7595896Y-14581984D01*
X7595896Y-14581984D02*
X7614944Y-14591508D01*
X7614944Y-14591508D02*
X7624467Y-14601031D01*
X7624467Y-14601031D02*
X7633991Y-14620079D01*
X7633991Y-14620079D02*
X7643515Y-14658174D01*
X7643515Y-14658174D02*
X7643515Y-14705793D01*
X7643515Y-14705793D02*
X7633991Y-14743888D01*
X7633991Y-14743888D02*
X7624467Y-14762936D01*
X7624467Y-14762936D02*
X7614944Y-14772460D01*
X7614944Y-14772460D02*
X7595896Y-14781984D01*
X7595896Y-14781984D02*
X7576848Y-14781984D01*
X7576848Y-14781984D02*
X7557801Y-14772460D01*
X7557801Y-14772460D02*
X7548277Y-14762936D01*
X7548277Y-14762936D02*
X7538753Y-14743888D01*
X7538753Y-14743888D02*
X7529229Y-14705793D01*
X7529229Y-14705793D02*
X7529229Y-14658174D01*
X7529229Y-14658174D02*
X7538753Y-14620079D01*
X7538753Y-14620079D02*
X7548277Y-14601031D01*
X7548277Y-14601031D02*
X7557801Y-14591508D01*
X7557801Y-14591508D02*
X7576848Y-14581984D01*
X7710182Y-14581984D02*
X7843515Y-14581984D01*
X7843515Y-14581984D02*
X7757801Y-14781984D01*
X8005420Y-14648650D02*
X8005420Y-14781984D01*
X7957801Y-14572460D02*
X7910182Y-14715317D01*
X7910182Y-14715317D02*
X8033991Y-14715317D01*
X8138753Y-14667698D02*
X8119706Y-14658174D01*
X8119706Y-14658174D02*
X8110182Y-14648650D01*
X8110182Y-14648650D02*
X8100658Y-14629603D01*
X8100658Y-14629603D02*
X8100658Y-14620079D01*
X8100658Y-14620079D02*
X8110182Y-14601031D01*
X8110182Y-14601031D02*
X8119706Y-14591508D01*
X8119706Y-14591508D02*
X8138753Y-14581984D01*
X8138753Y-14581984D02*
X8176848Y-14581984D01*
X8176848Y-14581984D02*
X8195896Y-14591508D01*
X8195896Y-14591508D02*
X8205420Y-14601031D01*
X8205420Y-14601031D02*
X8214944Y-14620079D01*
X8214944Y-14620079D02*
X8214944Y-14629603D01*
X8214944Y-14629603D02*
X8205420Y-14648650D01*
X8205420Y-14648650D02*
X8195896Y-14658174D01*
X8195896Y-14658174D02*
X8176848Y-14667698D01*
X8176848Y-14667698D02*
X8138753Y-14667698D01*
X8138753Y-14667698D02*
X8119706Y-14677222D01*
X8119706Y-14677222D02*
X8110182Y-14686746D01*
X8110182Y-14686746D02*
X8100658Y-14705793D01*
X8100658Y-14705793D02*
X8100658Y-14743888D01*
X8100658Y-14743888D02*
X8110182Y-14762936D01*
X8110182Y-14762936D02*
X8119706Y-14772460D01*
X8119706Y-14772460D02*
X8138753Y-14781984D01*
X8138753Y-14781984D02*
X8176848Y-14781984D01*
X8176848Y-14781984D02*
X8195896Y-14772460D01*
X8195896Y-14772460D02*
X8205420Y-14762936D01*
X8205420Y-14762936D02*
X8214944Y-14743888D01*
X8214944Y-14743888D02*
X8214944Y-14705793D01*
X8214944Y-14705793D02*
X8205420Y-14686746D01*
X8205420Y-14686746D02*
X8195896Y-14677222D01*
X8195896Y-14677222D02*
X8176848Y-14667698D01*
X8291134Y-14581984D02*
X8291134Y-14620079D01*
X8367325Y-14581984D02*
X8367325Y-14620079D01*
X8662563Y-14858174D02*
X8653039Y-14848650D01*
X8653039Y-14848650D02*
X8633991Y-14820079D01*
X8633991Y-14820079D02*
X8624468Y-14801031D01*
X8624468Y-14801031D02*
X8614944Y-14772460D01*
X8614944Y-14772460D02*
X8605420Y-14724841D01*
X8605420Y-14724841D02*
X8605420Y-14686746D01*
X8605420Y-14686746D02*
X8614944Y-14639127D01*
X8614944Y-14639127D02*
X8624468Y-14610555D01*
X8624468Y-14610555D02*
X8633991Y-14591508D01*
X8633991Y-14591508D02*
X8653039Y-14562936D01*
X8653039Y-14562936D02*
X8662563Y-14553412D01*
X8729230Y-14601031D02*
X8738753Y-14591508D01*
X8738753Y-14591508D02*
X8757801Y-14581984D01*
X8757801Y-14581984D02*
X8805420Y-14581984D01*
X8805420Y-14581984D02*
X8824468Y-14591508D01*
X8824468Y-14591508D02*
X8833991Y-14601031D01*
X8833991Y-14601031D02*
X8843515Y-14620079D01*
X8843515Y-14620079D02*
X8843515Y-14639127D01*
X8843515Y-14639127D02*
X8833991Y-14667698D01*
X8833991Y-14667698D02*
X8719706Y-14781984D01*
X8719706Y-14781984D02*
X8843515Y-14781984D01*
X9081611Y-14781984D02*
X9081611Y-14581984D01*
X9167325Y-14781984D02*
X9167325Y-14677222D01*
X9167325Y-14677222D02*
X9157801Y-14658174D01*
X9157801Y-14658174D02*
X9138753Y-14648650D01*
X9138753Y-14648650D02*
X9110182Y-14648650D01*
X9110182Y-14648650D02*
X9091134Y-14658174D01*
X9091134Y-14658174D02*
X9081611Y-14667698D01*
X9291134Y-14781984D02*
X9272087Y-14772460D01*
X9272087Y-14772460D02*
X9262563Y-14762936D01*
X9262563Y-14762936D02*
X9253039Y-14743888D01*
X9253039Y-14743888D02*
X9253039Y-14686746D01*
X9253039Y-14686746D02*
X9262563Y-14667698D01*
X9262563Y-14667698D02*
X9272087Y-14658174D01*
X9272087Y-14658174D02*
X9291134Y-14648650D01*
X9291134Y-14648650D02*
X9319706Y-14648650D01*
X9319706Y-14648650D02*
X9338753Y-14658174D01*
X9338753Y-14658174D02*
X9348277Y-14667698D01*
X9348277Y-14667698D02*
X9357801Y-14686746D01*
X9357801Y-14686746D02*
X9357801Y-14743888D01*
X9357801Y-14743888D02*
X9348277Y-14762936D01*
X9348277Y-14762936D02*
X9338753Y-14772460D01*
X9338753Y-14772460D02*
X9319706Y-14781984D01*
X9319706Y-14781984D02*
X9291134Y-14781984D01*
X9472087Y-14781984D02*
X9453039Y-14772460D01*
X9453039Y-14772460D02*
X9443515Y-14753412D01*
X9443515Y-14753412D02*
X9443515Y-14581984D01*
X9624468Y-14772460D02*
X9605420Y-14781984D01*
X9605420Y-14781984D02*
X9567325Y-14781984D01*
X9567325Y-14781984D02*
X9548277Y-14772460D01*
X9548277Y-14772460D02*
X9538753Y-14753412D01*
X9538753Y-14753412D02*
X9538753Y-14677222D01*
X9538753Y-14677222D02*
X9548277Y-14658174D01*
X9548277Y-14658174D02*
X9567325Y-14648650D01*
X9567325Y-14648650D02*
X9605420Y-14648650D01*
X9605420Y-14648650D02*
X9624468Y-14658174D01*
X9624468Y-14658174D02*
X9633992Y-14677222D01*
X9633992Y-14677222D02*
X9633992Y-14696269D01*
X9633992Y-14696269D02*
X9538753Y-14715317D01*
X9710182Y-14772460D02*
X9729230Y-14781984D01*
X9729230Y-14781984D02*
X9767325Y-14781984D01*
X9767325Y-14781984D02*
X9786373Y-14772460D01*
X9786373Y-14772460D02*
X9795896Y-14753412D01*
X9795896Y-14753412D02*
X9795896Y-14743888D01*
X9795896Y-14743888D02*
X9786373Y-14724841D01*
X9786373Y-14724841D02*
X9767325Y-14715317D01*
X9767325Y-14715317D02*
X9738753Y-14715317D01*
X9738753Y-14715317D02*
X9719706Y-14705793D01*
X9719706Y-14705793D02*
X9710182Y-14686746D01*
X9710182Y-14686746D02*
X9710182Y-14677222D01*
X9710182Y-14677222D02*
X9719706Y-14658174D01*
X9719706Y-14658174D02*
X9738753Y-14648650D01*
X9738753Y-14648650D02*
X9767325Y-14648650D01*
X9767325Y-14648650D02*
X9786373Y-14658174D01*
X9862563Y-14858174D02*
X9872087Y-14848650D01*
X9872087Y-14848650D02*
X9891134Y-14820079D01*
X9891134Y-14820079D02*
X9900658Y-14801031D01*
X9900658Y-14801031D02*
X9910182Y-14772460D01*
X9910182Y-14772460D02*
X9919706Y-14724841D01*
X9919706Y-14724841D02*
X9919706Y-14686746D01*
X9919706Y-14686746D02*
X9910182Y-14639127D01*
X9910182Y-14639127D02*
X9900658Y-14610555D01*
X9900658Y-14610555D02*
X9891134Y-14591508D01*
X9891134Y-14591508D02*
X9872087Y-14562936D01*
X9872087Y-14562936D02*
X9862563Y-14553412D01*
M02*
